<?xml version="1.0" encoding="utf-8" standalone="no"?>
<!DOCTYPE svg PUBLIC "-//W3C//DTD SVG 1.1//EN"
  "http://www.w3.org/Graphics/SVG/1.1/DTD/svg11.dtd">
<svg xmlns:xlink="http://www.w3.org/1999/xlink" width="648pt" height="106.3925pt" viewBox="0 0 648 106.3925" xmlns="http://www.w3.org/2000/svg" version="1.1">
 <metadata>
  <rdf:RDF xmlns:dc="http://purl.org/dc/elements/1.1/" xmlns:cc="http://creativecommons.org/ns#" xmlns:rdf="http://www.w3.org/1999/02/22-rdf-syntax-ns#">
   <cc:Work>
    <dc:type rdf:resource="http://purl.org/dc/dcmitype/StillImage"/>
    <dc:date>2025-11-13T15:01:59.370133</dc:date>
    <dc:format>image/svg+xml</dc:format>
    <dc:creator>
     <cc:Agent>
      <dc:title>Matplotlib v3.10.5, https://matplotlib.org/</dc:title>
     </cc:Agent>
    </dc:creator>
   </cc:Work>
  </rdf:RDF>
 </metadata>
 <defs>
  <style type="text/css">*{stroke-linejoin: round; stroke-linecap: butt}</style>
 </defs>
 <g id="figure_1">
  <g id="patch_1">
   <path d="M 0 106.3925 
L 648 106.3925 
L 648 0 
L 0 0 
z
" style="fill: #ffffff"/>
  </g>
  <g id="axes_1">
   <g id="line2d_1">
    <path d="M 7.2 49.48 
L 640.8 49.48 
" clip-path="url(#pe78d2468b8)" style="fill: none; stroke: #000000; stroke-width: 0.5; stroke-linecap: square"/>
   </g>
   <g id="patch_2">
    <path d="M 77.275717 49.465073 
L 38.370043 49.465073 
L 32.227042 49.48 
L 7.2 49.48 
L 42.941097 49.398062 
L 72.621928 49.398062 
L 108.363025 49.48 
L 83.356667 49.48 
L 77.275717 49.465073 
z
M 44.575094 49.449866 
L 71.008614 49.449866 
L 57.812538 49.417273 
L 44.575094 49.449866 
z
" clip-path="url(#pe78d2468b8)"/>
   </g>
   <g id="patch_3">
    <path d="M 7.2 49.316124 
L 59.783697 49.316124 
Q 83.256681 49.316124 95.796681 49.323078 
Q 108.363025 49.330015 108.363025 49.342851 
Q 108.363025 49.355758 95.796681 49.362695 
Q 83.256681 49.369631 59.783697 49.369631 
L 38.892479 49.369631 
L 38.892479 49.398062 
L 7.2 49.398062 
L 7.2 49.316124 
z
M 38.892479 49.331437 
L 38.892479 49.354318 
L 56.411597 49.354318 
Q 65.632185 49.354318 70.663992 49.351333 
Q 75.695798 49.348348 75.695798 49.342851 
Q 75.695798 49.337372 70.663992 49.334405 
Q 65.632185 49.331437 56.411597 49.331437 
L 38.892479 49.331437 
z
" clip-path="url(#pe78d2468b8)"/>
   </g>
   <g id="patch_4">
    <path d="M 108.363025 49.301297 
Q 98.160569 49.308711 87.18726 49.312434 
Q 76.213951 49.316124 64.515134 49.316124 
Q 38.079435 49.316124 22.639718 49.294053 
Q 7.2 49.271981 7.2 49.234237 
Q 7.2 49.196052 22.911783 49.17415 
Q 38.646238 49.152248 66.011494 49.152248 
Q 76.554033 49.152248 86.212358 49.155227 
Q 95.893356 49.158172 104.46342 49.163995 
L 104.46342 49.196661 
Q 95.621291 49.18918 86.86985 49.18549 
Q 78.118409 49.181767 69.321625 49.181767 
Q 53.043038 49.181767 44.223581 49.195375 
Q 35.404124 49.20895 35.404124 49.234237 
Q 35.404124 49.259287 43.906172 49.272963 
Q 52.408219 49.286605 68.051986 49.286605 
Q 72.314345 49.286605 75.964557 49.285827 
Q 79.61477 49.285014 82.516802 49.283322 
L 82.516802 49.252652 
L 65.852789 49.252652 
L 65.852789 49.225334 
L 108.363025 49.225334 
L 108.363025 49.301297 
z
" clip-path="url(#pe78d2468b8)" style="fill: #008000"/>
   </g>
   <g id="patch_5">
    <path d="M 7.2 48.988372 
L 108.363025 48.988372 
L 108.363025 49.020332 
L 71.967862 49.020332 
L 71.967862 49.152248 
L 43.665742 49.152248 
L 43.665742 49.020332 
L 7.2 49.020332 
L 7.2 48.988372 
z
" clip-path="url(#pe78d2468b8)" style="fill: #008000"/>
   </g>
   <g id="patch_6">
    <path d="M 108.363025 48.976626 
Q 99.900913 48.982448 90.750616 48.985393 
Q 81.60032 48.988372 71.634399 48.988372 
Q 41.915052 48.988372 24.557526 48.966301 
Q 7.2 48.94423 7.2 48.906485 
Q 7.2 48.868605 24.557526 48.846567 
Q 41.915052 48.824496 71.634399 48.824496 
Q 81.60032 48.824496 90.750616 48.827475 
Q 99.900913 48.83042 108.363025 48.836243 
L 108.363025 48.86891 
Q 99.824448 48.861191 91.540753 48.857603 
Q 83.257059 48.854015 74.106763 48.854015 
Q 57.692304 48.854015 48.287124 48.867996 
Q 38.907433 48.881942 38.907433 48.906485 
Q 38.907433 48.930926 48.287124 48.944907 
Q 57.692304 48.958853 74.106763 48.958853 
Q 83.257059 48.958853 91.540753 48.955265 
Q 99.824448 48.951643 108.363025 48.943925 
L 108.363025 48.976626 
z
" clip-path="url(#pe78d2468b8)" style="fill: #008000"/>
   </g>
   <g id="patch_7">
    <path d="M 7.2 48.619651 
L 35.168601 48.619651 
L 57.76026 48.69266 
L 80.330666 48.619651 
L 108.363025 48.619651 
L 70.57566 48.738186 
L 70.57566 48.824496 
L 45.008618 48.824496 
L 45.008618 48.738186 
L 7.2 48.619651 
z
" clip-path="url(#pe78d2468b8)" style="fill: #008000"/>
   </g>
   <g id="patch_8">
    <path d="M 60.479193 48.564512 
L 58.498084 48.564512 
Q 34.197882 48.564512 20.688403 48.52319 
Q 7.2 48.481802 7.2 48.408045 
Q 7.2 48.334418 20.667328 48.292706 
Q 34.134655 48.25093 57.781513 48.25093 
Q 81.681277 48.25093 95.022151 48.292317 
Q 108.363025 48.333639 108.363025 48.408045 
Q 108.363025 48.459098 101.281613 48.496009 
Q 94.200202 48.53292 80.901479 48.551538 
L 100.712571 48.619651 
L 76.538824 48.619651 
L 60.479193 48.564512 
z
M 57.781513 48.307497 
Q 46.189916 48.307497 39.804 48.333834 
Q 33.418084 48.360171 33.418084 48.408045 
Q 33.418084 48.456698 39.656471 48.482581 
Q 45.915933 48.508399 57.781513 48.508399 
Q 69.436336 48.508399 75.822252 48.482062 
Q 82.208168 48.45566 82.208168 48.408045 
Q 82.208168 48.360171 75.822252 48.333834 
Q 69.436336 48.307497 57.781513 48.307497 
z
" clip-path="url(#pe78d2468b8)" style="fill: #800080"/>
   </g>
   <g id="patch_9">
    <path d="M 99.928194 47.899804 
L 99.928194 47.975056 
Q 89.377786 47.961955 79.321929 47.955329 
Q 69.293546 47.948626 60.364165 47.948626 
Q 48.522431 47.948626 42.835101 47.95769 
Q 37.175247 47.966678 37.175247 47.985719 
Q 37.175247 48.000039 40.994275 48.008036 
Q 44.813303 48.015957 54.86916 48.02167 
L 68.936371 48.029515 
Q 90.311937 48.041473 99.323743 48.06577 
Q 108.363025 48.089991 108.363025 48.134777 
Q 108.363025 48.193501 95.779466 48.222216 
Q 83.195906 48.25093 57.341912 48.25093 
Q 45.170478 48.25093 32.889144 48.244456 
Q 20.60781 48.238058 8.326476 48.225415 
L 8.326476 48.148106 
Q 20.60781 48.166157 32.064893 48.175373 
Q 43.521977 48.184513 54.182285 48.184513 
Q 65.007443 48.184513 70.749722 48.174535 
Q 76.492002 48.164482 76.492002 48.145897 
Q 76.492002 48.129293 72.590549 48.120229 
Q 68.689096 48.111165 57.012212 48.104005 
L 44.208853 48.09616 
Q 24.976338 48.084735 16.074432 48.059753 
Q 7.2 48.03477 7.2 47.992422 
Q 7.2 47.939334 19.563759 47.910772 
Q 31.927518 47.882209 55.116436 47.882209 
Q 65.694318 47.882209 76.849177 47.886627 
Q 88.004035 47.891045 99.928194 47.899804 
z
" clip-path="url(#pe78d2468b8)" style="fill: #008000"/>
   </g>
   <g id="patch_10">
    <path d="M 39.425688 47.308643 
L 76.137338 47.308643 
L 76.137338 47.882209 
L 39.425688 47.882209 
L 39.425688 47.308643 
z
" clip-path="url(#pe78d2468b8)"/>
   </g>
   <g id="patch_11">
    <path d="M 34.921895 46.583108 
L 34.921895 47.133054 
L 44.853846 47.133054 
Q 61.837251 47.133054 70.801355 47.062355 
Q 79.788503 46.991656 79.788503 46.857019 
Q 79.788503 46.723154 70.847443 46.653227 
Q 61.929427 46.583108 44.853846 46.583108 
L 34.921895 46.583108 
z
M 7.2 46.407326 
L 36.419753 46.407326 
Q 60.915492 46.407326 72.898356 46.436687 
Q 84.88122 46.465855 93.453577 46.535975 
Q 101.011999 46.597016 104.67599 46.676794 
Q 108.363025 46.756379 108.363025 46.857019 
Q 108.363025 46.959204 104.67599 47.039175 
Q 101.011999 47.119146 93.453577 47.179994 
Q 84.812089 47.250114 72.714005 47.279475 
Q 60.615921 47.308643 36.419753 47.308643 
L 7.2 47.308643 
L 7.2 46.407326 
z
" clip-path="url(#pe78d2468b8)" style="fill: #ff0000"/>
   </g>
   <g id="patch_12">
    <path d="M 7.2 45.465039 
L 37.042118 45.465039 
L 57.742529 45.969302 
L 78.579383 45.465039 
L 108.363025 45.465039 
L 108.363025 46.407326 
L 86.200721 46.407326 
L 86.200721 45.718079 
L 65.246915 46.226179 
L 50.374586 46.226179 
L 29.42078 45.718079 
L 29.42078 46.407326 
L 7.2 46.407326 
L 7.2 45.465039 
z
" clip-path="url(#pe78d2468b8)"/>
   </g>
   <g id="patch_13">
    <path d="M 7.2 44.440814 
L 36.307658 44.440814 
L 36.307658 44.831099 
L 79.255367 44.831099 
L 79.255367 44.440814 
L 108.363025 44.440814 
L 108.363025 45.465039 
L 79.255367 45.465039 
L 79.255367 45.030852 
L 36.307658 45.030852 
L 36.307658 45.465039 
L 7.2 45.465039 
L 7.2 44.440814 
z
" clip-path="url(#pe78d2468b8)" style="fill: #0000ff"/>
   </g>
   <g id="patch_14">
    <path d="M 7.2 42.638178 
L 43.91165 42.638178 
L 43.91165 44.089636 
L 108.363025 44.089636 
L 108.363025 44.440814 
L 7.2 44.440814 
L 7.2 42.638178 
z
" clip-path="url(#pe78d2468b8)"/>
   </g>
   <g id="patch_15">
    <path d="M 8.252828 40.630698 
L 107.310197 40.630698 
L 107.310197 41.022212 
L 44.964478 41.022212 
L 44.964478 41.395657 
L 103.617671 41.395657 
L 103.617671 41.787172 
L 44.964478 41.787172 
L 44.964478 42.638178 
L 8.252828 42.638178 
L 8.252828 40.630698 
z
" clip-path="url(#pe78d2468b8)"/>
   </g>
   <g id="patch_16">
    <path d="M 7.2 38.295465 
L 39.695083 38.295465 
L 80.755512 39.896996 
L 80.755512 38.295465 
L 108.363025 38.295465 
L 108.363025 40.630698 
L 75.843746 40.630698 
L 34.783317 39.029167 
L 34.783317 40.630698 
L 7.2 40.630698 
L 7.2 38.295465 
z
" clip-path="url(#pe78d2468b8)" style="fill: #800080"/>
   </g>
   <g id="patch_17">
    <path d="M 48.246441 36.585277 
Q 57.325174 36.585277 61.264095 36.493084 
Q 65.203017 36.400232 65.203017 36.188187 
Q 65.203017 35.978118 61.264095 35.8879 
Q 57.325174 35.797024 48.246441 35.797024 
L 36.093428 35.797024 
L 36.093428 36.585277 
L 48.246441 36.585277 
z
M 36.093428 37.132511 
L 36.093428 38.295465 
L 7.2 38.295465 
L 7.2 35.222791 
L 51.320721 35.222791 
Q 73.465144 35.222791 83.768785 35.426933 
Q 94.096445 35.630417 94.096445 36.07097 
Q 94.096445 36.375208 88.716455 36.57079 
Q 83.360483 36.766372 72.552467 36.859224 
Q 78.484867 36.896101 83.16834 37.027147 
Q 87.875831 37.157535 92.679394 37.42292 
L 108.363025 38.295465 
L 77.596208 38.295465 
L 63.930073 37.532235 
Q 59.799009 37.301752 55.547856 37.217461 
Q 51.320721 37.132511 44.259484 37.132511 
L 36.093428 37.132511 
z
" clip-path="url(#pe78d2468b8)" style="fill: #0000ff"/>
   </g>
   <g id="patch_18">
    <path d="M 7.2 30.757171 
L 33.859172 30.757171 
L 33.859172 32.387036 
L 72.285609 30.757171 
L 103.243932 30.757171 
L 53.44912 32.872263 
L 108.363025 35.222791 
L 74.989199 35.222791 
L 33.859172 33.463723 
L 33.859172 35.222791 
L 7.2 35.222791 
L 7.2 30.757171 
z
" clip-path="url(#pe78d2468b8)" style="fill: #0000ff"/>
   </g>
   <g id="patch_19">
    <path d="M 7.2 24.857636 
L 32.227042 24.857636 
L 57.812538 29.212114 
L 83.356667 24.857636 
L 108.363025 24.857636 
L 72.621928 30.757171 
L 42.941097 30.757171 
L 7.2 24.857636 
z
" clip-path="url(#pe78d2468b8)"/>
   </g>
   <g id="patch_20">
    <path d="M 7.2 7.2 
L 106.257369 7.2 
L 106.257369 10.643731 
L 43.91165 10.643731 
L 43.91165 13.92852 
L 102.564843 13.92852 
L 102.564843 17.372251 
L 43.91165 17.372251 
L 43.91165 21.417689 
L 108.363025 21.417689 
L 108.363025 24.857636 
L 7.2 24.857636 
L 7.2 7.2 
z
" clip-path="url(#pe78d2468b8)" style="fill: #ff0000"/>
   </g>
   <g id="patch_21">
    <path d="M 114.740223 49.398062 
L 213.797592 49.398062 
L 213.797592 49.414042 
L 151.451873 49.414042 
L 151.451873 49.429285 
L 210.105066 49.429285 
L 210.105066 49.445265 
L 151.451873 49.445265 
L 151.451873 49.48 
L 114.740223 49.48 
L 114.740223 49.398062 
z
" clip-path="url(#pe78d2468b8)"/>
   </g>
   <g id="patch_22">
    <path d="M 113.687395 49.234186 
L 141.655996 49.234186 
L 164.247655 49.292593 
L 186.818061 49.234186 
L 214.85042 49.234186 
L 177.063055 49.329014 
L 177.063055 49.398062 
L 151.496013 49.398062 
L 151.496013 49.329014 
L 113.687395 49.234186 
z
" clip-path="url(#pe78d2468b8)" style="fill: #008000"/>
   </g>
   <g id="patch_23">
    <path d="M 113.687395 49.07031 
L 146.182478 49.07031 
L 187.242907 49.182698 
L 187.242907 49.07031 
L 214.85042 49.07031 
L 214.85042 49.234186 
L 182.331141 49.234186 
L 141.270712 49.121798 
L 141.270712 49.234186 
L 113.687395 49.234186 
L 113.687395 49.07031 
z
" clip-path="url(#pe78d2468b8)" style="fill: #800080"/>
   </g>
   <g id="patch_24">
    <path d="M 113.687395 48.865465 
L 166.271092 48.865465 
Q 189.744076 48.865465 202.284076 48.88285 
Q 214.85042 48.900191 214.85042 48.932283 
Q 214.85042 48.964551 202.284076 48.981892 
Q 189.744076 48.999233 166.271092 48.999233 
L 145.379874 48.999233 
L 145.379874 49.07031 
L 113.687395 49.07031 
L 113.687395 48.865465 
z
M 145.379874 48.903747 
L 145.379874 48.960951 
L 162.898992 48.960951 
Q 172.11958 48.960951 177.151387 48.953488 
Q 182.183193 48.946025 182.183193 48.932283 
Q 182.183193 48.918586 177.151387 48.911167 
Q 172.11958 48.903747 162.898992 48.903747 
L 145.379874 48.903747 
z
" clip-path="url(#pe78d2468b8)"/>
   </g>
   <g id="patch_25">
    <path d="M 183.763111 48.820685 
L 144.857438 48.820685 
L 138.714437 48.865465 
L 113.687395 48.865465 
L 149.428492 48.619651 
L 179.109323 48.619651 
L 214.85042 48.865465 
L 189.844062 48.865465 
L 183.763111 48.820685 
z
M 151.062489 48.775063 
L 177.496009 48.775063 
L 164.299933 48.677285 
L 151.062489 48.775063 
z
" clip-path="url(#pe78d2468b8)"/>
   </g>
   <g id="patch_26">
    <path d="M 113.687395 48.373837 
L 214.85042 48.373837 
L 214.85042 48.421778 
L 178.455257 48.421778 
L 178.455257 48.619651 
L 150.153137 48.619651 
L 150.153137 48.421778 
L 113.687395 48.421778 
L 113.687395 48.373837 
z
" clip-path="url(#pe78d2468b8)" style="fill: #008000"/>
   </g>
   <g id="patch_27">
    <path d="M 113.687395 47.964147 
L 150.399045 47.964147 
L 150.399045 48.294024 
L 214.85042 48.294024 
L 214.85042 48.373837 
L 113.687395 48.373837 
L 113.687395 47.964147 
z
" clip-path="url(#pe78d2468b8)"/>
   </g>
   <g id="patch_28">
    <path d="M 166.966588 47.866122 
L 164.985479 47.866122 
Q 140.685277 47.866122 127.175798 47.79266 
Q 113.687395 47.719083 113.687395 47.587959 
Q 113.687395 47.457066 127.154723 47.382912 
Q 140.62205 47.308643 164.268908 47.308643 
Q 188.168672 47.308643 201.509546 47.38222 
Q 214.85042 47.455682 214.85042 47.587959 
Q 214.85042 47.678719 207.769008 47.744339 
Q 200.687597 47.809959 187.388874 47.843057 
L 207.199966 47.964147 
L 183.026218 47.964147 
L 166.966588 47.866122 
z
M 164.268908 47.409206 
Q 152.677311 47.409206 146.291395 47.456028 
Q 139.905479 47.50285 139.905479 47.587959 
Q 139.905479 47.674452 146.143866 47.720467 
Q 152.403328 47.766366 164.268908 47.766366 
Q 175.923731 47.766366 182.309647 47.719544 
Q 188.695563 47.672607 188.695563 47.587959 
Q 188.695563 47.50285 182.309647 47.456028 
Q 175.923731 47.409206 164.268908 47.409206 
z
" clip-path="url(#pe78d2468b8)" style="fill: #800080"/>
   </g>
   <g id="patch_29">
    <path d="M 141.40929 46.748002 
L 141.40929 47.172961 
L 151.341241 47.172961 
Q 168.324646 47.172961 177.28875 47.11833 
Q 186.275898 47.063699 186.275898 46.959661 
Q 186.275898 46.85622 177.334838 46.802186 
Q 168.416822 46.748002 151.341241 46.748002 
L 141.40929 46.748002 
z
M 113.687395 46.612171 
L 142.907148 46.612171 
Q 167.402887 46.612171 179.385751 46.634859 
Q 191.368615 46.657398 199.940972 46.711581 
Q 207.499394 46.758749 211.163385 46.820396 
Q 214.85042 46.881893 214.85042 46.959661 
Q 214.85042 47.038622 211.163385 47.100418 
Q 207.499394 47.162214 199.940972 47.209233 
Q 191.299484 47.263416 179.2014 47.286104 
Q 167.103316 47.308643 142.907148 47.308643 
L 113.687395 47.308643 
L 113.687395 46.612171 
z
" clip-path="url(#pe78d2468b8)" style="fill: #ff0000"/>
   </g>
   <g id="patch_30">
    <path d="M 206.415589 45.909918 
L 206.415589 46.060422 
Q 195.865181 46.034221 185.809324 46.020968 
Q 175.780941 46.007563 166.851559 46.007563 
Q 155.009826 46.007563 149.322496 46.02569 
Q 143.662642 46.043665 143.662642 46.081749 
Q 143.662642 46.110387 147.48167 46.126382 
Q 151.300698 46.142225 161.356555 46.15365 
L 175.423766 46.16934 
Q 196.799332 46.193256 205.811138 46.24185 
Q 214.85042 46.290292 214.85042 46.379863 
Q 214.85042 46.497312 202.266861 46.554741 
Q 189.683301 46.612171 163.829307 46.612171 
Q 151.657873 46.612171 139.376539 46.599222 
Q 127.095205 46.586426 114.813871 46.561139 
L 114.813871 46.406522 
Q 127.095205 46.442624 138.552288 46.461057 
Q 150.009372 46.479337 160.66968 46.479337 
Q 171.494838 46.479337 177.237117 46.459381 
Q 182.979396 46.439273 182.979396 46.402104 
Q 182.979396 46.368895 179.077944 46.350768 
Q 175.176491 46.33264 163.499607 46.318321 
L 150.696247 46.302631 
Q 131.463733 46.279781 122.561827 46.229816 
Q 113.687395 46.179851 113.687395 46.095154 
Q 113.687395 45.988978 126.051154 45.931853 
Q 138.414913 45.874729 161.603831 45.874729 
Q 172.181713 45.874729 183.336572 45.883564 
Q 194.49143 45.892399 206.415589 45.909918 
z
" clip-path="url(#pe78d2468b8)" style="fill: #008000"/>
   </g>
   <g id="patch_31">
    <path d="M 145.913083 45.055349 
L 182.624732 45.055349 
L 182.624732 45.874729 
L 145.913083 45.874729 
L 145.913083 45.055349 
z
" clip-path="url(#pe78d2468b8)"/>
   </g>
   <g id="patch_32">
    <path d="M 113.687395 43.78531 
L 140.346567 43.78531 
L 140.346567 44.24885 
L 178.773004 43.78531 
L 209.731327 43.78531 
L 159.936515 44.38685 
L 214.85042 45.055349 
L 181.476594 45.055349 
L 140.346567 44.555064 
L 140.346567 45.055349 
L 113.687395 45.055349 
L 113.687395 43.78531 
z
" clip-path="url(#pe78d2468b8)" style="fill: #0000ff"/>
   </g>
   <g id="patch_33">
    <path d="M 154.733836 43.010025 
Q 163.812569 43.010025 167.75149 42.968231 
Q 171.690412 42.926138 171.690412 42.830011 
Q 171.690412 42.734779 167.75149 42.693881 
Q 163.812569 42.652683 154.733836 42.652683 
L 142.580823 42.652683 
L 142.580823 43.010025 
L 154.733836 43.010025 
z
M 142.580823 43.258104 
L 142.580823 43.78531 
L 113.687395 43.78531 
L 113.687395 42.392364 
L 157.808116 42.392364 
Q 179.952539 42.392364 190.25618 42.484909 
Q 200.58384 42.577155 200.58384 42.776872 
Q 200.58384 42.914794 195.20385 43.003457 
Q 189.847878 43.092121 179.039862 43.134214 
Q 184.972262 43.150932 189.655735 43.210339 
Q 194.363226 43.269448 199.166789 43.389756 
L 214.85042 43.78531 
L 184.083603 43.78531 
L 170.417467 43.439313 
Q 166.286404 43.334827 162.035251 43.296615 
Q 157.808116 43.258104 150.746879 43.258104 
L 142.580823 43.258104 
z
" clip-path="url(#pe78d2468b8)" style="fill: #0000ff"/>
   </g>
   <g id="patch_34">
    <path d="M 113.687395 39.114845 
L 143.529513 39.114845 
L 164.229924 40.868803 
L 185.066778 39.114845 
L 214.85042 39.114845 
L 214.85042 42.392364 
L 192.688116 42.392364 
L 192.688116 39.994985 
L 171.73431 41.762288 
L 156.861981 41.762288 
L 135.908175 39.994985 
L 135.908175 42.392364 
L 113.687395 42.392364 
L 113.687395 39.114845 
z
" clip-path="url(#pe78d2468b8)"/>
   </g>
   <g id="patch_35">
    <path d="M 113.687395 35.591512 
L 138.714437 35.591512 
L 164.299933 38.192103 
L 189.844062 35.591512 
L 214.85042 35.591512 
L 179.109323 39.114845 
L 149.428492 39.114845 
L 113.687395 35.591512 
z
" clip-path="url(#pe78d2468b8)"/>
   </g>
   <g id="patch_36">
    <path d="M 214.85042 35.028084 
Q 204.647964 35.309798 193.674655 35.451298 
Q 182.701346 35.591512 171.002529 35.591512 
Q 144.56683 35.591512 129.127113 34.752802 
Q 113.687395 33.914093 113.687395 32.479798 
Q 113.687395 31.028779 129.399178 30.196502 
Q 145.133633 29.364225 172.498889 29.364225 
Q 183.041428 29.364225 192.699753 29.477425 
Q 202.380751 29.589338 210.950815 29.810593 
L 210.950815 31.051934 
Q 202.108685 30.767648 193.357245 30.627434 
Q 184.605804 30.485934 175.80902 30.485934 
Q 159.530433 30.485934 150.710976 31.003052 
Q 141.891519 31.518884 141.891519 32.479798 
Q 141.891519 33.431707 150.393567 33.951398 
Q 158.895614 34.469802 174.539381 34.469802 
Q 178.80174 34.469802 182.451952 34.440216 
Q 186.102165 34.409343 189.004197 34.345025 
L 189.004197 33.17958 
L 172.340184 33.17958 
L 172.340184 32.141484 
L 214.85042 32.141484 
L 214.85042 35.028084 
z
" clip-path="url(#pe78d2468b8)" style="fill: #008000"/>
   </g>
   <g id="patch_37">
    <path d="M 113.687395 7.2 
L 212.744764 7.2 
L 212.744764 11.522641 
L 150.399045 11.522641 
L 150.399045 15.645776 
L 209.052238 15.645776 
L 209.052238 19.968418 
L 150.399045 19.968418 
L 150.399045 25.046334 
L 214.85042 25.046334 
L 214.85042 29.364225 
L 113.687395 29.364225 
L 113.687395 7.2 
z
" clip-path="url(#pe78d2468b8)" style="fill: #ff0000"/>
   </g>
   <g id="patch_38">
    <path d="M 221.227618 49.439031 
L 320.284987 49.439031 
L 320.284987 49.447021 
L 257.939268 49.447021 
L 257.939268 49.454642 
L 316.592461 49.454642 
L 316.592461 49.462633 
L 257.939268 49.462633 
L 257.939268 49.48 
L 221.227618 49.48 
L 221.227618 49.439031 
z
" clip-path="url(#pe78d2468b8)"/>
   </g>
   <g id="patch_39">
    <path d="M 220.17479 49.398062 
L 321.337815 49.398062 
L 321.337815 49.406052 
L 284.942652 49.406052 
L 284.942652 49.439031 
L 256.640532 49.439031 
L 256.640532 49.406052 
L 220.17479 49.406052 
L 220.17479 49.398062 
z
" clip-path="url(#pe78d2468b8)" style="fill: #008000"/>
   </g>
   <g id="patch_40">
    <path d="M 247.896685 49.365083 
L 247.896685 49.390081 
L 257.828636 49.390081 
Q 274.812041 49.390081 283.776145 49.386867 
Q 292.763293 49.383654 292.763293 49.377534 
Q 292.763293 49.371449 283.822233 49.36827 
Q 274.904217 49.365083 257.828636 49.365083 
L 247.896685 49.365083 
z
M 220.17479 49.357093 
L 249.394543 49.357093 
Q 273.890282 49.357093 285.873146 49.358428 
Q 297.85601 49.359753 306.428367 49.362941 
Q 313.986789 49.365715 317.65078 49.369342 
Q 321.337815 49.372959 321.337815 49.377534 
Q 321.337815 49.382178 317.65078 49.385813 
Q 313.986789 49.389449 306.428367 49.392214 
Q 297.786879 49.395402 285.688795 49.396736 
Q 273.590711 49.398062 249.394543 49.398062 
L 220.17479 49.398062 
L 220.17479 49.357093 
z
" clip-path="url(#pe78d2468b8)" style="fill: #ff0000"/>
   </g>
   <g id="patch_41">
    <path d="M 290.250506 49.342166 
L 251.344833 49.342166 
L 245.201832 49.357093 
L 220.17479 49.357093 
L 255.915887 49.275155 
L 285.596718 49.275155 
L 321.337815 49.357093 
L 296.331457 49.357093 
L 290.250506 49.342166 
z
M 257.549884 49.326959 
L 283.983404 49.326959 
L 270.787328 49.294366 
L 257.549884 49.326959 
z
" clip-path="url(#pe78d2468b8)"/>
   </g>
   <g id="patch_42">
    <path d="M 220.17479 49.193217 
L 250.016908 49.193217 
L 270.717319 49.237066 
L 291.554173 49.193217 
L 321.337815 49.193217 
L 321.337815 49.275155 
L 299.175511 49.275155 
L 299.175511 49.215221 
L 278.221705 49.259403 
L 263.349376 49.259403 
L 242.39557 49.215221 
L 242.39557 49.275155 
L 220.17479 49.275155 
L 220.17479 49.193217 
z
" clip-path="url(#pe78d2468b8)"/>
   </g>
   <g id="patch_43">
    <path d="M 273.453983 49.168711 
L 271.472874 49.168711 
Q 247.172672 49.168711 233.663193 49.150345 
Q 220.17479 49.131951 220.17479 49.09917 
Q 220.17479 49.066447 233.642118 49.047908 
Q 247.109445 49.029341 270.756303 49.029341 
Q 294.656067 49.029341 307.996941 49.047735 
Q 321.337815 49.066101 321.337815 49.09917 
Q 321.337815 49.12186 314.256403 49.138265 
Q 307.174992 49.15467 293.876269 49.162944 
L 313.687361 49.193217 
L 289.513613 49.193217 
L 273.453983 49.168711 
z
M 270.756303 49.054482 
Q 259.164706 49.054482 252.77879 49.066187 
Q 246.392874 49.077893 246.392874 49.09917 
Q 246.392874 49.120793 252.631261 49.132297 
Q 258.890723 49.143772 270.756303 49.143772 
Q 282.411126 49.143772 288.797042 49.132066 
Q 295.182958 49.120332 295.182958 49.09917 
Q 295.182958 49.077893 288.797042 49.066187 
Q 282.411126 49.054482 270.756303 49.054482 
z
" clip-path="url(#pe78d2468b8)" style="fill: #800080"/>
   </g>
   <g id="patch_44">
    <path d="M 220.17479 48.865465 
L 252.669873 48.865465 
L 293.730302 48.977853 
L 293.730302 48.865465 
L 321.337815 48.865465 
L 321.337815 49.029341 
L 288.818536 49.029341 
L 247.758107 48.916953 
L 247.758107 49.029341 
L 220.17479 49.029341 
L 220.17479 48.865465 
z
" clip-path="url(#pe78d2468b8)" style="fill: #800080"/>
   </g>
   <g id="patch_45">
    <path d="M 220.17479 48.578682 
L 245.201832 48.578682 
L 270.787328 48.790358 
L 296.331457 48.578682 
L 321.337815 48.578682 
L 285.596718 48.865465 
L 255.915887 48.865465 
L 220.17479 48.578682 
z
" clip-path="url(#pe78d2468b8)"/>
   </g>
   <g id="patch_46">
    <path d="M 220.17479 48.046085 
L 319.232159 48.046085 
L 319.232159 48.149957 
L 256.88644 48.149957 
L 256.88644 48.249034 
L 315.539633 48.249034 
L 315.539633 48.352905 
L 256.88644 48.352905 
L 256.88644 48.474925 
L 321.337815 48.474925 
L 321.337815 48.578682 
L 220.17479 48.578682 
L 220.17479 48.046085 
z
" clip-path="url(#pe78d2468b8)" style="fill: #ff0000"/>
   </g>
   <g id="patch_47">
    <path d="M 252.400478 45.915698 
L 289.112127 45.915698 
L 289.112127 48.046085 
L 252.400478 48.046085 
L 252.400478 45.915698 
z
" clip-path="url(#pe78d2468b8)"/>
   </g>
   <g id="patch_48">
    <path d="M 261.221231 43.977485 
Q 270.299964 43.977485 274.238885 43.872999 
Q 278.177807 43.767767 278.177807 43.52745 
Q 278.177807 43.289371 274.238885 43.187124 
Q 270.299964 43.084131 261.221231 43.084131 
L 249.068218 43.084131 
L 249.068218 43.977485 
L 261.221231 43.977485 
z
M 249.068218 44.597683 
L 249.068218 45.915698 
L 220.17479 45.915698 
L 220.17479 42.433333 
L 264.295511 42.433333 
Q 286.439934 42.433333 296.743575 42.664695 
Q 307.071235 42.89531 307.071235 43.394603 
Q 307.071235 43.739407 301.691245 43.961066 
Q 296.335273 44.182725 285.527257 44.287957 
Q 291.459657 44.329752 296.14313 44.478271 
Q 300.850621 44.626044 305.654184 44.926814 
L 321.337815 45.915698 
L 290.570998 45.915698 
L 276.904862 45.050704 
Q 272.773799 44.789489 268.522646 44.693959 
Q 264.295511 44.597683 257.234274 44.597683 
L 249.068218 44.597683 
z
" clip-path="url(#pe78d2468b8)" style="fill: #0000ff"/>
   </g>
   <g id="patch_49">
    <path d="M 220.17479 7.2 
L 246.833962 7.2 
L 246.833962 20.059487 
L 285.260399 7.2 
L 316.218722 7.2 
L 266.42391 23.887884 
L 321.337815 42.433333 
L 287.963989 42.433333 
L 246.833962 28.554451 
L 246.833962 42.433333 
L 220.17479 42.433333 
L 220.17479 7.2 
z
" clip-path="url(#pe78d2468b8)" style="fill: #0000ff"/>
   </g>
   <g id="patch_50">
    <path d="M 326.662185 49.398062 
L 356.504303 49.398062 
L 377.204714 49.441911 
L 398.041568 49.398062 
L 427.82521 49.398062 
L 427.82521 49.48 
L 405.662906 49.48 
L 405.662906 49.420066 
L 384.7091 49.464248 
L 369.836771 49.464248 
L 348.882965 49.420066 
L 348.882965 49.48 
L 326.662185 49.48 
L 326.662185 49.398062 
z
" clip-path="url(#pe78d2468b8)"/>
   </g>
   <g id="patch_51">
    <path d="M 427.82521 49.392189 
Q 419.363098 49.3951 410.212801 49.396573 
Q 401.062505 49.398062 391.096583 49.398062 
Q 361.377237 49.398062 344.019711 49.387026 
Q 326.662185 49.375991 326.662185 49.357118 
Q 326.662185 49.338178 344.019711 49.32716 
Q 361.377237 49.316124 391.096583 49.316124 
Q 401.062505 49.316124 410.212801 49.317614 
Q 419.363098 49.319086 427.82521 49.321997 
L 427.82521 49.338331 
Q 419.286633 49.334472 411.002938 49.332678 
Q 402.719244 49.330883 393.568948 49.330883 
Q 377.154488 49.330883 367.749309 49.337874 
Q 358.369618 49.344847 358.369618 49.357118 
Q 358.369618 49.369339 367.749309 49.376329 
Q 377.154488 49.383303 393.568948 49.383303 
Q 402.719244 49.383303 411.002938 49.381509 
Q 419.286633 49.379697 427.82521 49.375838 
L 427.82521 49.392189 
z
" clip-path="url(#pe78d2468b8)" style="fill: #008000"/>
   </g>
   <g id="patch_52">
    <path d="M 379.941378 49.291618 
L 377.960269 49.291618 
Q 353.660067 49.291618 340.150588 49.273252 
Q 326.662185 49.254858 326.662185 49.222077 
Q 326.662185 49.189354 340.129513 49.170815 
Q 353.59684 49.152248 377.243697 49.152248 
Q 401.143462 49.152248 414.484336 49.170642 
Q 427.82521 49.189008 427.82521 49.222077 
Q 427.82521 49.244767 420.743798 49.261172 
Q 413.662387 49.277577 400.363664 49.285851 
L 420.174756 49.316124 
L 396.001008 49.316124 
L 379.941378 49.291618 
z
M 377.243697 49.177389 
Q 365.652101 49.177389 359.266185 49.189094 
Q 352.880269 49.2008 352.880269 49.222077 
Q 352.880269 49.2437 359.118655 49.255204 
Q 365.378118 49.266679 377.243697 49.266679 
Q 388.898521 49.266679 395.284437 49.254973 
Q 401.670353 49.243239 401.670353 49.222077 
Q 401.670353 49.2008 395.284437 49.189094 
Q 388.898521 49.177389 377.243697 49.177389 
z
" clip-path="url(#pe78d2468b8)" style="fill: #800080"/>
   </g>
   <g id="patch_53">
    <path d="M 326.662185 48.906434 
L 353.321357 48.906434 
L 353.321357 48.996151 
L 391.747794 48.906434 
L 422.706117 48.906434 
L 372.911305 49.022861 
L 427.82521 49.152248 
L 394.451384 49.152248 
L 353.321357 49.055419 
L 353.321357 49.152248 
L 326.662185 49.152248 
L 326.662185 48.906434 
z
" clip-path="url(#pe78d2468b8)" style="fill: #0000ff"/>
   </g>
   <g id="patch_54">
    <path d="M 326.662185 48.66062 
L 379.245882 48.66062 
Q 402.718866 48.66062 415.258866 48.681482 
Q 427.82521 48.702292 427.82521 48.740802 
Q 427.82521 48.779523 415.258866 48.800333 
Q 402.718866 48.821142 379.245882 48.821142 
L 358.354664 48.821142 
L 358.354664 48.906434 
L 326.662185 48.906434 
L 326.662185 48.66062 
z
M 358.354664 48.706559 
L 358.354664 48.775203 
L 375.873782 48.775203 
Q 385.09437 48.775203 390.126176 48.766247 
Q 395.157983 48.757292 395.157983 48.740802 
Q 395.157983 48.724365 390.126176 48.715462 
Q 385.09437 48.706559 375.873782 48.706559 
L 358.354664 48.706559 
z
" clip-path="url(#pe78d2468b8)"/>
   </g>
   <g id="patch_55">
    <path d="M 326.662185 48.291899 
L 351.689226 48.291899 
L 377.274723 48.564054 
L 402.818852 48.291899 
L 427.82521 48.291899 
L 392.084113 48.66062 
L 362.403282 48.66062 
L 326.662185 48.291899 
z
" clip-path="url(#pe78d2468b8)"/>
   </g>
   <g id="patch_56">
    <path d="M 367.708626 47.995467 
Q 376.787359 47.995467 380.72628 47.979487 
Q 384.665201 47.963392 384.665201 47.926638 
Q 384.665201 47.890226 380.72628 47.874588 
Q 376.787359 47.858836 367.708626 47.858836 
L 355.555613 47.858836 
L 355.555613 47.995467 
L 367.708626 47.995467 
z
M 355.555613 48.090321 
L 355.555613 48.291899 
L 326.662185 48.291899 
L 326.662185 47.759302 
L 370.782906 47.759302 
Q 392.927329 47.759302 403.23097 47.794687 
Q 413.55863 47.829958 413.55863 47.90632 
Q 413.55863 47.959055 408.17864 47.992956 
Q 402.822668 48.026856 392.014652 48.042951 
Q 397.947052 48.049343 402.630525 48.072057 
Q 407.338016 48.094658 412.141579 48.140658 
L 427.82521 48.291899 
L 397.058393 48.291899 
L 383.392257 48.159606 
Q 379.261194 48.119656 375.010041 48.105045 
Q 370.782906 48.090321 363.721669 48.090321 
L 355.555613 48.090321 
z
" clip-path="url(#pe78d2468b8)" style="fill: #0000ff"/>
   </g>
   <g id="patch_57">
    <path d="M 326.662185 47.185736 
L 425.719554 47.185736 
L 425.719554 47.297598 
L 363.373835 47.297598 
L 363.373835 47.404296 
L 422.027028 47.404296 
L 422.027028 47.516158 
L 363.373835 47.516158 
L 363.373835 47.647564 
L 427.82521 47.647564 
L 427.82521 47.759302 
L 326.662185 47.759302 
L 326.662185 47.185736 
z
" clip-path="url(#pe78d2468b8)" style="fill: #ff0000"/>
   </g>
   <g id="patch_58">
    <path d="M 326.662185 46.120543 
L 359.157268 46.120543 
L 400.217697 46.851066 
L 400.217697 46.120543 
L 427.82521 46.120543 
L 427.82521 47.185736 
L 395.305931 47.185736 
L 354.245502 46.455213 
L 354.245502 47.185736 
L 326.662185 47.185736 
L 326.662185 46.120543 
z
" clip-path="url(#pe78d2468b8)" style="fill: #800080"/>
   </g>
   <g id="patch_59">
    <path d="M 326.662185 44.891473 
L 363.373835 44.891473 
L 363.373835 45.881103 
L 427.82521 45.881103 
L 427.82521 46.120543 
L 326.662185 46.120543 
L 326.662185 44.891473 
z
" clip-path="url(#pe78d2468b8)"/>
   </g>
   <g id="patch_60">
    <path d="M 354.38408 43.737211 
L 354.38408 44.612127 
L 364.316031 44.612127 
Q 381.299436 44.612127 390.26354 44.499651 
Q 399.250688 44.387175 399.250688 44.172979 
Q 399.250688 43.960012 390.309628 43.848765 
Q 381.391612 43.737211 364.316031 43.737211 
L 354.38408 43.737211 
z
M 326.662185 43.457558 
L 355.881938 43.457558 
Q 380.377677 43.457558 392.360541 43.504269 
Q 404.343405 43.550673 412.915762 43.662227 
Q 420.474184 43.759338 424.138175 43.886257 
Q 427.82521 44.01287 427.82521 44.172979 
Q 427.82521 44.335547 424.138175 44.462774 
Q 420.474184 44.59 412.915762 44.686804 
Q 404.274273 44.798358 392.17619 44.845069 
Q 380.078106 44.891473 355.881938 44.891473 
L 326.662185 44.891473 
L 326.662185 43.457558 
z
" clip-path="url(#pe78d2468b8)" style="fill: #ff0000"/>
   </g>
   <g id="patch_61">
    <path d="M 396.737901 43.099321 
L 357.832228 43.099321 
L 351.689226 43.457558 
L 326.662185 43.457558 
L 362.403282 41.491047 
L 392.084113 41.491047 
L 427.82521 43.457558 
L 402.818852 43.457558 
L 396.737901 43.099321 
z
M 364.037279 42.73434 
L 390.470799 42.73434 
L 377.274723 41.952119 
L 364.037279 42.73434 
z
" clip-path="url(#pe78d2468b8)"/>
   </g>
   <g id="patch_62">
    <path d="M 326.662185 38.541279 
L 354.630786 38.541279 
L 377.222445 39.5926 
L 399.792851 38.541279 
L 427.82521 38.541279 
L 390.037845 40.248174 
L 390.037845 41.491047 
L 364.470803 41.491047 
L 364.470803 40.248174 
L 326.662185 38.541279 
z
" clip-path="url(#pe78d2468b8)" style="fill: #008000"/>
   </g>
   <g id="patch_63">
    <path d="M 326.662185 34.813101 
L 427.82521 34.813101 
L 427.82521 35.540199 
L 391.430047 35.540199 
L 391.430047 38.541279 
L 363.127927 38.541279 
L 363.127927 35.540199 
L 326.662185 35.540199 
L 326.662185 34.813101 
z
" clip-path="url(#pe78d2468b8)" style="fill: #008000"/>
   </g>
   <g id="patch_64">
    <path d="M 419.390379 30.833667 
L 419.390379 31.686526 
Q 408.839971 31.538053 398.784113 31.462953 
Q 388.755731 31.386989 379.826349 31.386989 
Q 367.984616 31.386989 362.297286 31.489712 
Q 356.637432 31.591572 356.637432 31.807377 
Q 356.637432 31.969661 360.45646 32.060299 
Q 364.275488 32.150074 374.331345 32.214815 
L 388.398556 32.303727 
Q 409.774122 32.439252 418.785928 32.714618 
Q 427.82521 32.989122 427.82521 33.496694 
Q 427.82521 34.162235 415.241651 34.487668 
Q 402.658091 34.813101 376.804097 34.813101 
Q 364.632663 34.813101 352.351329 34.739727 
Q 340.069995 34.667217 327.788661 34.523923 
L 327.788661 33.647757 
Q 340.069995 33.852339 351.527078 33.956789 
Q 362.984162 34.060375 373.64447 34.060375 
Q 384.469628 34.060375 390.211907 33.947293 
Q 395.954186 33.833349 395.954186 33.622723 
Q 395.954186 33.434542 392.052733 33.331819 
Q 388.151281 33.229096 376.474397 33.147954 
L 363.671037 33.059042 
Q 344.438523 32.92956 335.536616 32.646424 
Q 326.662185 32.363289 326.662185 31.88334 
Q 326.662185 31.281677 339.025944 30.95797 
Q 351.389703 30.634264 374.57862 30.634264 
Q 385.156503 30.634264 396.311362 30.68433 
Q 407.46622 30.734397 419.390379 30.833667 
z
" clip-path="url(#pe78d2468b8)" style="fill: #008000"/>
   </g>
   <g id="patch_65">
    <path d="M 358.887873 26.29155 
L 395.599522 26.29155 
L 395.599522 30.634264 
L 358.887873 30.634264 
L 358.887873 26.29155 
z
" clip-path="url(#pe78d2468b8)"/>
   </g>
   <g id="patch_66">
    <path d="M 327.715013 17.933876 
L 426.772382 17.933876 
L 426.772382 19.563855 
L 364.426663 19.563855 
L 364.426663 21.118605 
L 423.079856 21.118605 
L 423.079856 22.748584 
L 364.426663 22.748584 
L 364.426663 26.29155 
L 327.715013 26.29155 
L 327.715013 17.933876 
z
" clip-path="url(#pe78d2468b8)"/>
   </g>
   <g id="patch_67">
    <path d="M 427.82521 16.962705 
Q 417.622753 17.448291 406.649445 17.692192 
Q 395.676136 17.933876 383.977319 17.933876 
Q 357.54162 17.933876 342.101903 16.488206 
Q 326.662185 15.042537 326.662185 12.570264 
Q 326.662185 10.069167 342.373968 8.634583 
Q 358.108423 7.2 385.473679 7.2 
Q 396.016218 7.2 405.674543 7.395121 
Q 415.355541 7.588025 423.925604 7.969398 
L 423.925604 10.109078 
Q 415.083475 9.619058 406.332035 9.377374 
Q 397.580594 9.133472 388.783809 9.133472 
Q 372.505223 9.133472 363.685766 10.024821 
Q 354.866309 10.913952 354.866309 12.570264 
Q 354.866309 14.211055 363.368357 15.106838 
Q 371.870404 16.000404 387.51417 16.000404 
Q 391.77653 16.000404 395.426742 15.949406 
Q 399.076955 15.896191 401.978987 15.785327 
L 401.978987 13.776467 
L 385.314974 13.776467 
L 385.314974 11.987118 
L 427.82521 11.987118 
L 427.82521 16.962705 
z
" clip-path="url(#pe78d2468b8)" style="fill: #008000"/>
   </g>
   <g id="patch_68">
    <path d="M 433.14958 49.439031 
L 534.312605 49.439031 
L 534.312605 49.447021 
L 497.917442 49.447021 
L 497.917442 49.48 
L 469.615321 49.48 
L 469.615321 49.447021 
L 433.14958 49.447021 
L 433.14958 49.439031 
z
" clip-path="url(#pe78d2468b8)" style="fill: #008000"/>
   </g>
   <g id="patch_69">
    <path d="M 433.14958 49.357093 
L 465.644663 49.357093 
L 506.705092 49.413287 
L 506.705092 49.357093 
L 534.312605 49.357093 
L 534.312605 49.439031 
L 501.793326 49.439031 
L 460.732897 49.382837 
L 460.732897 49.439031 
L 433.14958 49.439031 
L 433.14958 49.357093 
z
" clip-path="url(#pe78d2468b8)" style="fill: #800080"/>
   </g>
   <g id="patch_70">
    <path d="M 433.14958 49.275155 
L 461.118181 49.275155 
L 483.70984 49.304358 
L 506.280246 49.275155 
L 534.312605 49.275155 
L 496.52524 49.322569 
L 496.52524 49.357093 
L 470.958198 49.357093 
L 470.958198 49.322569 
L 433.14958 49.275155 
z
" clip-path="url(#pe78d2468b8)" style="fill: #008000"/>
   </g>
   <g id="patch_71">
    <path d="M 474.196021 49.115538 
Q 483.274754 49.115538 487.213675 49.106933 
Q 491.152596 49.098267 491.152596 49.078476 
Q 491.152596 49.058869 487.213675 49.050449 
Q 483.274754 49.041967 474.196021 49.041967 
L 462.043008 49.041967 
L 462.043008 49.115538 
L 474.196021 49.115538 
z
M 462.043008 49.166613 
L 462.043008 49.275155 
L 433.14958 49.275155 
L 433.14958 48.988372 
L 477.270301 48.988372 
Q 499.414724 48.988372 509.718365 49.007425 
Q 520.046025 49.026417 520.046025 49.067535 
Q 520.046025 49.095931 514.666035 49.114185 
Q 509.310062 49.13244 498.502047 49.141106 
Q 504.434447 49.144548 509.11792 49.156779 
Q 513.825411 49.168948 518.628974 49.193718 
L 534.312605 49.275155 
L 503.545788 49.275155 
L 489.879652 49.20392 
Q 485.748589 49.182408 481.497436 49.174541 
Q 477.270301 49.166613 470.209064 49.166613 
L 462.043008 49.166613 
z
" clip-path="url(#pe78d2468b8)" style="fill: #0000ff"/>
   </g>
   <g id="patch_72">
    <path d="M 525.877774 48.67626 
L 525.877774 48.743151 
Q 515.327366 48.731506 505.271508 48.725615 
Q 495.243126 48.719657 486.313744 48.719657 
Q 474.472011 48.719657 468.784681 48.727714 
Q 463.124827 48.735703 463.124827 48.752629 
Q 463.124827 48.765357 466.943855 48.772466 
Q 470.762883 48.779507 480.81874 48.784585 
L 494.885951 48.791558 
Q 516.261517 48.802188 525.273323 48.823785 
Q 534.312605 48.845315 534.312605 48.885124 
Q 534.312605 48.937324 521.729046 48.962848 
Q 509.145486 48.988372 483.291492 48.988372 
Q 471.120058 48.988372 458.838724 48.982617 
Q 446.55739 48.97693 434.276056 48.965691 
L 434.276056 48.896973 
Q 446.55739 48.913018 458.014473 48.92121 
Q 469.471557 48.929335 480.131865 48.929335 
Q 490.957023 48.929335 496.699302 48.920466 
Q 502.441581 48.911529 502.441581 48.895009 
Q 502.441581 48.88025 498.540128 48.872193 
Q 494.638676 48.864136 482.961792 48.857772 
L 470.158432 48.850799 
Q 450.925918 48.840643 442.024011 48.818437 
Q 433.14958 48.79623 433.14958 48.758587 
Q 433.14958 48.711398 445.513339 48.686009 
Q 457.877098 48.66062 481.066015 48.66062 
Q 491.643898 48.66062 502.798757 48.664547 
Q 513.953615 48.668474 525.877774 48.67626 
z
" clip-path="url(#pe78d2468b8)" style="fill: #008000"/>
   </g>
   <g id="patch_73">
    <path d="M 433.14958 48.332868 
L 462.257238 48.332868 
L 462.257238 48.45776 
L 505.204947 48.45776 
L 505.204947 48.332868 
L 534.312605 48.332868 
L 534.312605 48.66062 
L 505.204947 48.66062 
L 505.204947 48.52168 
L 462.257238 48.52168 
L 462.257238 48.66062 
L 433.14958 48.66062 
L 433.14958 48.332868 
z
" clip-path="url(#pe78d2468b8)" style="fill: #0000ff"/>
   </g>
   <g id="patch_74">
    <path d="M 433.14958 47.964147 
L 459.808752 47.964147 
L 459.808752 48.098723 
L 498.235189 47.964147 
L 529.193512 47.964147 
L 479.3987 48.138788 
L 534.312605 48.332868 
L 500.938779 48.332868 
L 459.808752 48.187624 
L 459.808752 48.332868 
L 433.14958 48.332868 
L 433.14958 47.964147 
z
" clip-path="url(#pe78d2468b8)" style="fill: #0000ff"/>
   </g>
   <g id="patch_75">
    <path d="M 433.14958 47.226705 
L 462.991698 47.226705 
L 483.692109 47.621346 
L 504.528963 47.226705 
L 534.312605 47.226705 
L 534.312605 47.964147 
L 512.150301 47.964147 
L 512.150301 47.424737 
L 491.196495 47.82238 
L 476.324166 47.82238 
L 455.37036 47.424737 
L 455.37036 47.964147 
L 433.14958 47.964147 
L 433.14958 47.226705 
z
" clip-path="url(#pe78d2468b8)"/>
   </g>
   <g id="patch_76">
    <path d="M 433.14958 46.448295 
L 485.733277 46.448295 
Q 509.206261 46.448295 521.746261 46.514358 
Q 534.312605 46.580254 534.312605 46.702204 
Q 534.312605 46.824821 521.746261 46.890718 
Q 509.206261 46.956614 485.733277 46.956614 
L 464.842059 46.956614 
L 464.842059 47.226705 
L 433.14958 47.226705 
L 433.14958 46.448295 
z
M 464.842059 46.593767 
L 464.842059 46.811141 
L 482.361176 46.811141 
Q 491.581765 46.811141 496.613571 46.782781 
Q 501.645378 46.754421 501.645378 46.702204 
Q 501.645378 46.650154 496.613571 46.621961 
Q 491.581765 46.593767 482.361176 46.593767 
L 464.842059 46.593767 
z
" clip-path="url(#pe78d2468b8)"/>
   </g>
   <g id="patch_77">
    <path d="M 534.312605 46.377866 
Q 524.110148 46.41308 513.13684 46.430768 
Q 502.163531 46.448295 490.464714 46.448295 
Q 464.029015 46.448295 448.589297 46.343456 
Q 433.14958 46.238617 433.14958 46.05933 
Q 433.14958 45.877953 448.861363 45.773918 
Q 464.595818 45.669884 491.961074 45.669884 
Q 502.503613 45.669884 512.161938 45.684034 
Q 521.842936 45.698023 530.412999 45.72568 
L 530.412999 45.880847 
Q 521.57087 45.845312 512.81943 45.827785 
Q 504.067989 45.810097 495.271204 45.810097 
Q 478.992618 45.810097 470.173161 45.874737 
Q 461.353704 45.939216 461.353704 46.05933 
Q 461.353704 46.178319 469.855751 46.24328 
Q 478.357799 46.308081 494.001565 46.308081 
Q 498.263925 46.308081 501.914137 46.304383 
Q 505.56435 46.300524 508.466382 46.292484 
L 508.466382 46.146803 
L 491.802369 46.146803 
L 491.802369 46.017041 
L 534.312605 46.017041 
L 534.312605 46.377866 
z
" clip-path="url(#pe78d2468b8)" style="fill: #008000"/>
   </g>
   <g id="patch_78">
    <path d="M 460.871475 45.010306 
L 460.871475 45.510257 
L 470.803426 45.510257 
Q 487.786831 45.510257 496.750935 45.445985 
Q 505.738083 45.381713 505.738083 45.259316 
Q 505.738083 45.13762 496.797023 45.074051 
Q 487.879007 45.010306 470.803426 45.010306 
L 460.871475 45.010306 
z
M 433.14958 44.850504 
L 462.369333 44.850504 
Q 486.865072 44.850504 498.847936 44.877196 
Q 510.8308 44.903713 519.403157 44.967458 
Q 526.961579 45.022949 530.62557 45.095475 
Q 534.312605 45.167825 534.312605 45.259316 
Q 534.312605 45.352212 530.62557 45.424913 
Q 526.961579 45.497614 519.403157 45.55293 
Q 510.761668 45.616675 498.663585 45.643367 
Q 486.565501 45.669884 462.369333 45.669884 
L 433.14958 45.669884 
L 433.14958 44.850504 
z
" clip-path="url(#pe78d2468b8)" style="fill: #ff0000"/>
   </g>
   <g id="patch_79">
    <path d="M 433.14958 43.949186 
L 450.642227 43.949186 
L 462.870391 44.604216 
L 475.007526 43.949186 
L 492.591201 43.949186 
L 504.728337 44.604216 
L 516.971673 43.949186 
L 534.312605 43.949186 
L 517.624044 44.850504 
L 496.581285 44.850504 
L 483.731092 44.16534 
L 471.032614 44.850504 
L 449.974684 44.850504 
L 433.14958 43.949186 
z
" clip-path="url(#pe78d2468b8)"/>
   </g>
   <g id="patch_80">
    <path d="M 433.14958 41.982674 
L 458.176621 41.982674 
L 483.762118 43.434167 
L 509.306247 41.982674 
L 534.312605 41.982674 
L 498.571508 43.949186 
L 468.890677 43.949186 
L 433.14958 41.982674 
z
" clip-path="url(#pe78d2468b8)"/>
   </g>
   <g id="patch_81">
    <path d="M 433.14958 40.016163 
L 532.206949 40.016163 
L 532.206949 40.399687 
L 469.86123 40.399687 
L 469.86123 40.765511 
L 528.514423 40.765511 
L 528.514423 41.149035 
L 469.86123 41.149035 
L 469.86123 41.599571 
L 534.312605 41.599571 
L 534.312605 41.982674 
L 433.14958 41.982674 
L 433.14958 40.016163 
z
" clip-path="url(#pe78d2468b8)" style="fill: #ff0000"/>
   </g>
   <g id="patch_82">
    <path d="M 434.202408 36.820581 
L 533.259777 36.820581 
L 533.259777 37.443809 
L 470.914058 37.443809 
L 470.914058 38.038272 
L 529.56725 38.038272 
L 529.56725 38.661499 
L 470.914058 38.661499 
L 470.914058 40.016163 
L 434.202408 40.016163 
L 434.202408 36.820581 
z
" clip-path="url(#pe78d2468b8)"/>
   </g>
   <g id="patch_83">
    <path d="M 465.375268 30.757171 
L 502.086917 30.757171 
L 502.086917 36.820581 
L 465.375268 36.820581 
L 465.375268 30.757171 
z
" clip-path="url(#pe78d2468b8)"/>
   </g>
   <g id="patch_84">
    <path d="M 503.225296 29.428708 
L 464.319623 29.428708 
L 458.176621 30.757171 
L 433.14958 30.757171 
L 468.890677 23.46469 
L 498.571508 23.46469 
L 534.312605 30.757171 
L 509.306247 30.757171 
L 503.225296 29.428708 
z
M 470.524674 28.075238 
L 496.958194 28.075238 
L 483.762118 25.1745 
L 470.524674 28.075238 
z
" clip-path="url(#pe78d2468b8)"/>
   </g>
   <g id="patch_85">
    <path d="M 433.14958 7.2 
L 469.86123 7.2 
L 469.86123 20.296108 
L 534.312605 20.296108 
L 534.312605 23.46469 
L 433.14958 23.46469 
L 433.14958 7.2 
z
" clip-path="url(#pe78d2468b8)"/>
   </g>
   <g id="patch_86">
    <path d="M 609.712691 49.472537 
L 570.807018 49.472537 
L 564.664016 49.48 
L 539.636975 49.48 
L 575.378072 49.439031 
L 605.058903 49.439031 
L 640.8 49.48 
L 615.793642 49.48 
L 609.712691 49.472537 
z
M 577.012069 49.464933 
L 603.445589 49.464933 
L 590.249513 49.448637 
L 577.012069 49.464933 
z
" clip-path="url(#pe78d2468b8)"/>
   </g>
   <g id="patch_87">
    <path d="M 539.636975 49.357093 
L 640.8 49.357093 
L 640.8 49.373073 
L 604.404837 49.373073 
L 604.404837 49.439031 
L 576.102716 49.439031 
L 576.102716 49.373073 
L 539.636975 49.373073 
L 539.636975 49.357093 
z
" clip-path="url(#pe78d2468b8)" style="fill: #008000"/>
   </g>
   <g id="patch_88">
    <path d="M 539.636975 49.275155 
L 572.132058 49.275155 
L 613.192487 49.331349 
L 613.192487 49.275155 
L 640.8 49.275155 
L 640.8 49.357093 
L 608.280721 49.357093 
L 567.220292 49.300899 
L 567.220292 49.357093 
L 539.636975 49.357093 
L 539.636975 49.275155 
z
" clip-path="url(#pe78d2468b8)" style="fill: #800080"/>
   </g>
   <g id="patch_89">
    <path d="M 539.636975 48.988372 
L 566.296147 48.988372 
L 566.296147 49.093042 
L 604.722584 48.988372 
L 635.680907 48.988372 
L 585.886095 49.124204 
L 640.8 49.275155 
L 607.426174 49.275155 
L 566.296147 49.162187 
L 566.296147 49.275155 
L 539.636975 49.275155 
L 539.636975 48.988372 
z
" clip-path="url(#pe78d2468b8)" style="fill: #0000ff"/>
   </g>
   <g id="patch_90">
    <path d="M 571.862662 48.496744 
L 608.574312 48.496744 
L 608.574312 48.988372 
L 571.862662 48.988372 
L 571.862662 48.496744 
z
" clip-path="url(#pe78d2468b8)"/>
   </g>
   <g id="patch_91">
    <path d="M 592.916168 48.410972 
L 590.935059 48.410972 
Q 566.634857 48.410972 553.125378 48.346693 
Q 539.636975 48.282313 539.636975 48.16758 
Q 539.636975 48.053048 553.104303 47.988164 
Q 566.57163 47.923178 590.218487 47.923178 
Q 614.118252 47.923178 627.459126 47.987558 
Q 640.8 48.051837 640.8 48.16758 
Q 640.8 48.246995 633.718588 48.304412 
Q 626.637176 48.361829 613.338454 48.39079 
L 633.149546 48.496744 
L 608.975798 48.496744 
L 592.916168 48.410972 
z
M 590.218487 48.011171 
Q 578.626891 48.011171 572.240975 48.05214 
Q 565.855059 48.093109 565.855059 48.16758 
Q 565.855059 48.243261 572.093445 48.283524 
Q 578.352908 48.323686 590.218487 48.323686 
Q 601.873311 48.323686 608.259227 48.282717 
Q 614.645143 48.241647 614.645143 48.16758 
Q 614.645143 48.093109 608.259227 48.05214 
Q 601.873311 48.011171 590.218487 48.011171 
z
" clip-path="url(#pe78d2468b8)" style="fill: #800080"/>
   </g>
   <g id="patch_92">
    <path d="M 539.636975 47.267674 
L 564.664016 47.267674 
L 590.249513 47.751505 
L 615.793642 47.267674 
L 640.8 47.267674 
L 605.058903 47.923178 
L 575.378072 47.923178 
L 539.636975 47.267674 
z
" clip-path="url(#pe78d2468b8)"/>
   </g>
   <g id="patch_93">
    <path d="M 567.35887 46.674054 
L 567.35887 47.124011 
L 577.290821 47.124011 
Q 594.274226 47.124011 603.23833 47.066166 
Q 612.225478 47.008321 612.225478 46.898163 
Q 612.225478 46.788637 603.284418 46.731425 
Q 594.366402 46.674054 577.290821 46.674054 
L 567.35887 46.674054 
z
M 539.636975 46.530233 
L 568.856728 46.530233 
Q 593.352467 46.530233 605.335331 46.554256 
Q 617.318195 46.57812 625.890552 46.635491 
Q 633.448974 46.685434 637.112965 46.750706 
Q 640.8 46.815821 640.8 46.898163 
Q 640.8 46.98177 637.112965 47.0472 
Q 633.448974 47.112631 625.890552 47.162416 
Q 617.249063 47.219787 605.150979 47.243809 
Q 593.052896 47.267674 568.856728 47.267674 
L 539.636975 47.267674 
L 539.636975 46.530233 
z
" clip-path="url(#pe78d2468b8)" style="fill: #ff0000"/>
   </g>
   <g id="patch_94">
    <path d="M 539.636975 45.465039 
L 569.479093 45.465039 
L 590.179504 46.035075 
L 611.016358 45.465039 
L 640.8 45.465039 
L 640.8 46.530233 
L 618.637696 46.530233 
L 618.637696 45.751084 
L 597.68389 46.325458 
L 582.811561 46.325458 
L 561.857755 45.751084 
L 561.857755 46.530233 
L 539.636975 46.530233 
L 539.636975 45.465039 
z
" clip-path="url(#pe78d2468b8)"/>
   </g>
   <g id="patch_95">
    <path d="M 580.683416 44.735359 
Q 589.762149 44.735359 593.70107 44.696023 
Q 597.639991 44.656406 597.639991 44.565934 
Q 597.639991 44.476304 593.70107 44.437811 
Q 589.762149 44.399037 580.683416 44.399037 
L 568.530403 44.399037 
L 568.530403 44.735359 
L 580.683416 44.735359 
z
M 568.530403 44.968845 
L 568.530403 45.465039 
L 539.636975 45.465039 
L 539.636975 44.154031 
L 583.757696 44.154031 
Q 605.902119 44.154031 616.20576 44.241132 
Q 626.53342 44.327952 626.53342 44.515921 
Q 626.53342 44.645729 621.15343 44.729177 
Q 615.797457 44.812626 604.989442 44.852242 
Q 610.921842 44.867977 615.605315 44.92389 
Q 620.312806 44.979522 625.116369 45.092753 
L 640.8 45.465039 
L 610.033183 45.465039 
L 596.367047 45.139394 
Q 592.235984 45.041054 587.984831 45.00509 
Q 583.757696 44.968845 576.696459 44.968845 
L 568.530403 44.968845 
z
" clip-path="url(#pe78d2468b8)" style="fill: #0000ff"/>
   </g>
   <g id="patch_96">
    <path d="M 539.636975 41.450078 
L 557.129621 41.450078 
L 569.357786 43.415167 
L 581.494921 41.450078 
L 599.078596 41.450078 
L 611.215732 43.415167 
L 623.459068 41.450078 
L 640.8 41.450078 
L 624.111439 44.154031 
L 603.06868 44.154031 
L 590.218487 42.09854 
L 577.520009 44.154031 
L 556.462079 44.154031 
L 539.636975 41.450078 
z
" clip-path="url(#pe78d2468b8)"/>
   </g>
   <g id="patch_97">
    <path d="M 632.365169 38.680079 
L 632.365169 39.273736 
Q 621.814761 39.170387 611.758903 39.118112 
Q 601.730521 39.065235 592.801139 39.065235 
Q 580.959406 39.065235 575.272076 39.136739 
Q 569.612222 39.207641 569.612222 39.357858 
Q 569.612222 39.470821 573.43125 39.533912 
Q 577.250278 39.596402 587.306135 39.641467 
L 601.373346 39.703356 
Q 622.748912 39.797693 631.760718 39.989369 
Q 640.8 40.180445 640.8 40.533755 
Q 640.8 40.997024 628.216441 41.223551 
Q 615.632881 41.450078 589.778887 41.450078 
Q 577.607453 41.450078 565.326119 41.399004 
Q 553.044785 41.348531 540.763451 41.248787 
L 540.763451 40.638907 
Q 553.044785 40.781312 564.501868 40.854017 
Q 575.958952 40.926121 586.61926 40.926121 
Q 597.444418 40.926121 603.186697 40.847408 
Q 608.928976 40.768093 608.928976 40.621482 
Q 608.928976 40.490492 605.027523 40.418989 
Q 601.126071 40.347486 589.449187 40.291005 
L 576.645827 40.229115 
Q 557.413313 40.138985 548.511406 39.941901 
Q 539.636975 39.744816 539.636975 39.410734 
Q 539.636975 38.99193 552.000734 38.766604 
Q 564.364493 38.541279 587.55341 38.541279 
Q 598.131293 38.541279 609.286152 38.576129 
Q 620.44101 38.61098 632.365169 38.680079 
z
" clip-path="url(#pe78d2468b8)" style="fill: #008000"/>
   </g>
   <g id="patch_98">
    <path d="M 540.689803 34.075659 
L 639.747172 34.075659 
L 639.747172 34.946579 
L 577.401453 34.946579 
L 577.401453 35.777303 
L 636.054645 35.777303 
L 636.054645 36.648224 
L 577.401453 36.648224 
L 577.401453 38.541279 
L 540.689803 38.541279 
L 540.689803 34.075659 
z
" clip-path="url(#pe78d2468b8)"/>
   </g>
   <g id="patch_99">
    <path d="M 539.636975 28.626783 
L 576.348625 28.626783 
L 576.348625 33.014144 
L 640.8 33.014144 
L 640.8 34.075659 
L 539.636975 34.075659 
L 539.636975 28.626783 
z
" clip-path="url(#pe78d2468b8)"/>
   </g>
   <g id="patch_100">
    <path d="M 539.636975 22.440465 
L 592.220672 22.440465 
Q 615.693655 22.440465 628.233655 22.965493 
Q 640.8 23.489196 640.8 24.458377 
Q 640.8 25.432861 628.233655 25.956563 
Q 615.693655 26.480266 592.220672 26.480266 
L 571.329454 26.480266 
L 571.329454 28.626783 
L 539.636975 28.626783 
L 539.636975 22.440465 
z
M 571.329454 23.596588 
L 571.329454 25.324143 
L 588.848571 25.324143 
Q 598.06916 25.324143 603.100966 25.098752 
Q 608.132773 24.873361 608.132773 24.458377 
Q 608.132773 24.044718 603.100966 23.820653 
Q 598.06916 23.596588 588.848571 23.596588 
L 571.329454 23.596588 
z
" clip-path="url(#pe78d2468b8)"/>
   </g>
   <g id="patch_101">
    <path d="M 539.636975 15.188953 
L 638.694344 15.188953 
L 638.694344 16.6032 
L 576.348625 16.6032 
L 576.348625 17.952174 
L 635.001818 17.952174 
L 635.001818 19.366421 
L 576.348625 19.366421 
L 576.348625 21.027772 
L 640.8 21.027772 
L 640.8 22.440465 
L 539.636975 22.440465 
L 539.636975 15.188953 
z
" clip-path="url(#pe78d2468b8)" style="fill: #ff0000"/>
   </g>
   <g id="patch_102">
    <path d="M 640.8 14.466136 
Q 630.597543 14.827545 619.624235 15.009074 
Q 608.650926 15.188953 596.952109 15.188953 
Q 570.51641 15.188953 555.076692 14.112978 
Q 539.636975 13.037002 539.636975 11.196952 
Q 539.636975 9.335448 555.348758 8.267724 
Q 571.083213 7.2 598.448469 7.2 
Q 608.991008 7.2 618.649333 7.345224 
Q 628.330331 7.488797 636.900394 7.772643 
L 636.900394 9.365153 
Q 628.058265 9.000444 619.306825 8.820564 
Q 610.555384 8.639035 601.758599 8.639035 
Q 585.480013 8.639035 576.660556 9.302443 
Q 567.841099 9.964201 567.841099 11.196952 
Q 567.841099 12.418151 576.343146 13.08486 
Q 584.845194 13.749919 600.48896 13.749919 
Q 604.75132 13.749919 608.401532 13.711963 
Q 612.051745 13.672356 614.953777 13.589843 
L 614.953777 12.094699 
L 598.289764 12.094699 
L 598.289764 10.762931 
L 640.8 10.762931 
L 640.8 14.466136 
z
" clip-path="url(#pe78d2468b8)" style="fill: #008000"/>
   </g>
   <g id="matplotlib.axis_1">
    <g id="xtick_1">
     <g id="text_1">
      <!-- N1 -->
      <g transform="translate(43.937763 71.676875) scale(0.2 -0.2)">
       <defs>
        <path id="DejaVuSans-4e" d="M 628 4666 
L 1478 4666 
L 3547 763 
L 3547 4666 
L 4159 4666 
L 4159 0 
L 3309 0 
L 1241 3903 
L 1241 0 
L 628 0 
L 628 4666 
z
" transform="scale(0.015625)"/>
        <path id="DejaVuSans-31" d="M 794 531 
L 1825 531 
L 1825 4091 
L 703 3866 
L 703 4441 
L 1819 4666 
L 2450 4666 
L 2450 531 
L 3481 531 
L 3481 0 
L 794 0 
L 794 531 
z
" transform="scale(0.015625)"/>
       </defs>
       <use xlink:href="#DejaVuSans-4e"/>
       <use xlink:href="#DejaVuSans-31" transform="translate(74.804688 0)"/>
      </g>
     </g>
    </g>
    <g id="xtick_2">
     <g id="text_2">
      <!-- N2 -->
      <g transform="translate(150.425158 71.676875) scale(0.2 -0.2)">
       <defs>
        <path id="DejaVuSans-32" d="M 1228 531 
L 3431 531 
L 3431 0 
L 469 0 
L 469 531 
Q 828 903 1448 1529 
Q 2069 2156 2228 2338 
Q 2531 2678 2651 2914 
Q 2772 3150 2772 3378 
Q 2772 3750 2511 3984 
Q 2250 4219 1831 4219 
Q 1534 4219 1204 4116 
Q 875 4013 500 3803 
L 500 4441 
Q 881 4594 1212 4672 
Q 1544 4750 1819 4750 
Q 2544 4750 2975 4387 
Q 3406 4025 3406 3419 
Q 3406 3131 3298 2873 
Q 3191 2616 2906 2266 
Q 2828 2175 2409 1742 
Q 1991 1309 1228 531 
z
" transform="scale(0.015625)"/>
       </defs>
       <use xlink:href="#DejaVuSans-4e"/>
       <use xlink:href="#DejaVuSans-32" transform="translate(74.804688 0)"/>
      </g>
     </g>
    </g>
    <g id="xtick_3">
     <g id="text_3">
      <!-- N3 -->
      <g transform="translate(256.912553 71.676875) scale(0.2 -0.2)">
       <defs>
        <path id="DejaVuSans-33" d="M 2597 2516 
Q 3050 2419 3304 2112 
Q 3559 1806 3559 1356 
Q 3559 666 3084 287 
Q 2609 -91 1734 -91 
Q 1441 -91 1130 -33 
Q 819 25 488 141 
L 488 750 
Q 750 597 1062 519 
Q 1375 441 1716 441 
Q 2309 441 2620 675 
Q 2931 909 2931 1356 
Q 2931 1769 2642 2001 
Q 2353 2234 1838 2234 
L 1294 2234 
L 1294 2753 
L 1863 2753 
Q 2328 2753 2575 2939 
Q 2822 3125 2822 3475 
Q 2822 3834 2567 4026 
Q 2313 4219 1838 4219 
Q 1578 4219 1281 4162 
Q 984 4106 628 3988 
L 628 4550 
Q 988 4650 1302 4700 
Q 1616 4750 1894 4750 
Q 2613 4750 3031 4423 
Q 3450 4097 3450 3541 
Q 3450 3153 3228 2886 
Q 3006 2619 2597 2516 
z
" transform="scale(0.015625)"/>
       </defs>
       <use xlink:href="#DejaVuSans-4e"/>
       <use xlink:href="#DejaVuSans-33" transform="translate(74.804688 0)"/>
      </g>
     </g>
    </g>
    <g id="xtick_4">
     <g id="text_4">
      <!-- C3 -->
      <g transform="translate(363.898385 71.676875) scale(0.2 -0.2)">
       <defs>
        <path id="DejaVuSans-43" d="M 4122 4306 
L 4122 3641 
Q 3803 3938 3442 4084 
Q 3081 4231 2675 4231 
Q 1875 4231 1450 3742 
Q 1025 3253 1025 2328 
Q 1025 1406 1450 917 
Q 1875 428 2675 428 
Q 3081 428 3442 575 
Q 3803 722 4122 1019 
L 4122 359 
Q 3791 134 3420 21 
Q 3050 -91 2638 -91 
Q 1578 -91 968 557 
Q 359 1206 359 2328 
Q 359 3453 968 4101 
Q 1578 4750 2638 4750 
Q 3056 4750 3426 4639 
Q 3797 4528 4122 4306 
z
" transform="scale(0.015625)"/>
       </defs>
       <use xlink:href="#DejaVuSans-43"/>
       <use xlink:href="#DejaVuSans-33" transform="translate(69.824219 0)"/>
      </g>
     </g>
    </g>
    <g id="xtick_5">
     <g id="text_5">
      <!-- C2 -->
      <g transform="translate(470.38578 71.676875) scale(0.2 -0.2)">
       <use xlink:href="#DejaVuSans-43"/>
       <use xlink:href="#DejaVuSans-32" transform="translate(69.824219 0)"/>
      </g>
     </g>
    </g>
    <g id="xtick_6">
     <g id="text_6">
      <!-- C1 -->
      <g transform="translate(576.873175 71.676875) scale(0.2 -0.2)">
       <use xlink:href="#DejaVuSans-43"/>
       <use xlink:href="#DejaVuSans-31" transform="translate(69.824219 0)"/>
      </g>
     </g>
    </g>
    <g id="text_7">
     <!-- Amino acid position relative to cleavege site -->
     <g transform="translate(101.80625 95.033125) scale(0.2 -0.2)">
      <defs>
       <path id="DejaVuSans-41" d="M 2188 4044 
L 1331 1722 
L 3047 1722 
L 2188 4044 
z
M 1831 4666 
L 2547 4666 
L 4325 0 
L 3669 0 
L 3244 1197 
L 1141 1197 
L 716 0 
L 50 0 
L 1831 4666 
z
" transform="scale(0.015625)"/>
       <path id="DejaVuSans-6d" d="M 3328 2828 
Q 3544 3216 3844 3400 
Q 4144 3584 4550 3584 
Q 5097 3584 5394 3201 
Q 5691 2819 5691 2113 
L 5691 0 
L 5113 0 
L 5113 2094 
Q 5113 2597 4934 2840 
Q 4756 3084 4391 3084 
Q 3944 3084 3684 2787 
Q 3425 2491 3425 1978 
L 3425 0 
L 2847 0 
L 2847 2094 
Q 2847 2600 2669 2842 
Q 2491 3084 2119 3084 
Q 1678 3084 1418 2786 
Q 1159 2488 1159 1978 
L 1159 0 
L 581 0 
L 581 3500 
L 1159 3500 
L 1159 2956 
Q 1356 3278 1631 3431 
Q 1906 3584 2284 3584 
Q 2666 3584 2933 3390 
Q 3200 3197 3328 2828 
z
" transform="scale(0.015625)"/>
       <path id="DejaVuSans-69" d="M 603 3500 
L 1178 3500 
L 1178 0 
L 603 0 
L 603 3500 
z
M 603 4863 
L 1178 4863 
L 1178 4134 
L 603 4134 
L 603 4863 
z
" transform="scale(0.015625)"/>
       <path id="DejaVuSans-6e" d="M 3513 2113 
L 3513 0 
L 2938 0 
L 2938 2094 
Q 2938 2591 2744 2837 
Q 2550 3084 2163 3084 
Q 1697 3084 1428 2787 
Q 1159 2491 1159 1978 
L 1159 0 
L 581 0 
L 581 3500 
L 1159 3500 
L 1159 2956 
Q 1366 3272 1645 3428 
Q 1925 3584 2291 3584 
Q 2894 3584 3203 3211 
Q 3513 2838 3513 2113 
z
" transform="scale(0.015625)"/>
       <path id="DejaVuSans-6f" d="M 1959 3097 
Q 1497 3097 1228 2736 
Q 959 2375 959 1747 
Q 959 1119 1226 758 
Q 1494 397 1959 397 
Q 2419 397 2687 759 
Q 2956 1122 2956 1747 
Q 2956 2369 2687 2733 
Q 2419 3097 1959 3097 
z
M 1959 3584 
Q 2709 3584 3137 3096 
Q 3566 2609 3566 1747 
Q 3566 888 3137 398 
Q 2709 -91 1959 -91 
Q 1206 -91 779 398 
Q 353 888 353 1747 
Q 353 2609 779 3096 
Q 1206 3584 1959 3584 
z
" transform="scale(0.015625)"/>
       <path id="DejaVuSans-20" transform="scale(0.015625)"/>
       <path id="DejaVuSans-61" d="M 2194 1759 
Q 1497 1759 1228 1600 
Q 959 1441 959 1056 
Q 959 750 1161 570 
Q 1363 391 1709 391 
Q 2188 391 2477 730 
Q 2766 1069 2766 1631 
L 2766 1759 
L 2194 1759 
z
M 3341 1997 
L 3341 0 
L 2766 0 
L 2766 531 
Q 2569 213 2275 61 
Q 1981 -91 1556 -91 
Q 1019 -91 701 211 
Q 384 513 384 1019 
Q 384 1609 779 1909 
Q 1175 2209 1959 2209 
L 2766 2209 
L 2766 2266 
Q 2766 2663 2505 2880 
Q 2244 3097 1772 3097 
Q 1472 3097 1187 3025 
Q 903 2953 641 2809 
L 641 3341 
Q 956 3463 1253 3523 
Q 1550 3584 1831 3584 
Q 2591 3584 2966 3190 
Q 3341 2797 3341 1997 
z
" transform="scale(0.015625)"/>
       <path id="DejaVuSans-63" d="M 3122 3366 
L 3122 2828 
Q 2878 2963 2633 3030 
Q 2388 3097 2138 3097 
Q 1578 3097 1268 2742 
Q 959 2388 959 1747 
Q 959 1106 1268 751 
Q 1578 397 2138 397 
Q 2388 397 2633 464 
Q 2878 531 3122 666 
L 3122 134 
Q 2881 22 2623 -34 
Q 2366 -91 2075 -91 
Q 1284 -91 818 406 
Q 353 903 353 1747 
Q 353 2603 823 3093 
Q 1294 3584 2113 3584 
Q 2378 3584 2631 3529 
Q 2884 3475 3122 3366 
z
" transform="scale(0.015625)"/>
       <path id="DejaVuSans-64" d="M 2906 2969 
L 2906 4863 
L 3481 4863 
L 3481 0 
L 2906 0 
L 2906 525 
Q 2725 213 2448 61 
Q 2172 -91 1784 -91 
Q 1150 -91 751 415 
Q 353 922 353 1747 
Q 353 2572 751 3078 
Q 1150 3584 1784 3584 
Q 2172 3584 2448 3432 
Q 2725 3281 2906 2969 
z
M 947 1747 
Q 947 1113 1208 752 
Q 1469 391 1925 391 
Q 2381 391 2643 752 
Q 2906 1113 2906 1747 
Q 2906 2381 2643 2742 
Q 2381 3103 1925 3103 
Q 1469 3103 1208 2742 
Q 947 2381 947 1747 
z
" transform="scale(0.015625)"/>
       <path id="DejaVuSans-70" d="M 1159 525 
L 1159 -1331 
L 581 -1331 
L 581 3500 
L 1159 3500 
L 1159 2969 
Q 1341 3281 1617 3432 
Q 1894 3584 2278 3584 
Q 2916 3584 3314 3078 
Q 3713 2572 3713 1747 
Q 3713 922 3314 415 
Q 2916 -91 2278 -91 
Q 1894 -91 1617 61 
Q 1341 213 1159 525 
z
M 3116 1747 
Q 3116 2381 2855 2742 
Q 2594 3103 2138 3103 
Q 1681 3103 1420 2742 
Q 1159 2381 1159 1747 
Q 1159 1113 1420 752 
Q 1681 391 2138 391 
Q 2594 391 2855 752 
Q 3116 1113 3116 1747 
z
" transform="scale(0.015625)"/>
       <path id="DejaVuSans-73" d="M 2834 3397 
L 2834 2853 
Q 2591 2978 2328 3040 
Q 2066 3103 1784 3103 
Q 1356 3103 1142 2972 
Q 928 2841 928 2578 
Q 928 2378 1081 2264 
Q 1234 2150 1697 2047 
L 1894 2003 
Q 2506 1872 2764 1633 
Q 3022 1394 3022 966 
Q 3022 478 2636 193 
Q 2250 -91 1575 -91 
Q 1294 -91 989 -36 
Q 684 19 347 128 
L 347 722 
Q 666 556 975 473 
Q 1284 391 1588 391 
Q 1994 391 2212 530 
Q 2431 669 2431 922 
Q 2431 1156 2273 1281 
Q 2116 1406 1581 1522 
L 1381 1569 
Q 847 1681 609 1914 
Q 372 2147 372 2553 
Q 372 3047 722 3315 
Q 1072 3584 1716 3584 
Q 2034 3584 2315 3537 
Q 2597 3491 2834 3397 
z
" transform="scale(0.015625)"/>
       <path id="DejaVuSans-74" d="M 1172 4494 
L 1172 3500 
L 2356 3500 
L 2356 3053 
L 1172 3053 
L 1172 1153 
Q 1172 725 1289 603 
Q 1406 481 1766 481 
L 2356 481 
L 2356 0 
L 1766 0 
Q 1100 0 847 248 
Q 594 497 594 1153 
L 594 3053 
L 172 3053 
L 172 3500 
L 594 3500 
L 594 4494 
L 1172 4494 
z
" transform="scale(0.015625)"/>
       <path id="DejaVuSans-72" d="M 2631 2963 
Q 2534 3019 2420 3045 
Q 2306 3072 2169 3072 
Q 1681 3072 1420 2755 
Q 1159 2438 1159 1844 
L 1159 0 
L 581 0 
L 581 3500 
L 1159 3500 
L 1159 2956 
Q 1341 3275 1631 3429 
Q 1922 3584 2338 3584 
Q 2397 3584 2469 3576 
Q 2541 3569 2628 3553 
L 2631 2963 
z
" transform="scale(0.015625)"/>
       <path id="DejaVuSans-65" d="M 3597 1894 
L 3597 1613 
L 953 1613 
Q 991 1019 1311 708 
Q 1631 397 2203 397 
Q 2534 397 2845 478 
Q 3156 559 3463 722 
L 3463 178 
Q 3153 47 2828 -22 
Q 2503 -91 2169 -91 
Q 1331 -91 842 396 
Q 353 884 353 1716 
Q 353 2575 817 3079 
Q 1281 3584 2069 3584 
Q 2775 3584 3186 3129 
Q 3597 2675 3597 1894 
z
M 3022 2063 
Q 3016 2534 2758 2815 
Q 2500 3097 2075 3097 
Q 1594 3097 1305 2825 
Q 1016 2553 972 2059 
L 3022 2063 
z
" transform="scale(0.015625)"/>
       <path id="DejaVuSans-6c" d="M 603 4863 
L 1178 4863 
L 1178 0 
L 603 0 
L 603 4863 
z
" transform="scale(0.015625)"/>
       <path id="DejaVuSans-76" d="M 191 3500 
L 800 3500 
L 1894 563 
L 2988 3500 
L 3597 3500 
L 2284 0 
L 1503 0 
L 191 3500 
z
" transform="scale(0.015625)"/>
       <path id="DejaVuSans-67" d="M 2906 1791 
Q 2906 2416 2648 2759 
Q 2391 3103 1925 3103 
Q 1463 3103 1205 2759 
Q 947 2416 947 1791 
Q 947 1169 1205 825 
Q 1463 481 1925 481 
Q 2391 481 2648 825 
Q 2906 1169 2906 1791 
z
M 3481 434 
Q 3481 -459 3084 -895 
Q 2688 -1331 1869 -1331 
Q 1566 -1331 1297 -1286 
Q 1028 -1241 775 -1147 
L 775 -588 
Q 1028 -725 1275 -790 
Q 1522 -856 1778 -856 
Q 2344 -856 2625 -561 
Q 2906 -266 2906 331 
L 2906 616 
Q 2728 306 2450 153 
Q 2172 0 1784 0 
Q 1141 0 747 490 
Q 353 981 353 1791 
Q 353 2603 747 3093 
Q 1141 3584 1784 3584 
Q 2172 3584 2450 3431 
Q 2728 3278 2906 2969 
L 2906 3500 
L 3481 3500 
L 3481 434 
z
" transform="scale(0.015625)"/>
      </defs>
      <use xlink:href="#DejaVuSans-41"/>
      <use xlink:href="#DejaVuSans-6d" transform="translate(68.408203 0)"/>
      <use xlink:href="#DejaVuSans-69" transform="translate(165.820312 0)"/>
      <use xlink:href="#DejaVuSans-6e" transform="translate(193.603516 0)"/>
      <use xlink:href="#DejaVuSans-6f" transform="translate(256.982422 0)"/>
      <use xlink:href="#DejaVuSans-20" transform="translate(318.164062 0)"/>
      <use xlink:href="#DejaVuSans-61" transform="translate(349.951172 0)"/>
      <use xlink:href="#DejaVuSans-63" transform="translate(411.230469 0)"/>
      <use xlink:href="#DejaVuSans-69" transform="translate(466.210938 0)"/>
      <use xlink:href="#DejaVuSans-64" transform="translate(493.994141 0)"/>
      <use xlink:href="#DejaVuSans-20" transform="translate(557.470703 0)"/>
      <use xlink:href="#DejaVuSans-70" transform="translate(589.257812 0)"/>
      <use xlink:href="#DejaVuSans-6f" transform="translate(652.734375 0)"/>
      <use xlink:href="#DejaVuSans-73" transform="translate(713.916016 0)"/>
      <use xlink:href="#DejaVuSans-69" transform="translate(766.015625 0)"/>
      <use xlink:href="#DejaVuSans-74" transform="translate(793.798828 0)"/>
      <use xlink:href="#DejaVuSans-69" transform="translate(833.007812 0)"/>
      <use xlink:href="#DejaVuSans-6f" transform="translate(860.791016 0)"/>
      <use xlink:href="#DejaVuSans-6e" transform="translate(921.972656 0)"/>
      <use xlink:href="#DejaVuSans-20" transform="translate(985.351562 0)"/>
      <use xlink:href="#DejaVuSans-72" transform="translate(1017.138672 0)"/>
      <use xlink:href="#DejaVuSans-65" transform="translate(1056.001953 0)"/>
      <use xlink:href="#DejaVuSans-6c" transform="translate(1117.525391 0)"/>
      <use xlink:href="#DejaVuSans-61" transform="translate(1145.308594 0)"/>
      <use xlink:href="#DejaVuSans-74" transform="translate(1206.587891 0)"/>
      <use xlink:href="#DejaVuSans-69" transform="translate(1245.796875 0)"/>
      <use xlink:href="#DejaVuSans-76" transform="translate(1273.580078 0)"/>
      <use xlink:href="#DejaVuSans-65" transform="translate(1332.759766 0)"/>
      <use xlink:href="#DejaVuSans-20" transform="translate(1394.283203 0)"/>
      <use xlink:href="#DejaVuSans-74" transform="translate(1426.070312 0)"/>
      <use xlink:href="#DejaVuSans-6f" transform="translate(1465.279297 0)"/>
      <use xlink:href="#DejaVuSans-20" transform="translate(1526.460938 0)"/>
      <use xlink:href="#DejaVuSans-63" transform="translate(1558.248047 0)"/>
      <use xlink:href="#DejaVuSans-6c" transform="translate(1613.228516 0)"/>
      <use xlink:href="#DejaVuSans-65" transform="translate(1641.011719 0)"/>
      <use xlink:href="#DejaVuSans-61" transform="translate(1702.535156 0)"/>
      <use xlink:href="#DejaVuSans-76" transform="translate(1763.814453 0)"/>
      <use xlink:href="#DejaVuSans-65" transform="translate(1822.994141 0)"/>
      <use xlink:href="#DejaVuSans-67" transform="translate(1884.517578 0)"/>
      <use xlink:href="#DejaVuSans-65" transform="translate(1947.994141 0)"/>
      <use xlink:href="#DejaVuSans-20" transform="translate(2009.517578 0)"/>
      <use xlink:href="#DejaVuSans-73" transform="translate(2041.304688 0)"/>
      <use xlink:href="#DejaVuSans-69" transform="translate(2093.404297 0)"/>
      <use xlink:href="#DejaVuSans-74" transform="translate(2121.1875 0)"/>
      <use xlink:href="#DejaVuSans-65" transform="translate(2160.396484 0)"/>
     </g>
    </g>
   </g>
  </g>
 </g>
 <defs>
  <clipPath id="pe78d2468b8">
   <rect x="7.2" y="7.2" width="633.6" height="42.28"/>
  </clipPath>
 </defs>
</svg>
