<?xml version="1.0" encoding="utf-8" standalone="no"?>
<!DOCTYPE svg PUBLIC "-//W3C//DTD SVG 1.1//EN"
  "http://www.w3.org/Graphics/SVG/1.1/DTD/svg11.dtd">
<svg xmlns:xlink="http://www.w3.org/1999/xlink" width="572.4pt" height="202.7125pt" viewBox="0 0 572.4 202.7125" xmlns="http://www.w3.org/2000/svg" version="1.1">
 <metadata>
  <rdf:RDF xmlns:dc="http://purl.org/dc/elements/1.1/" xmlns:cc="http://creativecommons.org/ns#" xmlns:rdf="http://www.w3.org/1999/02/22-rdf-syntax-ns#">
   <cc:Work>
    <dc:type rdf:resource="http://purl.org/dc/dcmitype/StillImage"/>
    <dc:date>2026-04-28T15:08:33.349514</dc:date>
    <dc:format>image/svg+xml</dc:format>
    <dc:creator>
     <cc:Agent>
      <dc:title>Matplotlib v3.10.5, https://matplotlib.org/</dc:title>
     </cc:Agent>
    </dc:creator>
   </cc:Work>
  </rdf:RDF>
 </metadata>
 <defs>
  <style type="text/css">*{stroke-linejoin: round; stroke-linecap: butt}</style>
 </defs>
 <g id="figure_1">
  <g id="patch_1">
   <path d="M 0 202.7125 
L 572.4 202.7125 
L 572.4 0 
L 0 0 
z
" style="fill: #ffffff"/>
  </g>
  <g id="axes_1">
   <g id="line2d_1">
    <path d="M 7.2 145.8 
L 565.2 145.8 
" clip-path="url(#p8111312551)" style="fill: none; stroke: #000000; stroke-width: 0.5; stroke-linecap: round"/>
   </g>
   <g id="patch_2">
    <path d="M 54.122017 145.751117 
L 52.37729 145.751117 
Q 30.976544 145.751117 19.078992 145.714483 
Q 7.2 145.677791 7.2 145.612402 
Q 7.2 145.547129 19.060431 145.51015 
Q 30.920861 145.473113 51.746218 145.473113 
Q 72.794307 145.473113 84.543372 145.509805 
Q 96.292437 145.546438 96.292437 145.612402 
Q 96.292437 145.657663 90.055966 145.690386 
Q 83.819496 145.723109 72.107553 145.739615 
L 89.554821 145.8 
L 68.265441 145.8 
L 54.122017 145.751117 
z
M 51.746218 145.523262 
Q 41.53771 145.523262 35.91375 145.546611 
Q 30.28979 145.56996 30.28979 145.612402 
Q 30.28979 145.655535 35.783824 145.678481 
Q 41.296418 145.70137 51.746218 145.70137 
Q 62.01041 145.70137 67.63437 145.678021 
Q 73.25833 145.654615 73.25833 145.612402 
Q 73.25833 145.56996 67.63437 145.546611 
Q 62.01041 145.523262 51.746218 145.523262 
z
" clip-path="url(#p8111312551)" style="fill: #800080"/>
   </g>
   <g id="patch_3">
    <path d="M 7.2 145.146226 
L 53.509506 145.146226 
Q 74.181736 145.146226 85.225486 145.173969 
Q 96.292437 145.201642 96.292437 145.252853 
Q 96.292437 145.304345 85.225486 145.332018 
Q 74.181736 145.359691 53.509506 145.359691 
L 35.11099 145.359691 
L 35.11099 145.473113 
L 7.2 145.473113 
L 7.2 145.146226 
z
M 35.11099 145.207316 
L 35.11099 145.298601 
L 50.539758 145.298601 
Q 58.660163 145.298601 63.091584 145.286691 
Q 67.523004 145.274781 67.523004 145.252853 
Q 67.523004 145.230996 63.091584 145.219156 
Q 58.660163 145.207316 50.539758 145.207316 
L 35.11099 145.207316 
z
" clip-path="url(#p8111312551)"/>
   </g>
   <g id="patch_4">
    <path d="M 68.914409 145.086678 
L 34.65089 145.086678 
L 29.240861 145.146226 
L 7.2 145.146226 
L 38.676535 144.81934 
L 64.815902 144.81934 
L 96.292437 145.146226 
L 74.269792 145.146226 
L 68.914409 145.086678 
z
M 40.115566 145.026008 
L 63.395086 145.026008 
L 51.773542 144.895982 
L 40.115566 145.026008 
z
" clip-path="url(#p8111312551)"/>
   </g>
   <g id="patch_5">
    <path d="M 7.2 144.492453 
L 33.481411 144.492453 
L 51.711886 144.667386 
L 70.062525 144.492453 
L 96.292437 144.492453 
L 96.292437 144.81934 
L 76.774498 144.81934 
L 76.774498 144.580234 
L 58.320863 144.756498 
L 45.223073 144.756498 
L 26.769437 144.580234 
L 26.769437 144.81934 
L 7.2 144.81934 
L 7.2 144.492453 
z
" clip-path="url(#p8111312551)"/>
   </g>
   <g id="patch_6">
    <path d="M 88.864034 143.869876 
L 88.864034 144.003304 
Q 79.572482 143.980076 70.716471 143.968327 
Q 61.884657 143.956442 54.020713 143.956442 
Q 43.591913 143.956442 38.583186 143.972513 
Q 33.598655 143.988449 33.598655 144.022211 
Q 33.598655 144.0476 36.962004 144.061781 
Q 40.325352 144.075826 49.181363 144.085954 
L 61.570099 144.099865 
Q 80.395172 144.121067 88.331706 144.164148 
Q 96.292437 144.207094 96.292437 144.286503 
Q 96.292437 144.390626 85.210325 144.441539 
Q 74.128213 144.492453 51.35907 144.492453 
Q 40.63991 144.492453 29.823962 144.480974 
Q 19.008014 144.46963 8.192067 144.447211 
L 8.192067 144.310136 
Q 19.008014 144.342143 29.09806 144.358484 
Q 39.188105 144.37469 48.576444 144.37469 
Q 58.109964 144.37469 63.167085 144.356998 
Q 68.224206 144.339172 68.224206 144.30622 
Q 68.224206 144.276779 64.788267 144.260708 
Q 61.352329 144.244637 51.068709 144.231943 
L 39.793024 144.218033 
Q 22.855298 144.197775 15.015551 144.153479 
Q 7.2 144.109183 7.2 144.034096 
Q 7.2 143.939966 18.088538 143.889323 
Q 28.977076 143.838679 49.399134 143.838679 
Q 58.714883 143.838679 68.538764 143.846512 
Q 78.362645 143.854345 88.864034 143.869876 
z
" clip-path="url(#p8111312551)" style="fill: #008000"/>
   </g>
   <g id="patch_7">
    <path d="M 31.614169 143.31241 
L 31.614169 143.711315 
L 40.361057 143.711315 
Q 55.318034 143.711315 63.212557 143.660033 
Q 71.127375 143.608752 71.127375 143.511092 
Q 71.127375 143.413993 63.253146 143.363271 
Q 55.399211 143.31241 40.361057 143.31241 
L 31.614169 143.31241 
z
M 7.2 143.184906 
L 32.933305 143.184906 
Q 54.506258 143.184906 65.059348 143.206203 
Q 75.612439 143.22736 83.161957 143.278222 
Q 89.818522 143.322498 93.045332 143.380365 
Q 96.292437 143.438092 96.292437 143.511092 
Q 96.292437 143.585212 93.045332 143.64322 
Q 89.818522 143.701227 83.161957 143.745363 
Q 75.551555 143.796225 64.896993 143.817522 
Q 54.24243 143.838679 32.933305 143.838679 
L 7.2 143.838679 
L 7.2 143.184906 
z
" clip-path="url(#p8111312551)" style="fill: #ff0000"/>
   </g>
   <g id="patch_8">
    <path d="M 35.580577 142.531132 
L 67.91186 142.531132 
L 67.91186 143.184906 
L 35.580577 143.184906 
L 35.580577 142.531132 
z
" clip-path="url(#p8111312551)"/>
   </g>
   <g id="patch_9">
    <path d="M 7.2 141.877358 
L 31.831438 141.877358 
L 51.727502 142.110369 
L 71.604848 141.877358 
L 96.292437 141.877358 
L 63.013791 142.255667 
L 63.013791 142.531132 
L 40.497362 142.531132 
L 40.497362 142.255667 
L 7.2 141.877358 
z
" clip-path="url(#p8111312551)" style="fill: #008000"/>
   </g>
   <g id="patch_10">
    <path d="M 7.2 140.896698 
L 32.834585 140.896698 
L 32.834585 141.270383 
L 70.657852 141.270383 
L 70.657852 140.896698 
L 96.292437 140.896698 
L 96.292437 141.877358 
L 70.657852 141.877358 
L 70.657852 141.461639 
L 32.834585 141.461639 
L 32.834585 141.877358 
L 7.2 141.877358 
L 7.2 140.896698 
z
" clip-path="url(#p8111312551)" style="fill: #0000ff"/>
   </g>
   <g id="patch_11">
    <path d="M 7.2 138.935377 
L 35.817829 138.935377 
L 71.979002 140.280475 
L 71.979002 138.935377 
L 96.292437 138.935377 
L 96.292437 140.896698 
L 67.653299 140.896698 
L 31.492126 139.5516 
L 31.492126 140.896698 
L 7.2 140.896698 
L 7.2 138.935377 
z
" clip-path="url(#p8111312551)" style="fill: #800080"/>
   </g>
   <g id="patch_12">
    <path d="M 7.2 135.666509 
L 39.531283 135.666509 
L 39.531283 138.298558 
L 96.292437 138.298558 
L 96.292437 138.935377 
L 7.2 138.935377 
L 7.2 135.666509 
z
" clip-path="url(#p8111312551)"/>
   </g>
   <g id="patch_13">
    <path d="M 7.2 118.341509 
L 30.678248 118.341509 
L 30.678248 124.6648 
L 64.519712 118.341509 
L 91.784145 118.341509 
L 47.930759 126.547307 
L 96.292437 135.666509 
L 66.900715 135.666509 
L 30.678248 128.841959 
L 30.678248 135.666509 
L 7.2 135.666509 
L 7.2 118.341509 
z
" clip-path="url(#p8111312551)" style="fill: #0000ff"/>
   </g>
   <g id="patch_14">
    <path d="M 43.348854 107.061323 
Q 51.34433 107.061323 54.813266 106.453227 
Q 58.282202 105.840787 58.282202 104.442165 
Q 58.282202 103.056574 54.813266 102.461509 
Q 51.34433 101.8621 43.348854 101.8621 
L 32.645917 101.8621 
L 32.645917 107.061323 
L 43.348854 107.061323 
z
M 32.645917 110.670809 
L 32.645917 118.341509 
L 7.2 118.341509 
L 7.2 98.074528 
L 46.056317 98.074528 
Q 65.558508 98.074528 74.632737 99.421027 
Q 83.728119 100.763183 83.728119 103.669014 
Q 83.728119 105.675732 78.99006 106.965765 
Q 74.273152 108.255798 64.75473 108.868238 
Q 69.979286 109.111476 74.103936 109.975842 
Q 78.249738 110.835864 82.480148 112.586312 
L 96.292437 118.341509 
L 69.19666 118.341509 
L 57.161143 113.307341 
Q 53.522991 111.7871 49.779078 111.231126 
Q 46.056317 110.670809 39.837614 110.670809 
L 32.645917 110.670809 
z
" clip-path="url(#p8111312551)" style="fill: #0000ff"/>
   </g>
   <g id="patch_15">
    <path d="M 7.2 73.558019 
L 29.240861 73.558019 
L 51.773542 91.653788 
L 74.269792 73.558019 
L 96.292437 73.558019 
L 64.815902 98.074528 
L 38.676535 98.074528 
L 7.2 73.558019 
z
" clip-path="url(#p8111312551)"/>
   </g>
   <g id="patch_16">
    <path d="M 7.2 7.2 
L 94.438024 7.2 
L 94.438024 20.141662 
L 39.531283 20.141662 
L 39.531283 32.486017 
L 91.186083 32.486017 
L 91.186083 45.42768 
L 39.531283 45.42768 
L 39.531283 60.630578 
L 96.292437 60.630578 
L 96.292437 73.558019 
L 7.2 73.558019 
L 7.2 7.2 
z
" clip-path="url(#p8111312551)" style="fill: #ff0000"/>
   </g>
   <g id="patch_17">
    <path d="M 101.908719 145.473113 
L 189.146743 145.473113 
L 189.146743 145.536865 
L 134.240002 145.536865 
L 134.240002 145.597675 
L 185.894802 145.597675 
L 185.894802 145.661427 
L 134.240002 145.661427 
L 134.240002 145.8 
L 101.908719 145.8 
L 101.908719 145.473113 
z
" clip-path="url(#p8111312551)"/>
   </g>
   <g id="patch_18">
    <path d="M 162.695922 145.413565 
L 128.432403 145.413565 
L 123.022373 145.473113 
L 100.981513 145.473113 
L 132.458047 145.146226 
L 158.597415 145.146226 
L 190.07395 145.473113 
L 168.051305 145.473113 
L 162.695922 145.413565 
z
M 133.897079 145.352895 
L 157.176599 145.352895 
L 145.555054 145.222869 
L 133.897079 145.352895 
z
" clip-path="url(#p8111312551)"/>
   </g>
   <g id="patch_19">
    <path d="M 100.981513 144.492453 
L 129.599342 144.492453 
L 165.760515 144.940819 
L 165.760515 144.492453 
L 190.07395 144.492453 
L 190.07395 145.146226 
L 161.434812 145.146226 
L 125.273638 144.69786 
L 125.273638 145.146226 
L 100.981513 145.146226 
L 100.981513 144.492453 
z
" clip-path="url(#p8111312551)" style="fill: #800080"/>
   </g>
   <g id="patch_20">
    <path d="M 190.07395 144.403725 
Q 181.088832 144.448089 171.424838 144.470372 
Q 161.760844 144.492453 151.457909 144.492453 
Q 128.17647 144.492453 114.578991 144.360375 
Q 100.981513 144.228296 100.981513 144.002427 
Q 100.981513 143.773923 114.818594 143.642858 
Q 128.675643 143.511792 152.775726 143.511792 
Q 162.060348 143.511792 170.56626 143.529619 
Q 179.092139 143.547243 186.639638 143.582086 
L 186.639638 143.777569 
Q 178.852536 143.732801 171.145301 143.71072 
Q 163.438066 143.688437 155.690898 143.688437 
Q 141.354643 143.688437 133.587508 143.769872 
Q 125.820372 143.851104 125.820372 144.002427 
Q 125.820372 144.152331 133.307971 144.234171 
Q 140.795569 144.315808 154.57275 144.315808 
Q 158.326533 144.315808 161.541208 144.311149 
Q 164.755884 144.306287 167.311651 144.296159 
L 167.311651 144.112627 
L 152.635958 144.112627 
L 152.635958 143.94915 
L 190.07395 143.94915 
L 190.07395 144.403725 
z
" clip-path="url(#p8111312551)" style="fill: #008000"/>
   </g>
   <g id="patch_21">
    <path d="M 100.981513 142.531132 
L 147.291019 142.531132 
Q 167.963248 142.531132 179.006998 142.61436 
Q 190.07395 142.697378 190.07395 142.851013 
Q 190.07395 143.005489 179.006998 143.088507 
Q 167.963248 143.171525 147.291019 143.171525 
L 128.892503 143.171525 
L 128.892503 143.511792 
L 100.981513 143.511792 
L 100.981513 142.531132 
z
M 128.892503 142.714402 
L 128.892503 142.988255 
L 144.321271 142.988255 
Q 152.441675 142.988255 156.873096 142.952526 
Q 161.304517 142.916797 161.304517 142.851013 
Q 161.304517 142.78544 156.873096 142.749921 
Q 152.441675 142.714402 144.321271 142.714402 
L 128.892503 142.714402 
z
" clip-path="url(#p8111312551)"/>
   </g>
   <g id="patch_22">
    <path d="M 100.981513 141.550472 
L 190.07395 141.550472 
L 190.07395 141.741728 
L 158.021391 141.741728 
L 158.021391 142.531132 
L 133.096228 142.531132 
L 133.096228 141.741728 
L 100.981513 141.741728 
L 100.981513 141.550472 
z
" clip-path="url(#p8111312551)" style="fill: #008000"/>
   </g>
   <g id="patch_23">
    <path d="M 125.395682 140.497933 
L 125.395682 141.295744 
L 134.14257 141.295744 
Q 149.099546 141.295744 156.99407 141.19318 
Q 164.908888 141.090616 164.908888 140.895297 
Q 164.908888 140.701098 157.034659 140.599656 
Q 149.180724 140.497933 134.14257 140.497933 
L 125.395682 140.497933 
z
M 100.981513 140.242925 
L 126.714818 140.242925 
Q 148.28777 140.242925 158.840861 140.285519 
Q 169.393951 140.327834 176.94347 140.429557 
Q 183.600034 140.518109 186.826845 140.633844 
Q 190.07395 140.749298 190.07395 140.895297 
Q 190.07395 141.043538 186.826845 141.159553 
Q 183.600034 141.275567 176.94347 141.363839 
Q 169.333068 141.465562 158.678505 141.508157 
Q 148.023943 141.550472 126.714818 141.550472 
L 100.981513 141.550472 
L 100.981513 140.242925 
z
" clip-path="url(#p8111312551)" style="fill: #ff0000"/>
   </g>
   <g id="patch_24">
    <path d="M 137.130367 139.151294 
Q 145.125842 139.151294 148.594778 139.092446 
Q 152.063715 139.033177 152.063715 138.897827 
Q 152.063715 138.763737 148.594778 138.70615 
Q 145.125842 138.648143 137.130367 138.648143 
L 126.427429 138.648143 
L 126.427429 139.151294 
L 137.130367 139.151294 
z
M 126.427429 139.500599 
L 126.427429 140.242925 
L 100.981513 140.242925 
L 100.981513 138.281604 
L 139.837829 138.281604 
Q 159.34002 138.281604 168.41425 138.41191 
Q 177.509632 138.541796 177.509632 138.823006 
Q 177.509632 139.017204 172.771572 139.142046 
Q 168.054665 139.266888 158.536242 139.326156 
Q 163.760799 139.349696 167.885449 139.433344 
Q 172.03125 139.516572 176.261661 139.68597 
L 190.07395 140.242925 
L 162.978173 140.242925 
L 150.942656 139.755747 
Q 147.304503 139.608627 143.56059 139.554823 
Q 139.837829 139.500599 133.619127 139.500599 
L 126.427429 139.500599 
z
" clip-path="url(#p8111312551)" style="fill: #0000ff"/>
   </g>
   <g id="patch_25">
    <path d="M 147.903529 137.988303 
L 146.158803 137.988303 
Q 124.758057 137.988303 112.860504 137.7685 
Q 100.981513 137.548351 100.981513 137.156018 
Q 100.981513 136.764375 112.841943 136.542502 
Q 124.702374 136.320283 145.527731 136.320283 
Q 166.575819 136.320283 178.324884 136.540431 
Q 190.07395 136.760234 190.07395 137.156018 
Q 190.07395 137.42758 183.837479 137.62392 
Q 177.601008 137.820259 165.889065 137.919291 
L 183.336334 138.281604 
L 162.046954 138.281604 
L 147.903529 137.988303 
z
M 145.527731 136.621175 
Q 135.319223 136.621175 129.695263 136.76127 
Q 124.071303 136.901364 124.071303 137.156018 
Q 124.071303 137.414813 129.565336 137.552492 
Q 135.077931 137.689826 145.527731 137.689826 
Q 155.791922 137.689826 161.415882 137.549732 
Q 167.039842 137.409292 167.039842 137.156018 
Q 167.039842 136.901364 161.415882 136.76127 
Q 155.791922 136.621175 145.527731 136.621175 
z
" clip-path="url(#p8111312551)" style="fill: #800080"/>
   </g>
   <g id="patch_26">
    <path d="M 100.981513 134.358962 
L 133.312795 134.358962 
L 133.312795 135.938191 
L 190.07395 135.938191 
L 190.07395 136.320283 
L 100.981513 136.320283 
L 100.981513 134.358962 
z
" clip-path="url(#p8111312551)"/>
   </g>
   <g id="patch_27">
    <path d="M 100.981513 132.070755 
L 124.459761 132.070755 
L 124.459761 132.905906 
L 158.301225 132.070755 
L 185.565658 132.070755 
L 141.712272 133.154539 
L 190.07395 134.358962 
L 160.682228 134.358962 
L 124.459761 133.457607 
L 124.459761 134.358962 
L 100.981513 134.358962 
L 100.981513 132.070755 
z
" clip-path="url(#p8111312551)" style="fill: #0000ff"/>
   </g>
   <g id="patch_28">
    <path d="M 182.645547 129.269157 
L 182.645547 129.869586 
Q 173.353995 129.765058 164.497984 129.712186 
Q 155.66617 129.658707 147.802226 129.658707 
Q 137.373426 129.658707 132.364699 129.731026 
Q 127.380168 129.802737 127.380168 129.954667 
Q 127.380168 130.068919 130.743516 130.13273 
Q 134.106865 130.195933 142.962875 130.241512 
L 155.351612 130.304108 
Q 174.176684 130.39952 182.113219 130.593383 
Q 190.07395 130.786639 190.07395 131.143979 
Q 190.07395 131.612532 178.991838 131.841644 
Q 167.909726 132.070755 145.140583 132.070755 
Q 134.421422 132.070755 123.605475 132.019098 
Q 112.789527 131.96805 101.973579 131.867168 
L 101.973579 131.25033 
Q 112.789527 131.39436 122.879572 131.467895 
Q 132.969617 131.540821 142.357957 131.540821 
Q 151.891477 131.540821 156.948598 131.46121 
Q 162.005718 131.38099 162.005718 131.232706 
Q 162.005718 131.100223 158.56978 131.027904 
Q 155.133841 130.955585 144.850222 130.898459 
L 133.574536 130.835864 
Q 116.63681 130.744706 108.797063 130.545373 
Q 100.981513 130.34604 100.981513 130.008147 
Q 100.981513 129.584565 111.870051 129.356669 
Q 122.758588 129.128774 143.180646 129.128774 
Q 152.496395 129.128774 162.320276 129.164021 
Q 172.144157 129.199269 182.645547 129.269157 
z
" clip-path="url(#p8111312551)" style="fill: #008000"/>
   </g>
   <g id="patch_29">
    <path d="M 129.36209 125.533019 
L 161.693372 125.533019 
L 161.693372 129.128774 
L 129.36209 129.128774 
L 129.36209 125.533019 
z
" clip-path="url(#p8111312551)"/>
   </g>
   <g id="patch_30">
    <path d="M 100.981513 112.13066 
L 127.262923 112.13066 
L 145.493399 119.302904 
L 163.844037 112.13066 
L 190.07395 112.13066 
L 190.07395 125.533019 
L 170.556011 125.533019 
L 170.556011 115.729708 
L 152.102375 122.956526 
L 139.004585 122.956526 
L 120.55095 115.729708 
L 120.55095 125.533019 
L 100.981513 125.533019 
L 100.981513 112.13066 
z
" clip-path="url(#p8111312551)"/>
   </g>
   <g id="patch_31">
    <path d="M 100.981513 98.728302 
L 123.022373 98.728302 
L 145.555054 108.620656 
L 168.051305 98.728302 
L 190.07395 98.728302 
L 158.597415 112.13066 
L 132.458047 112.13066 
L 100.981513 98.728302 
z
" clip-path="url(#p8111312551)"/>
   </g>
   <g id="patch_32">
    <path d="M 100.981513 7.2 
L 188.219537 7.2 
L 188.219537 25.050569 
L 133.312795 25.050569 
L 133.312795 42.077265 
L 184.967596 42.077265 
L 184.967596 59.927834 
L 133.312795 59.927834 
L 133.312795 80.897349 
L 190.07395 80.897349 
L 190.07395 98.728302 
L 100.981513 98.728302 
L 100.981513 7.2 
z
" clip-path="url(#p8111312551)" style="fill: #ff0000"/>
   </g>
   <g id="patch_33">
    <path d="M 195.690232 145.473113 
L 282.928256 145.473113 
L 282.928256 145.536865 
L 228.021514 145.536865 
L 228.021514 145.597675 
L 279.676315 145.597675 
L 279.676315 145.661427 
L 228.021514 145.661427 
L 228.021514 145.8 
L 195.690232 145.8 
L 195.690232 145.473113 
z
" clip-path="url(#p8111312551)"/>
   </g>
   <g id="patch_34">
    <path d="M 194.763025 145.146226 
L 221.044436 145.146226 
L 239.274911 145.321159 
L 257.62555 145.146226 
L 283.855462 145.146226 
L 283.855462 145.473113 
L 264.337524 145.473113 
L 264.337524 145.234008 
L 245.883888 145.410272 
L 232.786098 145.410272 
L 214.332462 145.234008 
L 214.332462 145.473113 
L 194.763025 145.473113 
L 194.763025 145.146226 
z
" clip-path="url(#p8111312551)"/>
   </g>
   <g id="patch_35">
    <path d="M 194.763025 144.81934 
L 283.855462 144.81934 
L 283.855462 144.883092 
L 251.802904 144.883092 
L 251.802904 145.146226 
L 226.877741 145.146226 
L 226.877741 144.883092 
L 194.763025 144.883092 
L 194.763025 144.81934 
z
" clip-path="url(#p8111312551)" style="fill: #008000"/>
   </g>
   <g id="patch_36">
    <path d="M 241.685042 144.721573 
L 239.940315 144.721573 
Q 218.539569 144.721573 206.642017 144.648305 
Q 194.763025 144.574922 194.763025 144.444144 
Q 194.763025 144.313597 206.623456 144.239639 
Q 218.483887 144.165566 239.309244 144.165566 
Q 260.357332 144.165566 272.106397 144.238949 
Q 283.855462 144.312217 283.855462 144.444144 
Q 283.855462 144.534665 277.618992 144.600112 
Q 271.382521 144.665558 259.670578 144.698569 
L 277.117847 144.81934 
L 255.828466 144.81934 
L 241.685042 144.721573 
z
M 239.309244 144.265863 
Q 229.100735 144.265863 223.476775 144.312562 
Q 217.852815 144.35926 217.852815 144.444144 
Q 217.852815 144.530409 223.346849 144.576302 
Q 228.859443 144.62208 239.309244 144.62208 
Q 249.573435 144.62208 255.197395 144.575382 
Q 260.821355 144.528569 260.821355 144.444144 
Q 260.821355 144.35926 255.197395 144.312562 
Q 249.573435 144.265863 239.309244 144.265863 
z
" clip-path="url(#p8111312551)" style="fill: #800080"/>
   </g>
   <g id="patch_37">
    <path d="M 256.477435 144.046469 
L 222.213915 144.046469 
L 216.803886 144.165566 
L 194.763025 144.165566 
L 226.23956 143.511792 
L 252.378928 143.511792 
L 283.855462 144.165566 
L 261.832817 144.165566 
L 256.477435 144.046469 
z
M 227.678591 143.92513 
L 250.958112 143.92513 
L 239.336567 143.665078 
L 227.678591 143.92513 
z
" clip-path="url(#p8111312551)"/>
   </g>
   <g id="patch_38">
    <path d="M 194.763025 142.204245 
L 223.380854 142.204245 
L 259.542027 143.100977 
L 259.542027 142.204245 
L 283.855462 142.204245 
L 283.855462 143.511792 
L 255.216324 143.511792 
L 219.055151 142.615061 
L 219.055151 143.511792 
L 194.763025 143.511792 
L 194.763025 142.204245 
z
" clip-path="url(#p8111312551)" style="fill: #800080"/>
   </g>
   <g id="patch_39">
    <path d="M 194.763025 140.242925 
L 216.803886 140.242925 
L 239.336567 141.690586 
L 261.832817 140.242925 
L 283.855462 140.242925 
L 252.378928 142.204245 
L 226.23956 142.204245 
L 194.763025 140.242925 
z
" clip-path="url(#p8111312551)"/>
   </g>
   <g id="patch_40">
    <path d="M 230.91188 136.786093 
Q 238.907355 136.786093 242.376291 136.599741 
Q 245.845227 136.412058 245.845227 135.983448 
Q 245.845227 135.558832 242.376291 135.376473 
Q 238.907355 135.192783 230.91188 135.192783 
L 220.208942 135.192783 
L 220.208942 136.786093 
L 230.91188 136.786093 
z
M 220.208942 137.892226 
L 220.208942 140.242925 
L 194.763025 140.242925 
L 194.763025 134.032075 
L 233.619342 134.032075 
Q 253.121533 134.032075 262.195762 134.444712 
Q 271.291144 134.856018 271.291144 135.746515 
Q 271.291144 136.361477 266.553085 136.756809 
Q 261.836178 137.152142 252.317755 137.339825 
Q 257.542311 137.414366 261.666961 137.679252 
Q 265.812763 137.942807 270.043173 138.479235 
L 283.855462 140.242925 
L 256.759685 140.242925 
L 244.724169 138.700195 
Q 241.086016 138.234315 237.342103 138.063936 
Q 233.619342 137.892226 227.400639 137.892226 
L 220.208942 137.892226 
z
" clip-path="url(#p8111312551)" style="fill: #0000ff"/>
   </g>
   <g id="patch_41">
    <path d="M 223.143602 119.975943 
L 255.474885 119.975943 
L 255.474885 134.032075 
L 223.143602 134.032075 
L 223.143602 119.975943 
z
" clip-path="url(#p8111312551)"/>
   </g>
   <g id="patch_42">
    <path d="M 194.763025 7.2 
L 218.241273 7.2 
L 218.241273 48.361044 
L 252.082738 7.2 
L 279.34717 7.2 
L 235.493784 60.615095 
L 283.855462 119.975943 
L 254.46374 119.975943 
L 218.241273 75.551986 
L 218.241273 119.975943 
L 194.763025 119.975943 
L 194.763025 7.2 
z
" clip-path="url(#p8111312551)" style="fill: #0000ff"/>
   </g>
   <g id="patch_43">
    <path d="M 288.544538 145.473113 
L 312.022786 145.473113 
L 312.022786 145.592421 
L 345.86425 145.473113 
L 373.128683 145.473113 
L 329.275297 145.62794 
L 377.636975 145.8 
L 348.245253 145.8 
L 312.022786 145.671235 
L 312.022786 145.8 
L 288.544538 145.8 
L 288.544538 145.473113 
z
" clip-path="url(#p8111312551)" style="fill: #0000ff"/>
   </g>
   <g id="patch_44">
    <path d="M 377.636975 145.449682 
Q 370.184546 145.461296 362.126047 145.467171 
Q 354.067547 145.473113 345.290741 145.473113 
Q 319.117453 145.473113 303.830995 145.429087 
Q 288.544538 145.385061 288.544538 145.309771 
Q 288.544538 145.234211 303.830995 145.190252 
Q 319.117453 145.146226 345.290741 145.146226 
Q 354.067547 145.146226 362.126047 145.152169 
Q 370.184546 145.158043 377.636975 145.169657 
L 377.636975 145.234819 
Q 370.117205 145.219423 362.821906 145.212266 
Q 355.526607 145.205108 347.468107 145.205108 
Q 333.012192 145.205108 324.729221 145.232996 
Q 316.468698 145.260816 316.468698 145.309771 
Q 316.468698 145.358524 324.729221 145.386412 
Q 333.012192 145.414232 347.468107 145.414232 
Q 355.526607 145.414232 362.821906 145.407074 
Q 370.117205 145.399849 377.636975 145.384453 
L 377.636975 145.449682 
z
" clip-path="url(#p8111312551)" style="fill: #008000"/>
   </g>
   <g id="patch_45">
    <path d="M 288.544538 144.492453 
L 375.782562 144.492453 
L 375.782562 144.619957 
L 320.87582 144.619957 
L 320.87582 144.741576 
L 372.530621 144.741576 
L 372.530621 144.86908 
L 320.87582 144.86908 
L 320.87582 145.018862 
L 377.636975 145.018862 
L 377.636975 145.146226 
L 288.544538 145.146226 
L 288.544538 144.492453 
z
" clip-path="url(#p8111312551)" style="fill: #ff0000"/>
   </g>
   <g id="patch_46">
    <path d="M 324.693392 144.128576 
Q 332.688867 144.128576 336.157804 144.10896 
Q 339.62674 144.089204 339.62674 144.044087 
Q 339.62674 143.99939 336.157804 143.980195 
Q 332.688867 143.960859 324.693392 143.960859 
L 313.990455 143.960859 
L 313.990455 144.128576 
L 324.693392 144.128576 
z
M 313.990455 144.245011 
L 313.990455 144.492453 
L 288.544538 144.492453 
L 288.544538 143.838679 
L 327.400855 143.838679 
Q 346.903045 143.838679 355.977275 143.882115 
Q 365.072657 143.92541 365.072657 144.019147 
Q 365.072657 144.083879 360.334597 144.125493 
Q 355.61769 144.167107 346.099267 144.186863 
Q 351.323824 144.19471 355.448474 144.222593 
Q 359.594276 144.250335 363.824686 144.306801 
L 377.636975 144.492453 
L 350.541198 144.492453 
L 338.505681 144.33006 
Q 334.867529 144.28102 331.123616 144.263086 
Q 327.400855 144.245011 321.182152 144.245011 
L 313.990455 144.245011 
z
" clip-path="url(#p8111312551)" style="fill: #0000ff"/>
   </g>
   <g id="patch_47">
    <path d="M 335.466555 143.692029 
L 333.721828 143.692029 
Q 312.321082 143.692029 300.423529 143.582127 
Q 288.544538 143.472053 288.544538 143.275886 
Q 288.544538 143.080065 300.404968 142.969128 
Q 312.265399 142.858019 333.090756 142.858019 
Q 354.138845 142.858019 365.88791 142.968093 
Q 377.636975 143.077995 377.636975 143.275886 
Q 377.636975 143.411668 371.400504 143.509837 
Q 365.164034 143.608007 353.45209 143.657523 
L 370.899359 143.838679 
L 349.609979 143.838679 
L 335.466555 143.692029 
z
M 333.090756 143.008465 
Q 322.882248 143.008465 317.258288 143.078512 
Q 311.634328 143.148559 311.634328 143.275886 
Q 311.634328 143.405284 317.128361 143.474123 
Q 322.640956 143.54279 333.090756 143.54279 
Q 343.354947 143.54279 348.978908 143.472743 
Q 354.602868 143.402523 354.602868 143.275886 
Q 354.602868 143.148559 348.978908 143.078512 
Q 343.354947 143.008465 333.090756 143.008465 
z
" clip-path="url(#p8111312551)" style="fill: #800080"/>
   </g>
   <g id="patch_48">
    <path d="M 288.544538 141.550472 
L 377.636975 141.550472 
L 377.636975 141.80548 
L 345.584417 141.80548 
L 345.584417 142.858019 
L 320.659253 142.858019 
L 320.659253 141.80548 
L 288.544538 141.80548 
L 288.544538 141.550472 
z
" clip-path="url(#p8111312551)" style="fill: #008000"/>
   </g>
   <g id="patch_49">
    <path d="M 288.544538 139.916038 
L 317.162367 139.916038 
L 353.32354 141.036953 
L 353.32354 139.916038 
L 377.636975 139.916038 
L 377.636975 141.550472 
L 348.997837 141.550472 
L 312.836664 140.429557 
L 312.836664 141.550472 
L 288.544538 141.550472 
L 288.544538 139.916038 
z
" clip-path="url(#p8111312551)" style="fill: #800080"/>
   </g>
   <g id="patch_50">
    <path d="M 288.544538 138.281604 
L 310.585398 138.281604 
L 333.11808 139.487988 
L 355.61433 138.281604 
L 377.636975 138.281604 
L 346.16044 139.916038 
L 320.021072 139.916038 
L 288.544538 138.281604 
z
" clip-path="url(#p8111312551)"/>
   </g>
   <g id="patch_51">
    <path d="M 312.958707 136.176526 
L 312.958707 137.772148 
L 321.705595 137.772148 
Q 336.662572 137.772148 344.557095 137.567021 
Q 352.471913 137.361893 352.471913 136.971254 
Q 352.471913 136.582857 344.597684 136.379972 
Q 336.743749 136.176526 321.705595 136.176526 
L 312.958707 136.176526 
z
M 288.544538 135.666509 
L 314.277843 135.666509 
Q 335.850795 135.666509 346.403886 135.751699 
Q 356.956976 135.836328 364.506495 136.039774 
Q 371.16306 136.216879 374.38987 136.448348 
Q 377.636975 136.679256 377.636975 136.971254 
Q 377.636975 137.267736 374.38987 137.499766 
Q 371.16306 137.731795 364.506495 137.908339 
Q 356.896093 138.111785 346.241531 138.196975 
Q 335.586968 138.281604 314.277843 138.281604 
L 288.544538 138.281604 
L 288.544538 135.666509 
z
" clip-path="url(#p8111312551)" style="fill: #ff0000"/>
   </g>
   <g id="patch_52">
    <path d="M 288.544538 130.763208 
L 320.87582 130.763208 
L 320.87582 134.71128 
L 377.636975 134.71128 
L 377.636975 135.666509 
L 288.544538 135.666509 
L 288.544538 130.763208 
z
" clip-path="url(#p8111312551)"/>
   </g>
   <g id="patch_53">
    <path d="M 350.258947 129.334041 
L 315.995428 129.334041 
L 310.585398 130.763208 
L 288.544538 130.763208 
L 320.021072 122.917925 
L 346.16044 122.917925 
L 377.636975 130.763208 
L 355.61433 130.763208 
L 350.258947 129.334041 
z
M 321.460104 127.877973 
L 344.739624 127.877973 
L 333.11808 124.757346 
L 321.460104 127.877973 
z
" clip-path="url(#p8111312551)"/>
   </g>
   <g id="patch_54">
    <path d="M 370.208572 115.13571 
L 370.208572 116.803568 
Q 360.91702 116.513212 352.061009 116.366346 
Q 343.229195 116.217792 335.365251 116.217792 
Q 324.936451 116.217792 319.927724 116.418678 
Q 314.943193 116.617875 314.943193 117.039904 
Q 314.943193 117.35727 318.306541 117.534522 
Q 321.66989 117.710087 330.525901 117.836695 
L 342.914637 118.010571 
Q 361.739709 118.275605 369.676244 118.814114 
Q 377.636975 119.350935 377.636975 120.343548 
Q 377.636975 121.645085 366.554863 122.281505 
Q 355.472751 122.917925 332.703608 122.917925 
Q 321.984448 122.917925 311.1685 122.774435 
Q 300.352552 122.632633 289.536605 122.352406 
L 289.536605 120.638968 
Q 300.352552 121.039051 310.442597 121.243313 
Q 320.532643 121.445887 329.920982 121.445887 
Q 339.454502 121.445887 344.511623 121.224744 
Q 349.568744 121.001913 349.568744 120.590012 
Q 349.568744 120.222003 346.132805 120.021117 
Q 342.696866 119.820232 332.413247 119.661549 
L 321.137561 119.487673 
Q 304.199836 119.234455 296.360088 118.680753 
Q 288.544538 118.127051 288.544538 117.188459 
Q 288.544538 116.011842 299.433076 115.378798 
Q 310.321614 114.745755 330.743671 114.745755 
Q 340.059421 114.745755 349.883301 114.843665 
Q 359.707182 114.941576 370.208572 115.13571 
z
" clip-path="url(#p8111312551)" style="fill: #008000"/>
   </g>
   <g id="patch_55">
    <path d="M 288.544538 102.97783 
L 313.175976 102.97783 
L 333.072039 107.172013 
L 352.949386 102.97783 
L 377.636975 102.97783 
L 344.358329 109.787388 
L 344.358329 114.745755 
L 321.8419 114.745755 
L 321.8419 109.787388 
L 288.544538 102.97783 
z
" clip-path="url(#p8111312551)" style="fill: #008000"/>
   </g>
   <g id="patch_56">
    <path d="M 316.925115 86.960377 
L 349.256398 86.960377 
L 349.256398 102.97783 
L 316.925115 102.97783 
L 316.925115 86.960377 
z
" clip-path="url(#p8111312551)"/>
   </g>
   <g id="patch_57">
    <path d="M 289.471744 57.540566 
L 376.709768 57.540566 
L 376.709768 63.278249 
L 321.803027 63.278249 
L 321.803027 68.751116 
L 373.457827 68.751116 
L 373.457827 74.488799 
L 321.803027 74.488799 
L 321.803027 86.960377 
L 289.471744 86.960377 
L 289.471744 57.540566 
z
" clip-path="url(#p8111312551)"/>
   </g>
   <g id="patch_58">
    <path d="M 377.636975 52.985894 
Q 368.651857 55.26323 358.987863 56.407097 
Q 349.32387 57.540566 339.020934 57.540566 
Q 315.739495 57.540566 302.142016 50.760552 
Q 288.544538 43.980538 288.544538 32.385881 
Q 288.544538 20.656041 302.38162 13.92802 
Q 316.238668 7.2 340.338752 7.2 
Q 349.623373 7.2 358.129285 8.115094 
Q 366.655164 9.019789 374.202663 10.808382 
L 374.202663 20.843219 
Q 366.415561 18.545085 358.708326 17.411617 
Q 351.001092 16.267749 343.253923 16.267749 
Q 328.917668 16.267749 321.150533 20.448065 
Q 313.383397 24.617981 313.383397 32.385881 
Q 313.383397 40.080989 320.870996 44.282103 
Q 328.358594 48.472817 342.135775 48.472817 
Q 345.889558 48.472817 349.104233 48.233645 
Q 352.318909 47.984074 354.874676 47.464134 
L 354.874676 38.042826 
L 340.198983 38.042826 
L 340.198983 29.650998 
L 377.636975 29.650998 
L 377.636975 52.985894 
z
" clip-path="url(#p8111312551)" style="fill: #008000"/>
   </g>
   <g id="patch_59">
    <path d="M 418.474905 145.618062 
Q 426.47038 145.618062 429.939316 145.608254 
Q 433.408253 145.598375 433.408253 145.575817 
Q 433.408253 145.553469 429.939316 145.543871 
Q 426.47038 145.534203 418.474905 145.534203 
L 407.771967 145.534203 
L 407.771967 145.618062 
L 418.474905 145.618062 
z
M 407.771967 145.676279 
L 407.771967 145.8 
L 382.32605 145.8 
L 382.32605 145.473113 
L 421.182367 145.473113 
Q 440.684558 145.473113 449.758788 145.494831 
Q 458.854169 145.516479 458.854169 145.563347 
Q 458.854169 145.595713 454.11611 145.61652 
Q 449.399203 145.637327 439.88078 145.647205 
Q 445.105336 145.651128 449.229986 145.66507 
Q 453.375788 145.678941 457.606198 145.707174 
L 471.418487 145.8 
L 444.322711 145.8 
L 432.287194 145.718804 
Q 428.649041 145.694284 424.905128 145.685316 
Q 421.182367 145.676279 414.963664 145.676279 
L 407.771967 145.676279 
z
" clip-path="url(#p8111312551)" style="fill: #0000ff"/>
   </g>
   <g id="patch_60">
    <path d="M 471.418487 145.443537 
Q 462.433369 145.458325 452.769376 145.465753 
Q 443.105382 145.473113 432.802447 145.473113 
Q 409.521008 145.473113 395.923529 145.429087 
Q 382.32605 145.385061 382.32605 145.309771 
Q 382.32605 145.233603 396.163132 145.189915 
Q 410.020181 145.146226 434.120264 145.146226 
Q 443.404886 145.146226 451.910798 145.152169 
Q 460.436676 145.158043 467.984176 145.169657 
L 467.984176 145.234819 
Q 460.197073 145.219896 452.489839 145.212536 
Q 444.782604 145.205108 437.035436 145.205108 
Q 422.699181 145.205108 414.932045 145.232253 
Q 407.16491 145.25933 407.16491 145.309771 
Q 407.16491 145.359739 414.652508 145.387019 
Q 422.140107 145.414232 435.917288 145.414232 
Q 439.67107 145.414232 442.885746 145.412679 
Q 446.100421 145.411058 448.656188 145.407682 
L 448.656188 145.346505 
L 433.980496 145.346505 
L 433.980496 145.292012 
L 471.418487 145.292012 
L 471.418487 145.443537 
z
" clip-path="url(#p8111312551)" style="fill: #008000"/>
   </g>
   <g id="patch_61">
    <path d="M 382.32605 144.81934 
L 471.418487 144.81934 
L 471.418487 144.883092 
L 439.365929 144.883092 
L 439.365929 145.146226 
L 414.440766 145.146226 
L 414.440766 144.883092 
L 382.32605 144.883092 
L 382.32605 144.81934 
z
" clip-path="url(#p8111312551)" style="fill: #008000"/>
   </g>
   <g id="patch_62">
    <path d="M 382.32605 144.492453 
L 406.957489 144.492453 
L 426.853552 144.608958 
L 446.730898 144.492453 
L 471.418487 144.492453 
L 438.139842 144.681607 
L 438.139842 144.81934 
L 415.623413 144.81934 
L 415.623413 144.681607 
L 382.32605 144.492453 
z
" clip-path="url(#p8111312551)" style="fill: #008000"/>
   </g>
   <g id="patch_63">
    <path d="M 382.32605 143.838679 
L 405.804298 143.838679 
L 405.804298 144.077294 
L 439.645763 143.838679 
L 466.910195 143.838679 
L 423.05681 144.148332 
L 471.418487 144.492453 
L 442.026766 144.492453 
L 405.804298 144.234923 
L 405.804298 144.492453 
L 382.32605 144.492453 
L 382.32605 143.838679 
z
" clip-path="url(#p8111312551)" style="fill: #0000ff"/>
   </g>
   <g id="patch_64">
    <path d="M 463.990085 142.593525 
L 463.990085 142.860382 
Q 454.698532 142.813925 445.842522 142.790427 
Q 437.010708 142.766658 429.146763 142.766658 
Q 418.717964 142.766658 413.709236 142.7988 
Q 408.724706 142.830671 408.724706 142.898196 
Q 408.724706 142.948975 412.088054 142.977335 
Q 415.451402 143.005425 424.307413 143.025683 
L 436.69615 143.053503 
Q 455.521222 143.095908 463.457756 143.18207 
Q 471.418487 143.267961 471.418487 143.426779 
Q 471.418487 143.635025 460.336375 143.736852 
Q 449.254264 143.838679 426.485121 143.838679 
Q 415.76596 143.838679 404.950013 143.815721 
Q 394.134065 143.793033 383.318117 143.748196 
L 383.318117 143.474046 
Q 394.134065 143.53806 404.22411 143.570741 
Q 414.314155 143.603153 423.702495 143.603153 
Q 433.236014 143.603153 438.293135 143.56777 
Q 443.350256 143.532117 443.350256 143.466213 
Q 443.350256 143.407332 439.914318 143.37519 
Q 436.478379 143.343048 426.19476 143.317659 
L 414.919074 143.289839 
Q 397.981348 143.249324 390.141601 143.160732 
Q 382.32605 143.07214 382.32605 142.921965 
Q 382.32605 142.733706 393.214588 142.632419 
Q 404.103126 142.531132 424.525184 142.531132 
Q 433.840933 142.531132 443.664814 142.546798 
Q 453.488695 142.562464 463.990085 142.593525 
z
" clip-path="url(#p8111312551)" style="fill: #008000"/>
   </g>
   <g id="patch_65">
    <path d="M 382.32605 141.223585 
L 407.960636 141.223585 
L 407.960636 141.721832 
L 445.783902 141.721832 
L 445.783902 141.223585 
L 471.418487 141.223585 
L 471.418487 142.531132 
L 445.783902 142.531132 
L 445.783902 141.97684 
L 407.960636 141.97684 
L 407.960636 142.531132 
L 382.32605 142.531132 
L 382.32605 141.223585 
z
" clip-path="url(#p8111312551)" style="fill: #0000ff"/>
   </g>
   <g id="patch_66">
    <path d="M 382.32605 138.608491 
L 428.635557 138.608491 
Q 449.307786 138.608491 460.351536 138.830432 
Q 471.418487 139.051812 471.418487 139.461507 
Q 471.418487 139.873443 460.351536 140.094824 
Q 449.307786 140.316204 428.635557 140.316204 
L 410.23704 140.316204 
L 410.23704 141.223585 
L 382.32605 141.223585 
L 382.32605 138.608491 
z
M 410.23704 139.097209 
L 410.23704 139.827485 
L 425.665809 139.827485 
Q 433.786213 139.827485 438.217634 139.732208 
Q 442.649055 139.63693 442.649055 139.461507 
Q 442.649055 139.286644 438.217634 139.191927 
Q 433.786213 139.097209 425.665809 139.097209 
L 410.23704 139.097209 
z
" clip-path="url(#p8111312551)"/>
   </g>
   <g id="patch_67">
    <path d="M 382.32605 135.666509 
L 408.607461 135.666509 
L 426.837937 137.240904 
L 445.188575 135.666509 
L 471.418487 135.666509 
L 471.418487 138.608491 
L 451.900549 138.608491 
L 451.900549 136.456544 
L 433.446913 138.042919 
L 420.349123 138.042919 
L 401.895487 136.456544 
L 401.895487 138.608491 
L 382.32605 138.608491 
L 382.32605 135.666509 
z
" clip-path="url(#p8111312551)"/>
   </g>
   <g id="patch_68">
    <path d="M 382.32605 132.070755 
L 397.731506 132.070755 
L 408.500628 134.683958 
L 419.189583 132.070755 
L 434.675206 132.070755 
L 445.36416 134.683958 
L 456.146643 132.070755 
L 471.418487 132.070755 
L 456.721175 135.666509 
L 438.1892 135.666509 
L 426.872269 132.933089 
L 415.68895 135.666509 
L 397.143614 135.666509 
L 382.32605 132.070755 
z
" clip-path="url(#p8111312551)"/>
   </g>
   <g id="patch_69">
    <path d="M 382.32605 125.206132 
L 404.366911 125.206132 
L 426.899592 130.272947 
L 449.395842 125.206132 
L 471.418487 125.206132 
L 439.941953 132.070755 
L 413.802585 132.070755 
L 382.32605 125.206132 
z
" clip-path="url(#p8111312551)"/>
   </g>
   <g id="patch_70">
    <path d="M 444.04046 123.121931 
L 409.77694 123.121931 
L 404.366911 125.206132 
L 382.32605 125.206132 
L 413.802585 113.765094 
L 439.941953 113.765094 
L 471.418487 125.206132 
L 449.395842 125.206132 
L 444.04046 123.121931 
z
M 415.241616 120.998498 
L 438.521137 120.998498 
L 426.899592 116.447584 
L 415.241616 120.998498 
z
" clip-path="url(#p8111312551)"/>
   </g>
   <g id="patch_71">
    <path d="M 383.253257 101.343396 
L 470.491281 101.343396 
L 470.491281 103.765973 
L 415.584539 103.765973 
L 415.584539 106.076739 
L 467.23934 106.076739 
L 467.23934 108.499317 
L 415.584539 108.499317 
L 415.584539 113.765094 
L 383.253257 113.765094 
L 383.253257 101.343396 
z
" clip-path="url(#p8111312551)"/>
   </g>
   <g id="patch_72">
    <path d="M 410.706628 69.962264 
L 443.03791 69.962264 
L 443.03791 101.343396 
L 410.706628 101.343396 
L 410.706628 69.962264 
z
" clip-path="url(#p8111312551)"/>
   </g>
   <g id="patch_73">
    <path d="M 382.32605 7.2 
L 414.657333 7.2 
L 414.657333 57.735325 
L 471.418487 57.735325 
L 471.418487 69.962264 
L 382.32605 69.962264 
L 382.32605 7.2 
z
" clip-path="url(#p8111312551)"/>
   </g>
   <g id="patch_74">
    <path d="M 476.107563 145.146226 
L 499.585811 145.146226 
L 499.585811 145.384841 
L 533.427275 145.146226 
L 560.691708 145.146226 
L 516.838322 145.455879 
L 565.2 145.8 
L 535.808278 145.8 
L 499.585811 145.54247 
L 499.585811 145.8 
L 476.107563 145.8 
L 476.107563 145.146226 
z
" clip-path="url(#p8111312551)" style="fill: #0000ff"/>
   </g>
   <g id="patch_75">
    <path d="M 476.107563 144.492453 
L 565.2 144.492453 
L 565.2 144.619957 
L 533.147442 144.619957 
L 533.147442 145.146226 
L 508.222279 145.146226 
L 508.222279 144.619957 
L 476.107563 144.619957 
L 476.107563 144.492453 
z
" clip-path="url(#p8111312551)" style="fill: #008000"/>
   </g>
   <g id="patch_76">
    <path d="M 504.48814 142.531132 
L 536.819423 142.531132 
L 536.819423 144.492453 
L 504.48814 144.492453 
L 504.48814 142.531132 
z
" clip-path="url(#p8111312551)"/>
   </g>
   <g id="patch_77">
    <path d="M 476.107563 139.916038 
L 498.148424 139.916038 
L 520.681105 141.846253 
L 543.177355 139.916038 
L 565.2 139.916038 
L 533.723465 142.531132 
L 507.584098 142.531132 
L 476.107563 139.916038 
z
" clip-path="url(#p8111312551)"/>
   </g>
   <g id="patch_78">
    <path d="M 512.256417 138.096653 
Q 520.251893 138.096653 523.720829 137.998573 
Q 527.189765 137.899792 527.189765 137.674208 
Q 527.189765 137.450726 523.720829 137.354747 
Q 520.251893 137.258068 512.256417 137.258068 
L 501.55348 137.258068 
L 501.55348 138.096653 
L 512.256417 138.096653 
z
M 501.55348 138.678828 
L 501.55348 139.916038 
L 476.107563 139.916038 
L 476.107563 136.64717 
L 514.96388 136.64717 
Q 534.466071 136.64717 543.5403 136.864347 
Q 552.635682 137.080824 552.635682 137.549506 
Q 552.635682 137.87317 547.897623 138.08124 
Q 543.180715 138.28931 533.662293 138.388091 
Q 538.886849 138.427323 543.011499 138.566736 
Q 547.157301 138.70545 551.387711 138.98778 
L 565.2 139.916038 
L 538.104223 139.916038 
L 526.068706 139.104075 
Q 522.430554 138.858875 518.686641 138.769202 
Q 514.96388 138.678828 508.745177 138.678828 
L 501.55348 138.678828 
z
" clip-path="url(#p8111312551)" style="fill: #0000ff"/>
   </g>
   <g id="patch_79">
    <path d="M 476.107563 132.397642 
L 502.388974 132.397642 
L 520.619449 134.671768 
L 538.970088 132.397642 
L 565.2 132.397642 
L 565.2 136.64717 
L 545.682061 136.64717 
L 545.682061 133.538803 
L 527.228426 135.830233 
L 514.130636 135.830233 
L 495.677 133.538803 
L 495.677 136.64717 
L 476.107563 136.64717 
L 476.107563 132.397642 
z
" clip-path="url(#p8111312551)"/>
   </g>
   <g id="patch_80">
    <path d="M 476.107563 127.821226 
L 563.345587 127.821226 
L 563.345587 128.713755 
L 508.438846 128.713755 
L 508.438846 129.56509 
L 560.093646 129.56509 
L 560.093646 130.457618 
L 508.438846 130.457618 
L 508.438846 131.506094 
L 565.2 131.506094 
L 565.2 132.397642 
L 476.107563 132.397642 
L 476.107563 127.821226 
z
" clip-path="url(#p8111312551)" style="fill: #ff0000"/>
   </g>
   <g id="patch_81">
    <path d="M 557.771597 118.482568 
L 557.771597 120.483999 
Q 548.480045 120.135572 539.624034 119.959332 
Q 530.79222 119.781067 522.928276 119.781067 
Q 512.499476 119.781067 507.490749 120.02213 
Q 502.506218 120.261167 502.506218 120.767602 
Q 502.506218 121.148441 505.869567 121.361144 
Q 509.232915 121.571821 518.088926 121.723751 
L 530.477662 121.932402 
Q 549.302735 122.250443 557.239269 122.896654 
Q 565.2 123.540839 565.2 124.731974 
Q 565.2 126.293819 554.117888 127.057523 
Q 543.035776 127.821226 520.266633 127.821226 
Q 509.547473 127.821226 498.731525 127.649039 
Q 487.915577 127.478876 477.09963 127.142604 
L 477.09963 125.086478 
Q 487.915577 125.566579 498.005623 125.811693 
Q 508.095668 126.054782 517.484007 126.054782 
Q 527.017527 126.054782 532.074648 125.78941 
Q 537.131769 125.522012 537.131769 125.027732 
Q 537.131769 124.586121 533.69583 124.345058 
Q 530.259892 124.103995 519.976272 123.913575 
L 508.700587 123.704924 
Q 491.762861 123.401063 483.923114 122.736621 
Q 476.107563 122.072178 476.107563 120.945867 
Q 476.107563 119.533927 486.996101 118.774275 
Q 497.884639 118.014623 518.306697 118.014623 
Q 527.622446 118.014623 537.446327 118.132116 
Q 547.270208 118.249608 557.771597 118.482568 
z
" clip-path="url(#p8111312551)" style="fill: #008000"/>
   </g>
   <g id="patch_82">
    <path d="M 476.107563 106.573585 
L 491.513019 106.573585 
L 502.282141 114.888321 
L 512.971095 106.573585 
L 528.456718 106.573585 
L 539.145673 114.888321 
L 549.928156 106.573585 
L 565.2 106.573585 
L 550.502687 118.014623 
L 531.970712 118.014623 
L 520.653782 109.317374 
L 509.470463 118.014623 
L 490.925126 118.014623 
L 476.107563 106.573585 
z
" clip-path="url(#p8111312551)"/>
   </g>
   <g id="patch_83">
    <path d="M 477.034769 89.575472 
L 564.272794 89.575472 
L 564.272794 92.890577 
L 509.366052 92.890577 
L 509.366052 96.052678 
L 561.020853 96.052678 
L 561.020853 99.367784 
L 509.366052 99.367784 
L 509.366052 106.573585 
L 477.034769 106.573585 
L 477.034769 89.575472 
z
" clip-path="url(#p8111312551)"/>
   </g>
   <g id="patch_84">
    <path d="M 476.107563 69.962264 
L 508.438846 69.962264 
L 508.438846 85.754553 
L 565.2 85.754553 
L 565.2 89.575472 
L 476.107563 89.575472 
L 476.107563 69.962264 
z
" clip-path="url(#p8111312551)"/>
   </g>
   <g id="patch_85">
    <path d="M 476.107563 46.426415 
L 522.417069 46.426415 
Q 543.089299 46.426415 554.133049 48.423885 
Q 565.2 50.416311 565.2 54.103561 
Q 565.2 57.810987 554.133049 59.803413 
Q 543.089299 61.795839 522.417069 61.795839 
L 504.018553 61.795839 
L 504.018553 69.962264 
L 476.107563 69.962264 
L 476.107563 46.426415 
z
M 504.018553 50.824885 
L 504.018553 57.397369 
L 519.447321 57.397369 
Q 527.567726 57.397369 531.999147 56.539869 
Q 536.430567 55.682369 536.430567 54.103561 
Q 536.430567 52.529796 531.999147 51.677341 
Q 527.567726 50.824885 519.447321 50.824885 
L 504.018553 50.824885 
z
" clip-path="url(#p8111312551)"/>
   </g>
   <g id="patch_86">
    <path d="M 565.2 42.87732 
Q 556.214882 44.651867 546.550888 45.543193 
Q 536.886895 46.426415 526.583959 46.426415 
Q 503.30252 46.426415 489.705042 41.143287 
Q 476.107563 35.860159 476.107563 26.825362 
Q 476.107563 17.685226 489.944645 12.442613 
Q 503.801693 7.2 527.901777 7.2 
Q 537.186399 7.2 545.69231 7.91306 
Q 554.218189 8.618017 561.765688 10.011726 
L 561.765688 17.83108 
Q 553.978586 16.040326 546.271351 15.157104 
Q 538.564117 14.265779 530.816948 14.265779 
Q 516.480693 14.265779 508.713558 17.523167 
Q 500.946423 20.772453 500.946423 26.825362 
Q 500.946423 32.82155 508.434021 36.095145 
Q 515.921619 39.360637 529.6988 39.360637 
Q 533.452583 39.360637 536.667259 39.174269 
Q 539.881934 38.979798 542.437701 38.57465 
L 542.437701 31.233371 
L 527.762008 31.233371 
L 527.762008 24.694284 
L 565.2 24.694284 
L 565.2 42.87732 
z
" clip-path="url(#p8111312551)" style="fill: #008000"/>
   </g>
   <g id="matplotlib.axis_1">
    <g id="xtick_1">
     <g id="text_1">
      <!-- N1 -->
      <g style="fill: #262626" transform="translate(37.902468 167.996875) scale(0.2 -0.2)">
       <defs>
        <path id="DejaVuSans-4e" d="M 628 4666 
L 1478 4666 
L 3547 763 
L 3547 4666 
L 4159 4666 
L 4159 0 
L 3309 0 
L 1241 3903 
L 1241 0 
L 628 0 
L 628 4666 
z
" transform="scale(0.015625)"/>
        <path id="DejaVuSans-31" d="M 794 531 
L 1825 531 
L 1825 4091 
L 703 3866 
L 703 4441 
L 1819 4666 
L 2450 4666 
L 2450 531 
L 3481 531 
L 3481 0 
L 794 0 
L 794 531 
z
" transform="scale(0.015625)"/>
       </defs>
       <use xlink:href="#DejaVuSans-4e"/>
       <use xlink:href="#DejaVuSans-31" transform="translate(74.804688 0)"/>
      </g>
     </g>
    </g>
    <g id="xtick_2">
     <g id="text_2">
      <!-- N2 -->
      <g style="fill: #262626" transform="translate(131.683981 167.996875) scale(0.2 -0.2)">
       <defs>
        <path id="DejaVuSans-32" d="M 1228 531 
L 3431 531 
L 3431 0 
L 469 0 
L 469 531 
Q 828 903 1448 1529 
Q 2069 2156 2228 2338 
Q 2531 2678 2651 2914 
Q 2772 3150 2772 3378 
Q 2772 3750 2511 3984 
Q 2250 4219 1831 4219 
Q 1534 4219 1204 4116 
Q 875 4013 500 3803 
L 500 4441 
Q 881 4594 1212 4672 
Q 1544 4750 1819 4750 
Q 2544 4750 2975 4387 
Q 3406 4025 3406 3419 
Q 3406 3131 3298 2873 
Q 3191 2616 2906 2266 
Q 2828 2175 2409 1742 
Q 1991 1309 1228 531 
z
" transform="scale(0.015625)"/>
       </defs>
       <use xlink:href="#DejaVuSans-4e"/>
       <use xlink:href="#DejaVuSans-32" transform="translate(74.804688 0)"/>
      </g>
     </g>
    </g>
    <g id="xtick_3">
     <g id="text_3">
      <!-- N3 -->
      <g style="fill: #262626" transform="translate(225.465494 167.996875) scale(0.2 -0.2)">
       <defs>
        <path id="DejaVuSans-33" d="M 2597 2516 
Q 3050 2419 3304 2112 
Q 3559 1806 3559 1356 
Q 3559 666 3084 287 
Q 2609 -91 1734 -91 
Q 1441 -91 1130 -33 
Q 819 25 488 141 
L 488 750 
Q 750 597 1062 519 
Q 1375 441 1716 441 
Q 2309 441 2620 675 
Q 2931 909 2931 1356 
Q 2931 1769 2642 2001 
Q 2353 2234 1838 2234 
L 1294 2234 
L 1294 2753 
L 1863 2753 
Q 2328 2753 2575 2939 
Q 2822 3125 2822 3475 
Q 2822 3834 2567 4026 
Q 2313 4219 1838 4219 
Q 1578 4219 1281 4162 
Q 984 4106 628 3988 
L 628 4550 
Q 988 4650 1302 4700 
Q 1616 4750 1894 4750 
Q 2613 4750 3031 4423 
Q 3450 4097 3450 3541 
Q 3450 3153 3228 2886 
Q 3006 2619 2597 2516 
z
" transform="scale(0.015625)"/>
       </defs>
       <use xlink:href="#DejaVuSans-4e"/>
       <use xlink:href="#DejaVuSans-33" transform="translate(74.804688 0)"/>
      </g>
     </g>
    </g>
    <g id="xtick_4">
     <g id="text_4">
      <!-- C3 -->
      <g style="fill: #262626" transform="translate(319.745444 167.996875) scale(0.2 -0.2)">
       <defs>
        <path id="DejaVuSans-43" d="M 4122 4306 
L 4122 3641 
Q 3803 3938 3442 4084 
Q 3081 4231 2675 4231 
Q 1875 4231 1450 3742 
Q 1025 3253 1025 2328 
Q 1025 1406 1450 917 
Q 1875 428 2675 428 
Q 3081 428 3442 575 
Q 3803 722 4122 1019 
L 4122 359 
Q 3791 134 3420 21 
Q 3050 -91 2638 -91 
Q 1578 -91 968 557 
Q 359 1206 359 2328 
Q 359 3453 968 4101 
Q 1578 4750 2638 4750 
Q 3056 4750 3426 4639 
Q 3797 4528 4122 4306 
z
" transform="scale(0.015625)"/>
       </defs>
       <use xlink:href="#DejaVuSans-43"/>
       <use xlink:href="#DejaVuSans-33" transform="translate(69.824219 0)"/>
      </g>
     </g>
    </g>
    <g id="xtick_5">
     <g id="text_5">
      <!-- C2 -->
      <g style="fill: #262626" transform="translate(413.526956 167.996875) scale(0.2 -0.2)">
       <use xlink:href="#DejaVuSans-43"/>
       <use xlink:href="#DejaVuSans-32" transform="translate(69.824219 0)"/>
      </g>
     </g>
    </g>
    <g id="xtick_6">
     <g id="text_6">
      <!-- C1 -->
      <g style="fill: #262626" transform="translate(507.308469 167.996875) scale(0.2 -0.2)">
       <use xlink:href="#DejaVuSans-43"/>
       <use xlink:href="#DejaVuSans-31" transform="translate(69.824219 0)"/>
      </g>
     </g>
    </g>
    <g id="text_7">
     <!-- Amino acid position relative to cleavege site -->
     <g style="fill: #262626" transform="translate(64.00625 191.353125) scale(0.2 -0.2)">
      <defs>
       <path id="DejaVuSans-41" d="M 2188 4044 
L 1331 1722 
L 3047 1722 
L 2188 4044 
z
M 1831 4666 
L 2547 4666 
L 4325 0 
L 3669 0 
L 3244 1197 
L 1141 1197 
L 716 0 
L 50 0 
L 1831 4666 
z
" transform="scale(0.015625)"/>
       <path id="DejaVuSans-6d" d="M 3328 2828 
Q 3544 3216 3844 3400 
Q 4144 3584 4550 3584 
Q 5097 3584 5394 3201 
Q 5691 2819 5691 2113 
L 5691 0 
L 5113 0 
L 5113 2094 
Q 5113 2597 4934 2840 
Q 4756 3084 4391 3084 
Q 3944 3084 3684 2787 
Q 3425 2491 3425 1978 
L 3425 0 
L 2847 0 
L 2847 2094 
Q 2847 2600 2669 2842 
Q 2491 3084 2119 3084 
Q 1678 3084 1418 2786 
Q 1159 2488 1159 1978 
L 1159 0 
L 581 0 
L 581 3500 
L 1159 3500 
L 1159 2956 
Q 1356 3278 1631 3431 
Q 1906 3584 2284 3584 
Q 2666 3584 2933 3390 
Q 3200 3197 3328 2828 
z
" transform="scale(0.015625)"/>
       <path id="DejaVuSans-69" d="M 603 3500 
L 1178 3500 
L 1178 0 
L 603 0 
L 603 3500 
z
M 603 4863 
L 1178 4863 
L 1178 4134 
L 603 4134 
L 603 4863 
z
" transform="scale(0.015625)"/>
       <path id="DejaVuSans-6e" d="M 3513 2113 
L 3513 0 
L 2938 0 
L 2938 2094 
Q 2938 2591 2744 2837 
Q 2550 3084 2163 3084 
Q 1697 3084 1428 2787 
Q 1159 2491 1159 1978 
L 1159 0 
L 581 0 
L 581 3500 
L 1159 3500 
L 1159 2956 
Q 1366 3272 1645 3428 
Q 1925 3584 2291 3584 
Q 2894 3584 3203 3211 
Q 3513 2838 3513 2113 
z
" transform="scale(0.015625)"/>
       <path id="DejaVuSans-6f" d="M 1959 3097 
Q 1497 3097 1228 2736 
Q 959 2375 959 1747 
Q 959 1119 1226 758 
Q 1494 397 1959 397 
Q 2419 397 2687 759 
Q 2956 1122 2956 1747 
Q 2956 2369 2687 2733 
Q 2419 3097 1959 3097 
z
M 1959 3584 
Q 2709 3584 3137 3096 
Q 3566 2609 3566 1747 
Q 3566 888 3137 398 
Q 2709 -91 1959 -91 
Q 1206 -91 779 398 
Q 353 888 353 1747 
Q 353 2609 779 3096 
Q 1206 3584 1959 3584 
z
" transform="scale(0.015625)"/>
       <path id="DejaVuSans-20" transform="scale(0.015625)"/>
       <path id="DejaVuSans-61" d="M 2194 1759 
Q 1497 1759 1228 1600 
Q 959 1441 959 1056 
Q 959 750 1161 570 
Q 1363 391 1709 391 
Q 2188 391 2477 730 
Q 2766 1069 2766 1631 
L 2766 1759 
L 2194 1759 
z
M 3341 1997 
L 3341 0 
L 2766 0 
L 2766 531 
Q 2569 213 2275 61 
Q 1981 -91 1556 -91 
Q 1019 -91 701 211 
Q 384 513 384 1019 
Q 384 1609 779 1909 
Q 1175 2209 1959 2209 
L 2766 2209 
L 2766 2266 
Q 2766 2663 2505 2880 
Q 2244 3097 1772 3097 
Q 1472 3097 1187 3025 
Q 903 2953 641 2809 
L 641 3341 
Q 956 3463 1253 3523 
Q 1550 3584 1831 3584 
Q 2591 3584 2966 3190 
Q 3341 2797 3341 1997 
z
" transform="scale(0.015625)"/>
       <path id="DejaVuSans-63" d="M 3122 3366 
L 3122 2828 
Q 2878 2963 2633 3030 
Q 2388 3097 2138 3097 
Q 1578 3097 1268 2742 
Q 959 2388 959 1747 
Q 959 1106 1268 751 
Q 1578 397 2138 397 
Q 2388 397 2633 464 
Q 2878 531 3122 666 
L 3122 134 
Q 2881 22 2623 -34 
Q 2366 -91 2075 -91 
Q 1284 -91 818 406 
Q 353 903 353 1747 
Q 353 2603 823 3093 
Q 1294 3584 2113 3584 
Q 2378 3584 2631 3529 
Q 2884 3475 3122 3366 
z
" transform="scale(0.015625)"/>
       <path id="DejaVuSans-64" d="M 2906 2969 
L 2906 4863 
L 3481 4863 
L 3481 0 
L 2906 0 
L 2906 525 
Q 2725 213 2448 61 
Q 2172 -91 1784 -91 
Q 1150 -91 751 415 
Q 353 922 353 1747 
Q 353 2572 751 3078 
Q 1150 3584 1784 3584 
Q 2172 3584 2448 3432 
Q 2725 3281 2906 2969 
z
M 947 1747 
Q 947 1113 1208 752 
Q 1469 391 1925 391 
Q 2381 391 2643 752 
Q 2906 1113 2906 1747 
Q 2906 2381 2643 2742 
Q 2381 3103 1925 3103 
Q 1469 3103 1208 2742 
Q 947 2381 947 1747 
z
" transform="scale(0.015625)"/>
       <path id="DejaVuSans-70" d="M 1159 525 
L 1159 -1331 
L 581 -1331 
L 581 3500 
L 1159 3500 
L 1159 2969 
Q 1341 3281 1617 3432 
Q 1894 3584 2278 3584 
Q 2916 3584 3314 3078 
Q 3713 2572 3713 1747 
Q 3713 922 3314 415 
Q 2916 -91 2278 -91 
Q 1894 -91 1617 61 
Q 1341 213 1159 525 
z
M 3116 1747 
Q 3116 2381 2855 2742 
Q 2594 3103 2138 3103 
Q 1681 3103 1420 2742 
Q 1159 2381 1159 1747 
Q 1159 1113 1420 752 
Q 1681 391 2138 391 
Q 2594 391 2855 752 
Q 3116 1113 3116 1747 
z
" transform="scale(0.015625)"/>
       <path id="DejaVuSans-73" d="M 2834 3397 
L 2834 2853 
Q 2591 2978 2328 3040 
Q 2066 3103 1784 3103 
Q 1356 3103 1142 2972 
Q 928 2841 928 2578 
Q 928 2378 1081 2264 
Q 1234 2150 1697 2047 
L 1894 2003 
Q 2506 1872 2764 1633 
Q 3022 1394 3022 966 
Q 3022 478 2636 193 
Q 2250 -91 1575 -91 
Q 1294 -91 989 -36 
Q 684 19 347 128 
L 347 722 
Q 666 556 975 473 
Q 1284 391 1588 391 
Q 1994 391 2212 530 
Q 2431 669 2431 922 
Q 2431 1156 2273 1281 
Q 2116 1406 1581 1522 
L 1381 1569 
Q 847 1681 609 1914 
Q 372 2147 372 2553 
Q 372 3047 722 3315 
Q 1072 3584 1716 3584 
Q 2034 3584 2315 3537 
Q 2597 3491 2834 3397 
z
" transform="scale(0.015625)"/>
       <path id="DejaVuSans-74" d="M 1172 4494 
L 1172 3500 
L 2356 3500 
L 2356 3053 
L 1172 3053 
L 1172 1153 
Q 1172 725 1289 603 
Q 1406 481 1766 481 
L 2356 481 
L 2356 0 
L 1766 0 
Q 1100 0 847 248 
Q 594 497 594 1153 
L 594 3053 
L 172 3053 
L 172 3500 
L 594 3500 
L 594 4494 
L 1172 4494 
z
" transform="scale(0.015625)"/>
       <path id="DejaVuSans-72" d="M 2631 2963 
Q 2534 3019 2420 3045 
Q 2306 3072 2169 3072 
Q 1681 3072 1420 2755 
Q 1159 2438 1159 1844 
L 1159 0 
L 581 0 
L 581 3500 
L 1159 3500 
L 1159 2956 
Q 1341 3275 1631 3429 
Q 1922 3584 2338 3584 
Q 2397 3584 2469 3576 
Q 2541 3569 2628 3553 
L 2631 2963 
z
" transform="scale(0.015625)"/>
       <path id="DejaVuSans-65" d="M 3597 1894 
L 3597 1613 
L 953 1613 
Q 991 1019 1311 708 
Q 1631 397 2203 397 
Q 2534 397 2845 478 
Q 3156 559 3463 722 
L 3463 178 
Q 3153 47 2828 -22 
Q 2503 -91 2169 -91 
Q 1331 -91 842 396 
Q 353 884 353 1716 
Q 353 2575 817 3079 
Q 1281 3584 2069 3584 
Q 2775 3584 3186 3129 
Q 3597 2675 3597 1894 
z
M 3022 2063 
Q 3016 2534 2758 2815 
Q 2500 3097 2075 3097 
Q 1594 3097 1305 2825 
Q 1016 2553 972 2059 
L 3022 2063 
z
" transform="scale(0.015625)"/>
       <path id="DejaVuSans-6c" d="M 603 4863 
L 1178 4863 
L 1178 0 
L 603 0 
L 603 4863 
z
" transform="scale(0.015625)"/>
       <path id="DejaVuSans-76" d="M 191 3500 
L 800 3500 
L 1894 563 
L 2988 3500 
L 3597 3500 
L 2284 0 
L 1503 0 
L 191 3500 
z
" transform="scale(0.015625)"/>
       <path id="DejaVuSans-67" d="M 2906 1791 
Q 2906 2416 2648 2759 
Q 2391 3103 1925 3103 
Q 1463 3103 1205 2759 
Q 947 2416 947 1791 
Q 947 1169 1205 825 
Q 1463 481 1925 481 
Q 2391 481 2648 825 
Q 2906 1169 2906 1791 
z
M 3481 434 
Q 3481 -459 3084 -895 
Q 2688 -1331 1869 -1331 
Q 1566 -1331 1297 -1286 
Q 1028 -1241 775 -1147 
L 775 -588 
Q 1028 -725 1275 -790 
Q 1522 -856 1778 -856 
Q 2344 -856 2625 -561 
Q 2906 -266 2906 331 
L 2906 616 
Q 2728 306 2450 153 
Q 2172 0 1784 0 
Q 1141 0 747 490 
Q 353 981 353 1791 
Q 353 2603 747 3093 
Q 1141 3584 1784 3584 
Q 2172 3584 2450 3431 
Q 2728 3278 2906 2969 
L 2906 3500 
L 3481 3500 
L 3481 434 
z
" transform="scale(0.015625)"/>
      </defs>
      <use xlink:href="#DejaVuSans-41"/>
      <use xlink:href="#DejaVuSans-6d" transform="translate(68.408203 0)"/>
      <use xlink:href="#DejaVuSans-69" transform="translate(165.820312 0)"/>
      <use xlink:href="#DejaVuSans-6e" transform="translate(193.603516 0)"/>
      <use xlink:href="#DejaVuSans-6f" transform="translate(256.982422 0)"/>
      <use xlink:href="#DejaVuSans-20" transform="translate(318.164062 0)"/>
      <use xlink:href="#DejaVuSans-61" transform="translate(349.951172 0)"/>
      <use xlink:href="#DejaVuSans-63" transform="translate(411.230469 0)"/>
      <use xlink:href="#DejaVuSans-69" transform="translate(466.210938 0)"/>
      <use xlink:href="#DejaVuSans-64" transform="translate(493.994141 0)"/>
      <use xlink:href="#DejaVuSans-20" transform="translate(557.470703 0)"/>
      <use xlink:href="#DejaVuSans-70" transform="translate(589.257812 0)"/>
      <use xlink:href="#DejaVuSans-6f" transform="translate(652.734375 0)"/>
      <use xlink:href="#DejaVuSans-73" transform="translate(713.916016 0)"/>
      <use xlink:href="#DejaVuSans-69" transform="translate(766.015625 0)"/>
      <use xlink:href="#DejaVuSans-74" transform="translate(793.798828 0)"/>
      <use xlink:href="#DejaVuSans-69" transform="translate(833.007812 0)"/>
      <use xlink:href="#DejaVuSans-6f" transform="translate(860.791016 0)"/>
      <use xlink:href="#DejaVuSans-6e" transform="translate(921.972656 0)"/>
      <use xlink:href="#DejaVuSans-20" transform="translate(985.351562 0)"/>
      <use xlink:href="#DejaVuSans-72" transform="translate(1017.138672 0)"/>
      <use xlink:href="#DejaVuSans-65" transform="translate(1056.001953 0)"/>
      <use xlink:href="#DejaVuSans-6c" transform="translate(1117.525391 0)"/>
      <use xlink:href="#DejaVuSans-61" transform="translate(1145.308594 0)"/>
      <use xlink:href="#DejaVuSans-74" transform="translate(1206.587891 0)"/>
      <use xlink:href="#DejaVuSans-69" transform="translate(1245.796875 0)"/>
      <use xlink:href="#DejaVuSans-76" transform="translate(1273.580078 0)"/>
      <use xlink:href="#DejaVuSans-65" transform="translate(1332.759766 0)"/>
      <use xlink:href="#DejaVuSans-20" transform="translate(1394.283203 0)"/>
      <use xlink:href="#DejaVuSans-74" transform="translate(1426.070312 0)"/>
      <use xlink:href="#DejaVuSans-6f" transform="translate(1465.279297 0)"/>
      <use xlink:href="#DejaVuSans-20" transform="translate(1526.460938 0)"/>
      <use xlink:href="#DejaVuSans-63" transform="translate(1558.248047 0)"/>
      <use xlink:href="#DejaVuSans-6c" transform="translate(1613.228516 0)"/>
      <use xlink:href="#DejaVuSans-65" transform="translate(1641.011719 0)"/>
      <use xlink:href="#DejaVuSans-61" transform="translate(1702.535156 0)"/>
      <use xlink:href="#DejaVuSans-76" transform="translate(1763.814453 0)"/>
      <use xlink:href="#DejaVuSans-65" transform="translate(1822.994141 0)"/>
      <use xlink:href="#DejaVuSans-67" transform="translate(1884.517578 0)"/>
      <use xlink:href="#DejaVuSans-65" transform="translate(1947.994141 0)"/>
      <use xlink:href="#DejaVuSans-20" transform="translate(2009.517578 0)"/>
      <use xlink:href="#DejaVuSans-73" transform="translate(2041.304688 0)"/>
      <use xlink:href="#DejaVuSans-69" transform="translate(2093.404297 0)"/>
      <use xlink:href="#DejaVuSans-74" transform="translate(2121.1875 0)"/>
      <use xlink:href="#DejaVuSans-65" transform="translate(2160.396484 0)"/>
     </g>
    </g>
   </g>
  </g>
 </g>
 <defs>
  <clipPath id="p8111312551">
   <rect x="7.2" y="7.2" width="558" height="138.6"/>
  </clipPath>
 </defs>
</svg>
