<?xml version="1.0" encoding="utf-8" standalone="no"?>
<!DOCTYPE svg PUBLIC "-//W3C//DTD SVG 1.1//EN"
  "http://www.w3.org/Graphics/SVG/1.1/DTD/svg11.dtd">
<svg xmlns:xlink="http://www.w3.org/1999/xlink" width="547.0025pt" height="546.7925pt" viewBox="0 0 547.0025 546.7925" xmlns="http://www.w3.org/2000/svg" version="1.1">
 <metadata>
  <rdf:RDF xmlns:dc="http://purl.org/dc/elements/1.1/" xmlns:cc="http://creativecommons.org/ns#" xmlns:rdf="http://www.w3.org/1999/02/22-rdf-syntax-ns#">
   <cc:Work>
    <dc:type rdf:resource="http://purl.org/dc/dcmitype/StillImage"/>
    <dc:date>2026-04-28T14:48:44.577486</dc:date>
    <dc:format>image/svg+xml</dc:format>
    <dc:creator>
     <cc:Agent>
      <dc:title>Matplotlib v3.10.5, https://matplotlib.org/</dc:title>
     </cc:Agent>
    </dc:creator>
   </cc:Work>
  </rdf:RDF>
 </metadata>
 <defs>
  <style type="text/css">*{stroke-linejoin: round; stroke-linecap: butt}</style>
 </defs>
 <g id="figure_1">
  <g id="patch_1">
   <path d="M 0 546.7925 
L 547.0025 546.7925 
L 547.0025 0 
L 0 0 
z
" style="fill: #ffffff"/>
  </g>
  <g id="axes_1">
   <g id="patch_2">
    <path d="M 69.3625 489.88 
L 539.8025 489.88 
L 539.8025 7.2 
L 69.3625 7.2 
z
" style="fill: #ffffff"/>
   </g>
   <g id="matplotlib.axis_1">
    <g id="xtick_1">
     <g id="text_1">
      <!-- 0.0 -->
      <g style="fill: #262626" transform="translate(74.843011 512.076875) scale(0.2 -0.2)">
       <defs>
        <path id="DejaVuSans-30" d="M 2034 4250 
Q 1547 4250 1301 3770 
Q 1056 3291 1056 2328 
Q 1056 1369 1301 889 
Q 1547 409 2034 409 
Q 2525 409 2770 889 
Q 3016 1369 3016 2328 
Q 3016 3291 2770 3770 
Q 2525 4250 2034 4250 
z
M 2034 4750 
Q 2819 4750 3233 4129 
Q 3647 3509 3647 2328 
Q 3647 1150 3233 529 
Q 2819 -91 2034 -91 
Q 1250 -91 836 529 
Q 422 1150 422 2328 
Q 422 3509 836 4129 
Q 1250 4750 2034 4750 
z
" transform="scale(0.015625)"/>
        <path id="DejaVuSans-2e" d="M 684 794 
L 1344 794 
L 1344 0 
L 684 0 
L 684 794 
z
" transform="scale(0.015625)"/>
       </defs>
       <use xlink:href="#DejaVuSans-30"/>
       <use xlink:href="#DejaVuSans-2e" transform="translate(63.623047 0)"/>
       <use xlink:href="#DejaVuSans-30" transform="translate(95.410156 0)"/>
      </g>
     </g>
    </g>
    <g id="xtick_2">
     <g id="text_2">
      <!-- 0.2 -->
      <g style="fill: #262626" transform="translate(160.377557 512.076875) scale(0.2 -0.2)">
       <defs>
        <path id="DejaVuSans-32" d="M 1228 531 
L 3431 531 
L 3431 0 
L 469 0 
L 469 531 
Q 828 903 1448 1529 
Q 2069 2156 2228 2338 
Q 2531 2678 2651 2914 
Q 2772 3150 2772 3378 
Q 2772 3750 2511 3984 
Q 2250 4219 1831 4219 
Q 1534 4219 1204 4116 
Q 875 4013 500 3803 
L 500 4441 
Q 881 4594 1212 4672 
Q 1544 4750 1819 4750 
Q 2544 4750 2975 4387 
Q 3406 4025 3406 3419 
Q 3406 3131 3298 2873 
Q 3191 2616 2906 2266 
Q 2828 2175 2409 1742 
Q 1991 1309 1228 531 
z
" transform="scale(0.015625)"/>
       </defs>
       <use xlink:href="#DejaVuSans-30"/>
       <use xlink:href="#DejaVuSans-2e" transform="translate(63.623047 0)"/>
       <use xlink:href="#DejaVuSans-32" transform="translate(95.410156 0)"/>
      </g>
     </g>
    </g>
    <g id="xtick_3">
     <g id="text_3">
      <!-- 0.4 -->
      <g style="fill: #262626" transform="translate(245.912102 512.076875) scale(0.2 -0.2)">
       <defs>
        <path id="DejaVuSans-34" d="M 2419 4116 
L 825 1625 
L 2419 1625 
L 2419 4116 
z
M 2253 4666 
L 3047 4666 
L 3047 1625 
L 3713 1625 
L 3713 1100 
L 3047 1100 
L 3047 0 
L 2419 0 
L 2419 1100 
L 313 1100 
L 313 1709 
L 2253 4666 
z
" transform="scale(0.015625)"/>
       </defs>
       <use xlink:href="#DejaVuSans-30"/>
       <use xlink:href="#DejaVuSans-2e" transform="translate(63.623047 0)"/>
       <use xlink:href="#DejaVuSans-34" transform="translate(95.410156 0)"/>
      </g>
     </g>
    </g>
    <g id="xtick_4">
     <g id="text_4">
      <!-- 0.6 -->
      <g style="fill: #262626" transform="translate(331.446648 512.076875) scale(0.2 -0.2)">
       <defs>
        <path id="DejaVuSans-36" d="M 2113 2584 
Q 1688 2584 1439 2293 
Q 1191 2003 1191 1497 
Q 1191 994 1439 701 
Q 1688 409 2113 409 
Q 2538 409 2786 701 
Q 3034 994 3034 1497 
Q 3034 2003 2786 2293 
Q 2538 2584 2113 2584 
z
M 3366 4563 
L 3366 3988 
Q 3128 4100 2886 4159 
Q 2644 4219 2406 4219 
Q 1781 4219 1451 3797 
Q 1122 3375 1075 2522 
Q 1259 2794 1537 2939 
Q 1816 3084 2150 3084 
Q 2853 3084 3261 2657 
Q 3669 2231 3669 1497 
Q 3669 778 3244 343 
Q 2819 -91 2113 -91 
Q 1303 -91 875 529 
Q 447 1150 447 2328 
Q 447 3434 972 4092 
Q 1497 4750 2381 4750 
Q 2619 4750 2861 4703 
Q 3103 4656 3366 4563 
z
" transform="scale(0.015625)"/>
       </defs>
       <use xlink:href="#DejaVuSans-30"/>
       <use xlink:href="#DejaVuSans-2e" transform="translate(63.623047 0)"/>
       <use xlink:href="#DejaVuSans-36" transform="translate(95.410156 0)"/>
      </g>
     </g>
    </g>
    <g id="xtick_5">
     <g id="text_5">
      <!-- 0.8 -->
      <g style="fill: #262626" transform="translate(416.981193 512.076875) scale(0.2 -0.2)">
       <defs>
        <path id="DejaVuSans-38" d="M 2034 2216 
Q 1584 2216 1326 1975 
Q 1069 1734 1069 1313 
Q 1069 891 1326 650 
Q 1584 409 2034 409 
Q 2484 409 2743 651 
Q 3003 894 3003 1313 
Q 3003 1734 2745 1975 
Q 2488 2216 2034 2216 
z
M 1403 2484 
Q 997 2584 770 2862 
Q 544 3141 544 3541 
Q 544 4100 942 4425 
Q 1341 4750 2034 4750 
Q 2731 4750 3128 4425 
Q 3525 4100 3525 3541 
Q 3525 3141 3298 2862 
Q 3072 2584 2669 2484 
Q 3125 2378 3379 2068 
Q 3634 1759 3634 1313 
Q 3634 634 3220 271 
Q 2806 -91 2034 -91 
Q 1263 -91 848 271 
Q 434 634 434 1313 
Q 434 1759 690 2068 
Q 947 2378 1403 2484 
z
M 1172 3481 
Q 1172 3119 1398 2916 
Q 1625 2713 2034 2713 
Q 2441 2713 2670 2916 
Q 2900 3119 2900 3481 
Q 2900 3844 2670 4047 
Q 2441 4250 2034 4250 
Q 1625 4250 1398 4047 
Q 1172 3844 1172 3481 
z
" transform="scale(0.015625)"/>
       </defs>
       <use xlink:href="#DejaVuSans-30"/>
       <use xlink:href="#DejaVuSans-2e" transform="translate(63.623047 0)"/>
       <use xlink:href="#DejaVuSans-38" transform="translate(95.410156 0)"/>
      </g>
     </g>
    </g>
    <g id="xtick_6">
     <g id="text_6">
      <!-- 1.0 -->
      <g style="fill: #262626" transform="translate(502.515739 512.076875) scale(0.2 -0.2)">
       <defs>
        <path id="DejaVuSans-31" d="M 794 531 
L 1825 531 
L 1825 4091 
L 703 3866 
L 703 4441 
L 1819 4666 
L 2450 4666 
L 2450 531 
L 3481 531 
L 3481 0 
L 794 0 
L 794 531 
z
" transform="scale(0.015625)"/>
       </defs>
       <use xlink:href="#DejaVuSans-31"/>
       <use xlink:href="#DejaVuSans-2e" transform="translate(63.623047 0)"/>
       <use xlink:href="#DejaVuSans-30" transform="translate(95.410156 0)"/>
      </g>
     </g>
    </g>
    <g id="text_7">
     <!-- False positive rate -->
     <g style="fill: #262626" transform="translate(213.580937 535.433125) scale(0.2 -0.2)">
      <defs>
       <path id="DejaVuSans-46" d="M 628 4666 
L 3309 4666 
L 3309 4134 
L 1259 4134 
L 1259 2759 
L 3109 2759 
L 3109 2228 
L 1259 2228 
L 1259 0 
L 628 0 
L 628 4666 
z
" transform="scale(0.015625)"/>
       <path id="DejaVuSans-61" d="M 2194 1759 
Q 1497 1759 1228 1600 
Q 959 1441 959 1056 
Q 959 750 1161 570 
Q 1363 391 1709 391 
Q 2188 391 2477 730 
Q 2766 1069 2766 1631 
L 2766 1759 
L 2194 1759 
z
M 3341 1997 
L 3341 0 
L 2766 0 
L 2766 531 
Q 2569 213 2275 61 
Q 1981 -91 1556 -91 
Q 1019 -91 701 211 
Q 384 513 384 1019 
Q 384 1609 779 1909 
Q 1175 2209 1959 2209 
L 2766 2209 
L 2766 2266 
Q 2766 2663 2505 2880 
Q 2244 3097 1772 3097 
Q 1472 3097 1187 3025 
Q 903 2953 641 2809 
L 641 3341 
Q 956 3463 1253 3523 
Q 1550 3584 1831 3584 
Q 2591 3584 2966 3190 
Q 3341 2797 3341 1997 
z
" transform="scale(0.015625)"/>
       <path id="DejaVuSans-6c" d="M 603 4863 
L 1178 4863 
L 1178 0 
L 603 0 
L 603 4863 
z
" transform="scale(0.015625)"/>
       <path id="DejaVuSans-73" d="M 2834 3397 
L 2834 2853 
Q 2591 2978 2328 3040 
Q 2066 3103 1784 3103 
Q 1356 3103 1142 2972 
Q 928 2841 928 2578 
Q 928 2378 1081 2264 
Q 1234 2150 1697 2047 
L 1894 2003 
Q 2506 1872 2764 1633 
Q 3022 1394 3022 966 
Q 3022 478 2636 193 
Q 2250 -91 1575 -91 
Q 1294 -91 989 -36 
Q 684 19 347 128 
L 347 722 
Q 666 556 975 473 
Q 1284 391 1588 391 
Q 1994 391 2212 530 
Q 2431 669 2431 922 
Q 2431 1156 2273 1281 
Q 2116 1406 1581 1522 
L 1381 1569 
Q 847 1681 609 1914 
Q 372 2147 372 2553 
Q 372 3047 722 3315 
Q 1072 3584 1716 3584 
Q 2034 3584 2315 3537 
Q 2597 3491 2834 3397 
z
" transform="scale(0.015625)"/>
       <path id="DejaVuSans-65" d="M 3597 1894 
L 3597 1613 
L 953 1613 
Q 991 1019 1311 708 
Q 1631 397 2203 397 
Q 2534 397 2845 478 
Q 3156 559 3463 722 
L 3463 178 
Q 3153 47 2828 -22 
Q 2503 -91 2169 -91 
Q 1331 -91 842 396 
Q 353 884 353 1716 
Q 353 2575 817 3079 
Q 1281 3584 2069 3584 
Q 2775 3584 3186 3129 
Q 3597 2675 3597 1894 
z
M 3022 2063 
Q 3016 2534 2758 2815 
Q 2500 3097 2075 3097 
Q 1594 3097 1305 2825 
Q 1016 2553 972 2059 
L 3022 2063 
z
" transform="scale(0.015625)"/>
       <path id="DejaVuSans-20" transform="scale(0.015625)"/>
       <path id="DejaVuSans-70" d="M 1159 525 
L 1159 -1331 
L 581 -1331 
L 581 3500 
L 1159 3500 
L 1159 2969 
Q 1341 3281 1617 3432 
Q 1894 3584 2278 3584 
Q 2916 3584 3314 3078 
Q 3713 2572 3713 1747 
Q 3713 922 3314 415 
Q 2916 -91 2278 -91 
Q 1894 -91 1617 61 
Q 1341 213 1159 525 
z
M 3116 1747 
Q 3116 2381 2855 2742 
Q 2594 3103 2138 3103 
Q 1681 3103 1420 2742 
Q 1159 2381 1159 1747 
Q 1159 1113 1420 752 
Q 1681 391 2138 391 
Q 2594 391 2855 752 
Q 3116 1113 3116 1747 
z
" transform="scale(0.015625)"/>
       <path id="DejaVuSans-6f" d="M 1959 3097 
Q 1497 3097 1228 2736 
Q 959 2375 959 1747 
Q 959 1119 1226 758 
Q 1494 397 1959 397 
Q 2419 397 2687 759 
Q 2956 1122 2956 1747 
Q 2956 2369 2687 2733 
Q 2419 3097 1959 3097 
z
M 1959 3584 
Q 2709 3584 3137 3096 
Q 3566 2609 3566 1747 
Q 3566 888 3137 398 
Q 2709 -91 1959 -91 
Q 1206 -91 779 398 
Q 353 888 353 1747 
Q 353 2609 779 3096 
Q 1206 3584 1959 3584 
z
" transform="scale(0.015625)"/>
       <path id="DejaVuSans-69" d="M 603 3500 
L 1178 3500 
L 1178 0 
L 603 0 
L 603 3500 
z
M 603 4863 
L 1178 4863 
L 1178 4134 
L 603 4134 
L 603 4863 
z
" transform="scale(0.015625)"/>
       <path id="DejaVuSans-74" d="M 1172 4494 
L 1172 3500 
L 2356 3500 
L 2356 3053 
L 1172 3053 
L 1172 1153 
Q 1172 725 1289 603 
Q 1406 481 1766 481 
L 2356 481 
L 2356 0 
L 1766 0 
Q 1100 0 847 248 
Q 594 497 594 1153 
L 594 3053 
L 172 3053 
L 172 3500 
L 594 3500 
L 594 4494 
L 1172 4494 
z
" transform="scale(0.015625)"/>
       <path id="DejaVuSans-76" d="M 191 3500 
L 800 3500 
L 1894 563 
L 2988 3500 
L 3597 3500 
L 2284 0 
L 1503 0 
L 191 3500 
z
" transform="scale(0.015625)"/>
       <path id="DejaVuSans-72" d="M 2631 2963 
Q 2534 3019 2420 3045 
Q 2306 3072 2169 3072 
Q 1681 3072 1420 2755 
Q 1159 2438 1159 1844 
L 1159 0 
L 581 0 
L 581 3500 
L 1159 3500 
L 1159 2956 
Q 1341 3275 1631 3429 
Q 1922 3584 2338 3584 
Q 2397 3584 2469 3576 
Q 2541 3569 2628 3553 
L 2631 2963 
z
" transform="scale(0.015625)"/>
      </defs>
      <use xlink:href="#DejaVuSans-46"/>
      <use xlink:href="#DejaVuSans-61" transform="translate(48.394531 0)"/>
      <use xlink:href="#DejaVuSans-6c" transform="translate(109.673828 0)"/>
      <use xlink:href="#DejaVuSans-73" transform="translate(137.457031 0)"/>
      <use xlink:href="#DejaVuSans-65" transform="translate(189.556641 0)"/>
      <use xlink:href="#DejaVuSans-20" transform="translate(251.080078 0)"/>
      <use xlink:href="#DejaVuSans-70" transform="translate(282.867188 0)"/>
      <use xlink:href="#DejaVuSans-6f" transform="translate(346.34375 0)"/>
      <use xlink:href="#DejaVuSans-73" transform="translate(407.525391 0)"/>
      <use xlink:href="#DejaVuSans-69" transform="translate(459.625 0)"/>
      <use xlink:href="#DejaVuSans-74" transform="translate(487.408203 0)"/>
      <use xlink:href="#DejaVuSans-69" transform="translate(526.617188 0)"/>
      <use xlink:href="#DejaVuSans-76" transform="translate(554.400391 0)"/>
      <use xlink:href="#DejaVuSans-65" transform="translate(613.580078 0)"/>
      <use xlink:href="#DejaVuSans-20" transform="translate(675.103516 0)"/>
      <use xlink:href="#DejaVuSans-72" transform="translate(706.890625 0)"/>
      <use xlink:href="#DejaVuSans-61" transform="translate(748.003906 0)"/>
      <use xlink:href="#DejaVuSans-74" transform="translate(809.283203 0)"/>
      <use xlink:href="#DejaVuSans-65" transform="translate(848.492188 0)"/>
     </g>
    </g>
   </g>
   <g id="matplotlib.axis_2">
    <g id="ytick_1">
     <g id="text_8">
      <!-- 0.0 -->
      <g style="fill: #262626" transform="translate(30.55625 475.538437) scale(0.2 -0.2)">
       <use xlink:href="#DejaVuSans-30"/>
       <use xlink:href="#DejaVuSans-2e" transform="translate(63.623047 0)"/>
       <use xlink:href="#DejaVuSans-30" transform="translate(95.410156 0)"/>
      </g>
     </g>
    </g>
    <g id="ytick_2">
     <g id="text_9">
      <!-- 0.2 -->
      <g style="fill: #262626" transform="translate(30.55625 387.778437) scale(0.2 -0.2)">
       <use xlink:href="#DejaVuSans-30"/>
       <use xlink:href="#DejaVuSans-2e" transform="translate(63.623047 0)"/>
       <use xlink:href="#DejaVuSans-32" transform="translate(95.410156 0)"/>
      </g>
     </g>
    </g>
    <g id="ytick_3">
     <g id="text_10">
      <!-- 0.4 -->
      <g style="fill: #262626" transform="translate(30.55625 300.018437) scale(0.2 -0.2)">
       <use xlink:href="#DejaVuSans-30"/>
       <use xlink:href="#DejaVuSans-2e" transform="translate(63.623047 0)"/>
       <use xlink:href="#DejaVuSans-34" transform="translate(95.410156 0)"/>
      </g>
     </g>
    </g>
    <g id="ytick_4">
     <g id="text_11">
      <!-- 0.6 -->
      <g style="fill: #262626" transform="translate(30.55625 212.258437) scale(0.2 -0.2)">
       <use xlink:href="#DejaVuSans-30"/>
       <use xlink:href="#DejaVuSans-2e" transform="translate(63.623047 0)"/>
       <use xlink:href="#DejaVuSans-36" transform="translate(95.410156 0)"/>
      </g>
     </g>
    </g>
    <g id="ytick_5">
     <g id="text_12">
      <!-- 0.8 -->
      <g style="fill: #262626" transform="translate(30.55625 124.498437) scale(0.2 -0.2)">
       <use xlink:href="#DejaVuSans-30"/>
       <use xlink:href="#DejaVuSans-2e" transform="translate(63.623047 0)"/>
       <use xlink:href="#DejaVuSans-38" transform="translate(95.410156 0)"/>
      </g>
     </g>
    </g>
    <g id="ytick_6">
     <g id="text_13">
      <!-- 1.0 -->
      <g style="fill: #262626" transform="translate(30.55625 36.738437) scale(0.2 -0.2)">
       <use xlink:href="#DejaVuSans-31"/>
       <use xlink:href="#DejaVuSans-2e" transform="translate(63.623047 0)"/>
       <use xlink:href="#DejaVuSans-30" transform="translate(95.410156 0)"/>
      </g>
     </g>
    </g>
    <g id="text_14">
     <!-- True positive rate -->
     <g style="fill: #262626" transform="translate(22.396875 335.668125) rotate(-90) scale(0.2 -0.2)">
      <defs>
       <path id="DejaVuSans-54" d="M -19 4666 
L 3928 4666 
L 3928 4134 
L 2272 4134 
L 2272 0 
L 1638 0 
L 1638 4134 
L -19 4134 
L -19 4666 
z
" transform="scale(0.015625)"/>
       <path id="DejaVuSans-75" d="M 544 1381 
L 544 3500 
L 1119 3500 
L 1119 1403 
Q 1119 906 1312 657 
Q 1506 409 1894 409 
Q 2359 409 2629 706 
Q 2900 1003 2900 1516 
L 2900 3500 
L 3475 3500 
L 3475 0 
L 2900 0 
L 2900 538 
Q 2691 219 2414 64 
Q 2138 -91 1772 -91 
Q 1169 -91 856 284 
Q 544 659 544 1381 
z
M 1991 3584 
L 1991 3584 
z
" transform="scale(0.015625)"/>
      </defs>
      <use xlink:href="#DejaVuSans-54"/>
      <use xlink:href="#DejaVuSans-72" transform="translate(46.333984 0)"/>
      <use xlink:href="#DejaVuSans-75" transform="translate(87.447266 0)"/>
      <use xlink:href="#DejaVuSans-65" transform="translate(150.826172 0)"/>
      <use xlink:href="#DejaVuSans-20" transform="translate(212.349609 0)"/>
      <use xlink:href="#DejaVuSans-70" transform="translate(244.136719 0)"/>
      <use xlink:href="#DejaVuSans-6f" transform="translate(307.613281 0)"/>
      <use xlink:href="#DejaVuSans-73" transform="translate(368.794922 0)"/>
      <use xlink:href="#DejaVuSans-69" transform="translate(420.894531 0)"/>
      <use xlink:href="#DejaVuSans-74" transform="translate(448.677734 0)"/>
      <use xlink:href="#DejaVuSans-69" transform="translate(487.886719 0)"/>
      <use xlink:href="#DejaVuSans-76" transform="translate(515.669922 0)"/>
      <use xlink:href="#DejaVuSans-65" transform="translate(574.849609 0)"/>
      <use xlink:href="#DejaVuSans-20" transform="translate(636.373047 0)"/>
      <use xlink:href="#DejaVuSans-72" transform="translate(668.160156 0)"/>
      <use xlink:href="#DejaVuSans-61" transform="translate(709.273438 0)"/>
      <use xlink:href="#DejaVuSans-74" transform="translate(770.552734 0)"/>
      <use xlink:href="#DejaVuSans-65" transform="translate(809.761719 0)"/>
     </g>
    </g>
   </g>
   <g id="line2d_1">
    <path d="M 90.746136 467.94 
L 90.746136 447.654842 
L 90.922715 447.654842 
L 90.922715 394.272847 
L 91.099293 394.272847 
L 91.099293 384.664088 
L 91.275871 384.664088 
L 91.275871 373.987689 
L 91.45245 373.987689 
L 91.45245 324.876253 
L 91.629028 324.876253 
L 91.629028 300.320535 
L 91.805606 288.576496 
L 91.805606 261.885499 
L 91.982185 261.885499 
L 91.982185 234.126861 
L 92.158763 221.315182 
L 92.158763 79.319075 
L 92.335341 79.319075 
L 92.335341 75.048516 
L 92.865076 75.048516 
L 92.865076 69.710316 
L 93.394811 69.710316 
L 93.394811 67.575036 
L 93.924546 67.575036 
L 93.924546 64.372117 
L 95.160595 64.372117 
L 95.160595 60.101557 
L 95.337173 60.101557 
L 95.337173 57.966277 
L 97.102956 57.966277 
L 97.102956 56.898637 
L 97.279535 56.898637 
L 97.279535 54.763358 
L 97.632691 54.763358 
L 97.632691 52.628078 
L 98.515583 52.628078 
L 98.515583 50.492798 
L 100.811101 50.492798 
L 100.811101 49.425158 
L 105.402138 49.425158 
L 105.402138 48.357518 
L 106.638187 48.357518 
L 106.638187 47.289878 
L 109.993175 47.289878 
L 109.993175 46.222238 
L 116.87973 46.222238 
L 116.87973 45.154599 
L 118.645513 45.154599 
L 120.05814 41.951679 
L 122.883393 41.951679 
L 122.883393 40.884039 
L 128.710478 40.884039 
L 128.710478 39.816399 
L 140.364648 39.816399 
L 140.364648 34.4782 
L 174.620845 34.4782 
L 174.797424 33.41056 
L 181.507401 33.41056 
L 181.507401 32.34292 
L 227.241189 32.34292 
L 227.241189 31.27528 
L 283.039943 31.27528 
L 283.039943 30.20764 
L 339.368432 30.20764 
L 339.368432 29.14 
L 518.418864 29.14 
L 518.418864 29.14 
" clip-path="url(#pdf6d0e2c1f)" style="fill: none; stroke: #1f77b4; stroke-width: 2; stroke-linecap: round"/>
   </g>
   <g id="line2d_2">
    <path d="M 90.746136 467.94 
L 90.746136 466.87236 
L 90.922715 466.87236 
L 90.922715 459.398881 
L 91.099293 459.398881 
L 91.099293 391.069927 
L 91.275871 377.190608 
L 91.275871 271.494258 
L 91.45245 261.885499 
L 91.45245 255.479659 
L 91.629028 255.479659 
L 91.629028 241.600341 
L 91.805606 241.600341 
L 91.805606 234.126861 
L 91.982185 234.126861 
L 91.982185 196.759465 
L 92.158763 196.759465 
L 92.158763 155.121509 
L 92.335341 155.121509 
L 92.335341 149.783309 
L 92.51192 149.783309 
L 92.51192 119.889392 
L 92.688498 119.889392 
L 92.688498 106.010073 
L 92.865076 106.010073 
L 92.865076 94.266034 
L 93.218233 94.266034 
L 93.218233 93.198394 
L 93.394811 93.198394 
L 93.394811 89.995474 
L 93.57139 89.995474 
L 93.57139 87.860195 
L 93.924546 87.860195 
L 93.924546 86.792555 
L 94.101125 86.792555 
L 94.101125 85.724915 
L 94.454281 85.724915 
L 94.454281 83.589635 
L 94.984016 83.589635 
L 94.984016 82.521995 
L 96.220065 82.521995 
L 96.220065 81.454355 
L 99.575053 81.454355 
L 99.575053 79.319075 
L 100.98768 79.319075 
L 100.98768 77.183796 
L 102.753463 77.183796 
L 102.753463 76.116156 
L 103.812933 76.116156 
L 103.812933 75.048516 
L 108.050813 75.048516 
L 108.050813 73.980876 
L 108.757127 73.980876 
L 108.757127 72.913236 
L 109.110283 72.913236 
L 109.110283 71.845596 
L 109.286862 70.777956 
L 124.119442 70.777956 
L 124.119442 65.439757 
L 127.297852 65.439757 
L 127.297852 64.372117 
L 130.65284 64.372117 
L 130.65284 62.236837 
L 131.182575 62.236837 
L 131.182575 61.169197 
L 131.71231 61.169197 
L 131.71231 54.763358 
L 131.888888 54.763358 
L 131.888888 53.695718 
L 134.184407 53.695718 
L 134.184407 52.628078 
L 136.656503 52.628078 
L 136.656503 51.560438 
L 140.011492 51.560438 
L 140.011492 50.492798 
L 150.253035 50.492798 
L 150.253035 48.357518 
L 155.903542 48.357518 
L 155.903542 47.289878 
L 187.157907 47.289878 
L 187.157907 46.222238 
L 198.282342 46.222238 
L 198.282342 44.086959 
L 215.763598 44.086959 
L 215.763598 41.951679 
L 221.060948 41.951679 
L 221.060948 39.816399 
L 246.488228 39.816399 
L 247.900854 36.613479 
L 264.499218 36.613479 
L 264.499218 35.545839 
L 277.566015 35.545839 
L 277.566015 34.4782 
L 312.351947 34.4782 
L 312.351947 33.41056 
L 400.111379 33.41056 
L 400.111379 32.34292 
L 401.700584 32.34292 
L 401.700584 31.27528 
L 409.470031 31.27528 
L 409.470031 30.20764 
L 458.558808 30.20764 
L 458.558808 29.14 
L 518.418864 29.14 
L 518.418864 29.14 
" clip-path="url(#pdf6d0e2c1f)" style="fill: none; stroke: #ff7f0e; stroke-width: 2; stroke-linecap: round"/>
   </g>
   <g id="line2d_3">
    <path d="M 90.746136 467.94 
L 90.746136 464.73708 
L 91.275871 464.73708 
L 91.275871 445.519562 
L 94.807438 443.384282 
L 94.807438 436.978443 
L 94.984016 434.843163 
L 95.160595 434.843163 
L 95.160595 432.707883 
L 95.337173 432.707883 
L 95.337173 431.640243 
L 95.513751 431.640243 
L 95.69033 429.504964 
L 98.692161 429.504964 
L 98.86874 428.437324 
L 99.045318 428.437324 
L 99.045318 427.369684 
L 99.398475 427.369684 
L 99.92821 423.099124 
L 99.92821 422.031484 
L 102.576885 420.963844 
L 102.576885 419.896204 
L 102.930041 418.828564 
L 104.16609 418.828564 
L 104.16609 412.422725 
L 109.816597 410.287445 
L 110.346332 409.219805 
L 110.346332 407.084526 
L 110.876067 404.949246 
L 111.052645 404.949246 
L 111.052645 401.746326 
L 111.405802 396.408127 
L 111.758958 396.408127 
L 111.758958 382.528808 
L 112.112115 381.461168 
L 112.112115 377.190608 
L 112.288693 377.190608 
L 113.171585 373.987689 
L 113.171585 372.920049 
L 113.348163 372.920049 
L 113.348163 364.378929 
L 113.524742 364.378929 
L 113.524742 362.24365 
L 113.70132 362.24365 
L 113.877898 357.97309 
L 114.054477 357.97309 
L 114.407633 356.90545 
L 114.407633 352.634891 
L 114.937368 352.634891 
L 114.937368 346.229051 
L 115.113947 346.229051 
L 115.113947 341.958491 
L 115.290525 341.958491 
L 115.290525 337.687932 
L 115.467103 329.146813 
L 115.643682 329.146813 
L 115.643682 328.079173 
L 115.996838 328.079173 
L 115.996838 327.011533 
L 116.526573 327.011533 
L 116.526573 323.808613 
L 116.703152 323.808613 
L 116.703152 321.673333 
L 116.87973 321.673333 
L 116.87973 320.605693 
L 117.056308 320.605693 
L 117.056308 319.538054 
L 117.232887 319.538054 
L 117.232887 272.561898 
L 117.762622 272.561898 
L 117.762622 265.088418 
L 117.9392 265.088418 
L 118.292357 253.34438 
L 118.645513 253.34438 
L 118.645513 252.27674 
L 119.175248 252.27674 
L 119.351827 250.14146 
L 119.351827 248.00618 
L 119.704983 243.73562 
L 119.704983 240.532701 
L 119.881562 240.532701 
L 119.881562 238.397421 
L 120.05814 238.397421 
L 120.05814 236.262141 
L 120.234718 236.262141 
L 120.234718 235.194501 
L 120.411297 233.059221 
L 120.941032 233.059221 
L 121.11761 231.991582 
L 121.11761 230.923942 
L 121.294188 227.721022 
L 121.647345 227.721022 
L 121.823923 225.585742 
L 121.823923 223.450462 
L 122.000502 222.382822 
L 122.000502 212.774063 
L 122.17708 212.774063 
L 123.059972 211.706423 
L 123.059972 206.368224 
L 123.23655 206.368224 
L 123.23655 199.962384 
L 123.413128 199.962384 
L 123.413128 198.894745 
L 124.472598 198.894745 
L 124.649177 197.827105 
L 124.649177 194.624185 
L 125.708647 194.624185 
L 125.708647 183.947786 
L 126.238382 183.947786 
L 126.41496 179.677226 
L 129.063635 177.541946 
L 129.063635 176.474307 
L 129.240213 176.474307 
L 129.240213 172.203747 
L 129.59337 148.715669 
L 129.59337 146.580389 
L 130.123105 146.580389 
L 130.123105 145.512749 
L 130.299683 145.512749 
L 130.299683 144.445109 
L 131.005997 144.445109 
L 131.005997 138.03927 
L 133.301515 138.03927 
L 133.83125 136.97163 
L 134.89072 136.97163 
L 135.067298 130.565791 
L 135.773612 129.498151 
L 135.773612 128.430511 
L 137.539395 128.430511 
L 137.539395 127.362871 
L 137.892552 127.362871 
L 137.892552 125.227591 
L 138.06913 123.092311 
L 138.952022 123.092311 
L 138.952022 122.024672 
L 139.1286 122.024672 
L 139.1286 120.957032 
L 139.305178 120.957032 
L 139.305178 118.821752 
L 139.834913 118.821752 
L 139.834913 112.415912 
L 140.011492 112.415912 
L 140.011492 102.807153 
L 141.424118 102.807153 
L 141.424118 101.739513 
L 141.953854 101.739513 
L 141.953854 100.671873 
L 144.072794 100.671873 
L 144.072794 98.536594 
L 144.249372 97.468954 
L 145.132264 97.468954 
L 145.132264 96.401314 
L 145.308842 95.333674 
L 146.54489 95.333674 
L 146.54489 94.266034 
L 146.721469 94.266034 
L 146.898047 93.198394 
L 147.427782 93.198394 
L 147.427782 91.063114 
L 149.899879 91.063114 
L 149.899879 87.860195 
L 150.076457 86.792555 
L 150.076457 85.724915 
L 151.84224 85.724915 
L 151.84224 84.657275 
L 152.548554 84.657275 
L 153.608024 79.319075 
L 154.137759 79.319075 
L 155.373807 78.251436 
L 155.903542 78.251436 
L 156.08012 76.116156 
L 156.786434 76.116156 
L 156.786434 75.048516 
L 157.316169 75.048516 
L 157.316169 73.980876 
L 159.435109 73.980876 
L 159.435109 69.710316 
L 161.37747 69.710316 
L 162.083784 68.642676 
L 162.260362 68.642676 
L 162.260362 65.439757 
L 162.790097 64.372117 
L 167.910869 64.372117 
L 167.910869 63.304477 
L 169.323495 63.304477 
L 169.323495 62.236837 
L 169.500074 61.169197 
L 178.682147 61.169197 
L 178.682147 60.101557 
L 179.565039 60.101557 
L 179.565039 57.966277 
L 179.741617 56.898637 
L 182.743449 56.898637 
L 182.743449 54.763358 
L 186.275016 54.763358 
L 186.275016 52.628078 
L 189.806582 52.628078 
L 189.983161 51.560438 
L 190.689474 49.425158 
L 195.633667 49.425158 
L 195.633667 47.289878 
L 197.399451 47.289878 
L 199.165234 46.222238 
L 201.637331 46.222238 
L 203.756271 43.019319 
L 204.639162 43.019319 
L 204.639162 41.951679 
L 220.178056 41.951679 
L 220.707791 40.884039 
L 224.239358 40.884039 
L 224.945671 39.816399 
L 238.365624 39.816399 
L 238.542203 38.748759 
L 266.088423 38.748759 
L 274.564183 37.681119 
L 298.578837 37.681119 
L 299.814885 36.613479 
L 323.65296 36.613479 
L 325.418744 35.545839 
L 453.967771 35.545839 
L 456.969603 33.41056 
L 461.913796 32.34292 
L 482.043727 32.34292 
L 485.575293 31.27528 
L 488.400547 31.27528 
L 491.755535 30.20764 
L 498.288933 30.20764 
L 499.524982 29.14 
L 518.418864 29.14 
L 518.418864 29.14 
" clip-path="url(#pdf6d0e2c1f)" style="fill: none; stroke: #2ca02c; stroke-width: 2; stroke-linecap: round"/>
   </g>
   <g id="line2d_4">
    <path d="M 90.746136 467.94 
L 518.418864 29.14 
" clip-path="url(#pdf6d0e2c1f)" style="fill: none; stroke-dasharray: 3.7,1.6; stroke-dashoffset: 0; stroke: #000000"/>
   </g>
   <g id="patch_3">
    <path d="M 69.3625 489.88 
L 69.3625 7.2 
" style="fill: none; stroke: #262626; stroke-width: 0.8; stroke-linejoin: miter; stroke-linecap: square"/>
   </g>
   <g id="patch_4">
    <path d="M 539.8025 489.88 
L 539.8025 7.2 
" style="fill: none; stroke: #262626; stroke-width: 0.8; stroke-linejoin: miter; stroke-linecap: square"/>
   </g>
   <g id="patch_5">
    <path d="M 69.3625 489.88 
L 539.8025 489.88 
" style="fill: none; stroke: #262626; stroke-width: 0.8; stroke-linejoin: miter; stroke-linecap: square"/>
   </g>
   <g id="patch_6">
    <path d="M 69.3625 7.2 
L 539.8025 7.2 
" style="fill: none; stroke: #262626; stroke-width: 0.8; stroke-linejoin: miter; stroke-linecap: square"/>
   </g>
   <g id="legend_1">
    <g id="patch_7">
     <path d="M 312.855 481.88 
L 528.6025 481.88 
Q 531.8025 481.88 531.8025 478.68 
L 531.8025 409.825 
Q 531.8025 406.625 528.6025 406.625 
L 312.855 406.625 
Q 309.655 406.625 309.655 409.825 
L 309.655 478.68 
Q 309.655 481.88 312.855 481.88 
z
" style="fill: #ffffff; opacity: 0.8; stroke: #cccccc; stroke-linejoin: miter"/>
    </g>
    <g id="line2d_5">
     <path d="M 316.055 419.5825 
L 332.055 419.5825 
L 348.055 419.5825 
" style="fill: none; stroke: #1f77b4; stroke-width: 2; stroke-linecap: round"/>
    </g>
    <g id="text_15">
     <!-- SVM (AUC = 0.990) -->
     <g style="fill: #262626" transform="translate(360.855 425.1825) scale(0.16 -0.16)">
      <defs>
       <path id="DejaVuSans-53" d="M 3425 4513 
L 3425 3897 
Q 3066 4069 2747 4153 
Q 2428 4238 2131 4238 
Q 1616 4238 1336 4038 
Q 1056 3838 1056 3469 
Q 1056 3159 1242 3001 
Q 1428 2844 1947 2747 
L 2328 2669 
Q 3034 2534 3370 2195 
Q 3706 1856 3706 1288 
Q 3706 609 3251 259 
Q 2797 -91 1919 -91 
Q 1588 -91 1214 -16 
Q 841 59 441 206 
L 441 856 
Q 825 641 1194 531 
Q 1563 422 1919 422 
Q 2459 422 2753 634 
Q 3047 847 3047 1241 
Q 3047 1584 2836 1778 
Q 2625 1972 2144 2069 
L 1759 2144 
Q 1053 2284 737 2584 
Q 422 2884 422 3419 
Q 422 4038 858 4394 
Q 1294 4750 2059 4750 
Q 2388 4750 2728 4690 
Q 3069 4631 3425 4513 
z
" transform="scale(0.015625)"/>
       <path id="DejaVuSans-56" d="M 1831 0 
L 50 4666 
L 709 4666 
L 2188 738 
L 3669 4666 
L 4325 4666 
L 2547 0 
L 1831 0 
z
" transform="scale(0.015625)"/>
       <path id="DejaVuSans-4d" d="M 628 4666 
L 1569 4666 
L 2759 1491 
L 3956 4666 
L 4897 4666 
L 4897 0 
L 4281 0 
L 4281 4097 
L 3078 897 
L 2444 897 
L 1241 4097 
L 1241 0 
L 628 0 
L 628 4666 
z
" transform="scale(0.015625)"/>
       <path id="DejaVuSans-28" d="M 1984 4856 
Q 1566 4138 1362 3434 
Q 1159 2731 1159 2009 
Q 1159 1288 1364 580 
Q 1569 -128 1984 -844 
L 1484 -844 
Q 1016 -109 783 600 
Q 550 1309 550 2009 
Q 550 2706 781 3412 
Q 1013 4119 1484 4856 
L 1984 4856 
z
" transform="scale(0.015625)"/>
       <path id="DejaVuSans-41" d="M 2188 4044 
L 1331 1722 
L 3047 1722 
L 2188 4044 
z
M 1831 4666 
L 2547 4666 
L 4325 0 
L 3669 0 
L 3244 1197 
L 1141 1197 
L 716 0 
L 50 0 
L 1831 4666 
z
" transform="scale(0.015625)"/>
       <path id="DejaVuSans-55" d="M 556 4666 
L 1191 4666 
L 1191 1831 
Q 1191 1081 1462 751 
Q 1734 422 2344 422 
Q 2950 422 3222 751 
Q 3494 1081 3494 1831 
L 3494 4666 
L 4128 4666 
L 4128 1753 
Q 4128 841 3676 375 
Q 3225 -91 2344 -91 
Q 1459 -91 1007 375 
Q 556 841 556 1753 
L 556 4666 
z
" transform="scale(0.015625)"/>
       <path id="DejaVuSans-43" d="M 4122 4306 
L 4122 3641 
Q 3803 3938 3442 4084 
Q 3081 4231 2675 4231 
Q 1875 4231 1450 3742 
Q 1025 3253 1025 2328 
Q 1025 1406 1450 917 
Q 1875 428 2675 428 
Q 3081 428 3442 575 
Q 3803 722 4122 1019 
L 4122 359 
Q 3791 134 3420 21 
Q 3050 -91 2638 -91 
Q 1578 -91 968 557 
Q 359 1206 359 2328 
Q 359 3453 968 4101 
Q 1578 4750 2638 4750 
Q 3056 4750 3426 4639 
Q 3797 4528 4122 4306 
z
" transform="scale(0.015625)"/>
       <path id="DejaVuSans-3d" d="M 678 2906 
L 4684 2906 
L 4684 2381 
L 678 2381 
L 678 2906 
z
M 678 1631 
L 4684 1631 
L 4684 1100 
L 678 1100 
L 678 1631 
z
" transform="scale(0.015625)"/>
       <path id="DejaVuSans-39" d="M 703 97 
L 703 672 
Q 941 559 1184 500 
Q 1428 441 1663 441 
Q 2288 441 2617 861 
Q 2947 1281 2994 2138 
Q 2813 1869 2534 1725 
Q 2256 1581 1919 1581 
Q 1219 1581 811 2004 
Q 403 2428 403 3163 
Q 403 3881 828 4315 
Q 1253 4750 1959 4750 
Q 2769 4750 3195 4129 
Q 3622 3509 3622 2328 
Q 3622 1225 3098 567 
Q 2575 -91 1691 -91 
Q 1453 -91 1209 -44 
Q 966 3 703 97 
z
M 1959 2075 
Q 2384 2075 2632 2365 
Q 2881 2656 2881 3163 
Q 2881 3666 2632 3958 
Q 2384 4250 1959 4250 
Q 1534 4250 1286 3958 
Q 1038 3666 1038 3163 
Q 1038 2656 1286 2365 
Q 1534 2075 1959 2075 
z
" transform="scale(0.015625)"/>
       <path id="DejaVuSans-29" d="M 513 4856 
L 1013 4856 
Q 1481 4119 1714 3412 
Q 1947 2706 1947 2009 
Q 1947 1309 1714 600 
Q 1481 -109 1013 -844 
L 513 -844 
Q 928 -128 1133 580 
Q 1338 1288 1338 2009 
Q 1338 2731 1133 3434 
Q 928 4138 513 4856 
z
" transform="scale(0.015625)"/>
      </defs>
      <use xlink:href="#DejaVuSans-53"/>
      <use xlink:href="#DejaVuSans-56" transform="translate(63.476562 0)"/>
      <use xlink:href="#DejaVuSans-4d" transform="translate(131.884766 0)"/>
      <use xlink:href="#DejaVuSans-20" transform="translate(218.164062 0)"/>
      <use xlink:href="#DejaVuSans-28" transform="translate(249.951172 0)"/>
      <use xlink:href="#DejaVuSans-41" transform="translate(288.964844 0)"/>
      <use xlink:href="#DejaVuSans-55" transform="translate(357.373047 0)"/>
      <use xlink:href="#DejaVuSans-43" transform="translate(430.566406 0)"/>
      <use xlink:href="#DejaVuSans-20" transform="translate(500.390625 0)"/>
      <use xlink:href="#DejaVuSans-3d" transform="translate(532.177734 0)"/>
      <use xlink:href="#DejaVuSans-20" transform="translate(615.966797 0)"/>
      <use xlink:href="#DejaVuSans-30" transform="translate(647.753906 0)"/>
      <use xlink:href="#DejaVuSans-2e" transform="translate(711.376953 0)"/>
      <use xlink:href="#DejaVuSans-39" transform="translate(743.164062 0)"/>
      <use xlink:href="#DejaVuSans-39" transform="translate(806.787109 0)"/>
      <use xlink:href="#DejaVuSans-30" transform="translate(870.410156 0)"/>
      <use xlink:href="#DejaVuSans-29" transform="translate(934.033203 0)"/>
     </g>
    </g>
    <g id="line2d_6">
     <path d="M 316.055 443.0675 
L 332.055 443.0675 
L 348.055 443.0675 
" style="fill: none; stroke: #ff7f0e; stroke-width: 2; stroke-linecap: round"/>
    </g>
    <g id="text_16">
     <!-- PSSM (AUC = 0.974) -->
     <g style="fill: #262626" transform="translate(360.855 448.6675) scale(0.16 -0.16)">
      <defs>
       <path id="DejaVuSans-50" d="M 1259 4147 
L 1259 2394 
L 2053 2394 
Q 2494 2394 2734 2622 
Q 2975 2850 2975 3272 
Q 2975 3691 2734 3919 
Q 2494 4147 2053 4147 
L 1259 4147 
z
M 628 4666 
L 2053 4666 
Q 2838 4666 3239 4311 
Q 3641 3956 3641 3272 
Q 3641 2581 3239 2228 
Q 2838 1875 2053 1875 
L 1259 1875 
L 1259 0 
L 628 0 
L 628 4666 
z
" transform="scale(0.015625)"/>
       <path id="DejaVuSans-37" d="M 525 4666 
L 3525 4666 
L 3525 4397 
L 1831 0 
L 1172 0 
L 2766 4134 
L 525 4134 
L 525 4666 
z
" transform="scale(0.015625)"/>
      </defs>
      <use xlink:href="#DejaVuSans-50"/>
      <use xlink:href="#DejaVuSans-53" transform="translate(60.302734 0)"/>
      <use xlink:href="#DejaVuSans-53" transform="translate(123.779297 0)"/>
      <use xlink:href="#DejaVuSans-4d" transform="translate(187.255859 0)"/>
      <use xlink:href="#DejaVuSans-20" transform="translate(273.535156 0)"/>
      <use xlink:href="#DejaVuSans-28" transform="translate(305.322266 0)"/>
      <use xlink:href="#DejaVuSans-41" transform="translate(344.335938 0)"/>
      <use xlink:href="#DejaVuSans-55" transform="translate(412.744141 0)"/>
      <use xlink:href="#DejaVuSans-43" transform="translate(485.9375 0)"/>
      <use xlink:href="#DejaVuSans-20" transform="translate(555.761719 0)"/>
      <use xlink:href="#DejaVuSans-3d" transform="translate(587.548828 0)"/>
      <use xlink:href="#DejaVuSans-20" transform="translate(671.337891 0)"/>
      <use xlink:href="#DejaVuSans-30" transform="translate(703.125 0)"/>
      <use xlink:href="#DejaVuSans-2e" transform="translate(766.748047 0)"/>
      <use xlink:href="#DejaVuSans-39" transform="translate(798.535156 0)"/>
      <use xlink:href="#DejaVuSans-37" transform="translate(862.158203 0)"/>
      <use xlink:href="#DejaVuSans-34" transform="translate(925.78125 0)"/>
      <use xlink:href="#DejaVuSans-29" transform="translate(989.404297 0)"/>
     </g>
    </g>
    <g id="line2d_7">
     <path d="M 316.055 466.5525 
L 332.055 466.5525 
L 348.055 466.5525 
" style="fill: none; stroke: #2ca02c; stroke-width: 2; stroke-linecap: round"/>
    </g>
    <g id="text_17">
     <!-- ProP (AUC = 0.905) -->
     <g style="fill: #262626" transform="translate(360.855 472.1525) scale(0.16 -0.16)">
      <defs>
       <path id="DejaVuSans-35" d="M 691 4666 
L 3169 4666 
L 3169 4134 
L 1269 4134 
L 1269 2991 
Q 1406 3038 1543 3061 
Q 1681 3084 1819 3084 
Q 2600 3084 3056 2656 
Q 3513 2228 3513 1497 
Q 3513 744 3044 326 
Q 2575 -91 1722 -91 
Q 1428 -91 1123 -41 
Q 819 9 494 109 
L 494 744 
Q 775 591 1075 516 
Q 1375 441 1709 441 
Q 2250 441 2565 725 
Q 2881 1009 2881 1497 
Q 2881 1984 2565 2268 
Q 2250 2553 1709 2553 
Q 1456 2553 1204 2497 
Q 953 2441 691 2322 
L 691 4666 
z
" transform="scale(0.015625)"/>
      </defs>
      <use xlink:href="#DejaVuSans-50"/>
      <use xlink:href="#DejaVuSans-72" transform="translate(58.552734 0)"/>
      <use xlink:href="#DejaVuSans-6f" transform="translate(97.416016 0)"/>
      <use xlink:href="#DejaVuSans-50" transform="translate(158.597656 0)"/>
      <use xlink:href="#DejaVuSans-20" transform="translate(218.900391 0)"/>
      <use xlink:href="#DejaVuSans-28" transform="translate(250.6875 0)"/>
      <use xlink:href="#DejaVuSans-41" transform="translate(289.701172 0)"/>
      <use xlink:href="#DejaVuSans-55" transform="translate(358.109375 0)"/>
      <use xlink:href="#DejaVuSans-43" transform="translate(431.302734 0)"/>
      <use xlink:href="#DejaVuSans-20" transform="translate(501.126953 0)"/>
      <use xlink:href="#DejaVuSans-3d" transform="translate(532.914062 0)"/>
      <use xlink:href="#DejaVuSans-20" transform="translate(616.703125 0)"/>
      <use xlink:href="#DejaVuSans-30" transform="translate(648.490234 0)"/>
      <use xlink:href="#DejaVuSans-2e" transform="translate(712.113281 0)"/>
      <use xlink:href="#DejaVuSans-39" transform="translate(743.900391 0)"/>
      <use xlink:href="#DejaVuSans-30" transform="translate(807.523438 0)"/>
      <use xlink:href="#DejaVuSans-35" transform="translate(871.146484 0)"/>
      <use xlink:href="#DejaVuSans-29" transform="translate(934.769531 0)"/>
     </g>
    </g>
   </g>
  </g>
 </g>
 <defs>
  <clipPath id="pdf6d0e2c1f">
   <rect x="69.3625" y="7.2" width="470.44" height="482.68"/>
  </clipPath>
 </defs>
</svg>
