<?xml version="1.0" encoding="utf-8" standalone="no"?>
<!DOCTYPE svg PUBLIC "-//W3C//DTD SVG 1.1//EN"
  "http://www.w3.org/Graphics/SVG/1.1/DTD/svg11.dtd">
<svg xmlns:xlink="http://www.w3.org/1999/xlink" width="549.056412pt" height="319.15625pt" viewBox="0 0 549.056412 319.15625" xmlns="http://www.w3.org/2000/svg" version="1.1">
 <metadata>
  <rdf:RDF xmlns:dc="http://purl.org/dc/elements/1.1/" xmlns:cc="http://creativecommons.org/ns#" xmlns:rdf="http://www.w3.org/1999/02/22-rdf-syntax-ns#">
   <cc:Work>
    <dc:type rdf:resource="http://purl.org/dc/dcmitype/StillImage"/>
    <dc:date>2026-04-22T16:30:47.404356</dc:date>
    <dc:format>image/svg+xml</dc:format>
    <dc:creator>
     <cc:Agent>
      <dc:title>Matplotlib v3.10.5, https://matplotlib.org/</dc:title>
     </cc:Agent>
    </dc:creator>
   </cc:Work>
  </rdf:RDF>
 </metadata>
 <defs>
  <style type="text/css">*{stroke-linejoin: round; stroke-linecap: butt}</style>
 </defs>
 <g id="figure_1">
  <g id="patch_1">
   <path d="M 0 319.15625 
L 549.056412 319.15625 
L 549.056412 0 
L 0 0 
z
" style="fill: #ffffff"/>
  </g>
  <g id="axes_1">
   <g id="patch_2">
    <path d="M 45.856412 281.473684 
L 541.856412 281.473684 
L 541.856412 264.099723 
L 45.856412 264.099723 
z
" clip-path="url(#p85aaaaec65)" style="fill-opacity: 0.05098"/>
   </g>
   <g id="patch_3">
    <path d="M 45.856412 259.756233 
L 541.856412 259.756233 
L 541.856412 242.382271 
L 45.856412 242.382271 
L 45.856412 259.756233 
z
" clip-path="url(#p85aaaaec65)" style="fill: none"/>
   </g>
   <g id="patch_4">
    <path d="M 45.856412 238.038781 
L 541.856412 238.038781 
L 541.856412 220.66482 
L 45.856412 220.66482 
z
" clip-path="url(#p85aaaaec65)" style="fill-opacity: 0.05098"/>
   </g>
   <g id="patch_5">
    <path d="M 45.856412 216.32133 
L 541.856412 216.32133 
L 541.856412 198.947368 
L 45.856412 198.947368 
L 45.856412 216.32133 
z
" clip-path="url(#p85aaaaec65)" style="fill: none"/>
   </g>
   <g id="matplotlib.axis_1"/>
   <g id="matplotlib.axis_2">
    <g id="ytick_1"/>
    <g id="ytick_2"/>
    <g id="ytick_3"/>
    <g id="ytick_4"/>
   </g>
  </g>
  <g id="axes_2">
   <g id="matplotlib.axis_3">
    <g id="ytick_5">
     <g id="text_1">
      <!-- ProP -->
      <g style="fill: #262626" transform="translate(173.63711 280.385141) scale(0.2 -0.2)">
       <defs>
        <path id="DejaVuSans-50" d="M 1259 4147 
L 1259 2394 
L 2053 2394 
Q 2494 2394 2734 2622 
Q 2975 2850 2975 3272 
Q 2975 3691 2734 3919 
Q 2494 4147 2053 4147 
L 1259 4147 
z
M 628 4666 
L 2053 4666 
Q 2838 4666 3239 4311 
Q 3641 3956 3641 3272 
Q 3641 2581 3239 2228 
Q 2838 1875 2053 1875 
L 1259 1875 
L 1259 0 
L 628 0 
L 628 4666 
z
" transform="scale(0.015625)"/>
        <path id="DejaVuSans-72" d="M 2631 2963 
Q 2534 3019 2420 3045 
Q 2306 3072 2169 3072 
Q 1681 3072 1420 2755 
Q 1159 2438 1159 1844 
L 1159 0 
L 581 0 
L 581 3500 
L 1159 3500 
L 1159 2956 
Q 1341 3275 1631 3429 
Q 1922 3584 2338 3584 
Q 2397 3584 2469 3576 
Q 2541 3569 2628 3553 
L 2631 2963 
z
" transform="scale(0.015625)"/>
        <path id="DejaVuSans-6f" d="M 1959 3097 
Q 1497 3097 1228 2736 
Q 959 2375 959 1747 
Q 959 1119 1226 758 
Q 1494 397 1959 397 
Q 2419 397 2687 759 
Q 2956 1122 2956 1747 
Q 2956 2369 2687 2733 
Q 2419 3097 1959 3097 
z
M 1959 3584 
Q 2709 3584 3137 3096 
Q 3566 2609 3566 1747 
Q 3566 888 3137 398 
Q 2709 -91 1959 -91 
Q 1206 -91 779 398 
Q 353 888 353 1747 
Q 353 2609 779 3096 
Q 1206 3584 1959 3584 
z
" transform="scale(0.015625)"/>
       </defs>
       <use xlink:href="#DejaVuSans-50"/>
       <use xlink:href="#DejaVuSans-72" transform="translate(58.552734 0)"/>
       <use xlink:href="#DejaVuSans-6f" transform="translate(97.416016 0)"/>
       <use xlink:href="#DejaVuSans-50" transform="translate(158.597656 0)"/>
      </g>
     </g>
    </g>
    <g id="ytick_6">
     <g id="text_2">
      <!-- SVM -->
      <g style="fill: #262626" transform="translate(173.78086 258.66769) scale(0.2 -0.2)">
       <defs>
        <path id="DejaVuSans-53" d="M 3425 4513 
L 3425 3897 
Q 3066 4069 2747 4153 
Q 2428 4238 2131 4238 
Q 1616 4238 1336 4038 
Q 1056 3838 1056 3469 
Q 1056 3159 1242 3001 
Q 1428 2844 1947 2747 
L 2328 2669 
Q 3034 2534 3370 2195 
Q 3706 1856 3706 1288 
Q 3706 609 3251 259 
Q 2797 -91 1919 -91 
Q 1588 -91 1214 -16 
Q 841 59 441 206 
L 441 856 
Q 825 641 1194 531 
Q 1563 422 1919 422 
Q 2459 422 2753 634 
Q 3047 847 3047 1241 
Q 3047 1584 2836 1778 
Q 2625 1972 2144 2069 
L 1759 2144 
Q 1053 2284 737 2584 
Q 422 2884 422 3419 
Q 422 4038 858 4394 
Q 1294 4750 2059 4750 
Q 2388 4750 2728 4690 
Q 3069 4631 3425 4513 
z
" transform="scale(0.015625)"/>
        <path id="DejaVuSans-56" d="M 1831 0 
L 50 4666 
L 709 4666 
L 2188 738 
L 3669 4666 
L 4325 4666 
L 2547 0 
L 1831 0 
z
" transform="scale(0.015625)"/>
        <path id="DejaVuSans-4d" d="M 628 4666 
L 1569 4666 
L 2759 1491 
L 3956 4666 
L 4897 4666 
L 4897 0 
L 4281 0 
L 4281 4097 
L 3078 897 
L 2444 897 
L 1241 4097 
L 1241 0 
L 628 0 
L 628 4666 
z
" transform="scale(0.015625)"/>
       </defs>
       <use xlink:href="#DejaVuSans-53"/>
       <use xlink:href="#DejaVuSans-56" transform="translate(63.476562 0)"/>
       <use xlink:href="#DejaVuSans-4d" transform="translate(131.884766 0)"/>
      </g>
     </g>
    </g>
    <g id="ytick_7">
     <g id="text_3">
      <!-- SwissProt -->
      <g style="fill: #262626" transform="translate(122.408985 236.950238) scale(0.2 -0.2)">
       <defs>
        <path id="DejaVuSans-77" d="M 269 3500 
L 844 3500 
L 1563 769 
L 2278 3500 
L 2956 3500 
L 3675 769 
L 4391 3500 
L 4966 3500 
L 4050 0 
L 3372 0 
L 2619 2869 
L 1863 0 
L 1184 0 
L 269 3500 
z
" transform="scale(0.015625)"/>
        <path id="DejaVuSans-69" d="M 603 3500 
L 1178 3500 
L 1178 0 
L 603 0 
L 603 3500 
z
M 603 4863 
L 1178 4863 
L 1178 4134 
L 603 4134 
L 603 4863 
z
" transform="scale(0.015625)"/>
        <path id="DejaVuSans-73" d="M 2834 3397 
L 2834 2853 
Q 2591 2978 2328 3040 
Q 2066 3103 1784 3103 
Q 1356 3103 1142 2972 
Q 928 2841 928 2578 
Q 928 2378 1081 2264 
Q 1234 2150 1697 2047 
L 1894 2003 
Q 2506 1872 2764 1633 
Q 3022 1394 3022 966 
Q 3022 478 2636 193 
Q 2250 -91 1575 -91 
Q 1294 -91 989 -36 
Q 684 19 347 128 
L 347 722 
Q 666 556 975 473 
Q 1284 391 1588 391 
Q 1994 391 2212 530 
Q 2431 669 2431 922 
Q 2431 1156 2273 1281 
Q 2116 1406 1581 1522 
L 1381 1569 
Q 847 1681 609 1914 
Q 372 2147 372 2553 
Q 372 3047 722 3315 
Q 1072 3584 1716 3584 
Q 2034 3584 2315 3537 
Q 2597 3491 2834 3397 
z
" transform="scale(0.015625)"/>
        <path id="DejaVuSans-74" d="M 1172 4494 
L 1172 3500 
L 2356 3500 
L 2356 3053 
L 1172 3053 
L 1172 1153 
Q 1172 725 1289 603 
Q 1406 481 1766 481 
L 2356 481 
L 2356 0 
L 1766 0 
Q 1100 0 847 248 
Q 594 497 594 1153 
L 594 3053 
L 172 3053 
L 172 3500 
L 594 3500 
L 594 4494 
L 1172 4494 
z
" transform="scale(0.015625)"/>
       </defs>
       <use xlink:href="#DejaVuSans-53"/>
       <use xlink:href="#DejaVuSans-77" transform="translate(63.476562 0)"/>
       <use xlink:href="#DejaVuSans-69" transform="translate(145.263672 0)"/>
       <use xlink:href="#DejaVuSans-73" transform="translate(173.046875 0)"/>
       <use xlink:href="#DejaVuSans-73" transform="translate(225.146484 0)"/>
       <use xlink:href="#DejaVuSans-50" transform="translate(277.246094 0)"/>
       <use xlink:href="#DejaVuSans-72" transform="translate(335.798828 0)"/>
       <use xlink:href="#DejaVuSans-6f" transform="translate(374.662109 0)"/>
       <use xlink:href="#DejaVuSans-74" transform="translate(435.84375 0)"/>
      </g>
     </g>
    </g>
    <g id="ytick_8">
     <g id="text_4">
      <!-- PSSM -->
      <g style="fill: #262626" transform="translate(162.70586 215.232787) scale(0.2 -0.2)">
       <use xlink:href="#DejaVuSans-50"/>
       <use xlink:href="#DejaVuSans-53" transform="translate(60.302734 0)"/>
       <use xlink:href="#DejaVuSans-53" transform="translate(123.779297 0)"/>
       <use xlink:href="#DejaVuSans-4d" transform="translate(187.255859 0)"/>
      </g>
     </g>
    </g>
   </g>
   <g id="LineCollection_1">
    <path d="M 233.259127 272.786704 
L 233.259127 272.786704 
" clip-path="url(#pb2274e73a0)" style="fill: none; stroke: #000000; stroke-width: 2"/>
    <path d="M 257.94691 272.786704 
L 257.94691 207.634349 
" clip-path="url(#pb2274e73a0)" style="fill: none; stroke: #000000; stroke-width: 2"/>
    <path d="M 282.634692 251.069252 
L 282.634692 207.634349 
" clip-path="url(#pb2274e73a0)" style="fill: none; stroke: #000000; stroke-width: 2"/>
    <path d="M 307.322475 272.786704 
L 307.322475 229.351801 
" clip-path="url(#pb2274e73a0)" style="fill: none; stroke: #000000; stroke-width: 2"/>
    <path d="M 332.010258 229.351801 
L 332.010258 229.351801 
" clip-path="url(#pb2274e73a0)" style="fill: none; stroke: #000000; stroke-width: 2"/>
    <path d="M 356.698041 272.786704 
L 356.698041 229.351801 
" clip-path="url(#pb2274e73a0)" style="fill: none; stroke: #000000; stroke-width: 2"/>
    <path d="M 381.385824 272.786704 
L 381.385824 207.634349 
" clip-path="url(#pb2274e73a0)" style="fill: none; stroke: #000000; stroke-width: 2"/>
    <path d="M 406.073606 272.786704 
L 406.073606 251.069252 
" clip-path="url(#pb2274e73a0)" style="fill: none; stroke: #000000; stroke-width: 2"/>
    <path d="M 430.761389 251.069252 
L 430.761389 251.069252 
" clip-path="url(#pb2274e73a0)" style="fill: none; stroke: #000000; stroke-width: 2"/>
    <path d="M 455.449172 272.786704 
L 455.449172 207.634349 
" clip-path="url(#pb2274e73a0)" style="fill: none; stroke: #000000; stroke-width: 2"/>
    <path d="M 480.136955 207.634349 
L 480.136955 207.634349 
" clip-path="url(#pb2274e73a0)" style="fill: none; stroke: #000000; stroke-width: 2"/>
    <path d="M 504.824738 251.069252 
L 504.824738 229.351801 
" clip-path="url(#pb2274e73a0)" style="fill: none; stroke: #000000; stroke-width: 2"/>
    <path d="M 529.51252 251.069252 
L 529.51252 207.634349 
" clip-path="url(#pb2274e73a0)" style="fill: none; stroke: #000000; stroke-width: 2"/>
   </g>
   <g id="PathCollection_1">
    <defs>
     <path id="C0_0_7832525fee" d="M 0 5.6 
C 1.485137 5.6 2.909647 5.009949 3.959798 3.959798 
C 5.009949 2.909647 5.6 1.485137 5.6 -0 
C 5.6 -1.485137 5.009949 -2.909647 3.959798 -3.959798 
C 2.909647 -5.009949 1.485137 -5.6 0 -5.6 
C -1.485137 -5.6 -2.909647 -5.009949 -3.959798 -3.959798 
C -5.009949 -2.909647 -5.6 -1.485137 -5.6 0 
C -5.6 1.485137 -5.009949 2.909647 -3.959798 3.959798 
C -2.909647 5.009949 -1.485137 5.6 0 5.6 
z
"/>
    </defs>
    <g clip-path="url(#pb2274e73a0)">
     <use xlink:href="#C0_0_7832525fee" x="233.259127" y="272.786704" style="stroke: #000000"/>
    </g>
    <g clip-path="url(#pb2274e73a0)">
     <use xlink:href="#C0_0_7832525fee" x="233.259127" y="251.069252" style="fill-opacity: 0.180392"/>
    </g>
    <g clip-path="url(#pb2274e73a0)">
     <use xlink:href="#C0_0_7832525fee" x="233.259127" y="229.351801" style="fill-opacity: 0.180392"/>
    </g>
    <g clip-path="url(#pb2274e73a0)">
     <use xlink:href="#C0_0_7832525fee" x="233.259127" y="207.634349" style="fill-opacity: 0.180392"/>
    </g>
    <g clip-path="url(#pb2274e73a0)">
     <use xlink:href="#C0_0_7832525fee" x="257.94691" y="272.786704" style="stroke: #000000"/>
    </g>
    <g clip-path="url(#pb2274e73a0)">
     <use xlink:href="#C0_0_7832525fee" x="257.94691" y="251.069252" style="stroke: #000000"/>
    </g>
    <g clip-path="url(#pb2274e73a0)">
     <use xlink:href="#C0_0_7832525fee" x="257.94691" y="229.351801" style="stroke: #000000"/>
    </g>
    <g clip-path="url(#pb2274e73a0)">
     <use xlink:href="#C0_0_7832525fee" x="257.94691" y="207.634349" style="stroke: #000000"/>
    </g>
    <g clip-path="url(#pb2274e73a0)">
     <use xlink:href="#C0_0_7832525fee" x="282.634692" y="272.786704" style="fill-opacity: 0.180392"/>
    </g>
    <g clip-path="url(#pb2274e73a0)">
     <use xlink:href="#C0_0_7832525fee" x="282.634692" y="251.069252" style="stroke: #000000"/>
    </g>
    <g clip-path="url(#pb2274e73a0)">
     <use xlink:href="#C0_0_7832525fee" x="282.634692" y="229.351801" style="stroke: #000000"/>
    </g>
    <g clip-path="url(#pb2274e73a0)">
     <use xlink:href="#C0_0_7832525fee" x="282.634692" y="207.634349" style="stroke: #000000"/>
    </g>
    <g clip-path="url(#pb2274e73a0)">
     <use xlink:href="#C0_0_7832525fee" x="307.322475" y="272.786704" style="stroke: #000000"/>
    </g>
    <g clip-path="url(#pb2274e73a0)">
     <use xlink:href="#C0_0_7832525fee" x="307.322475" y="251.069252" style="stroke: #000000"/>
    </g>
    <g clip-path="url(#pb2274e73a0)">
     <use xlink:href="#C0_0_7832525fee" x="307.322475" y="229.351801" style="stroke: #000000"/>
    </g>
    <g clip-path="url(#pb2274e73a0)">
     <use xlink:href="#C0_0_7832525fee" x="307.322475" y="207.634349" style="fill-opacity: 0.180392"/>
    </g>
    <g clip-path="url(#pb2274e73a0)">
     <use xlink:href="#C0_0_7832525fee" x="332.010258" y="272.786704" style="fill-opacity: 0.180392"/>
    </g>
    <g clip-path="url(#pb2274e73a0)">
     <use xlink:href="#C0_0_7832525fee" x="332.010258" y="251.069252" style="fill-opacity: 0.180392"/>
    </g>
    <g clip-path="url(#pb2274e73a0)">
     <use xlink:href="#C0_0_7832525fee" x="332.010258" y="229.351801" style="stroke: #000000"/>
    </g>
    <g clip-path="url(#pb2274e73a0)">
     <use xlink:href="#C0_0_7832525fee" x="332.010258" y="207.634349" style="fill-opacity: 0.180392"/>
    </g>
    <g clip-path="url(#pb2274e73a0)">
     <use xlink:href="#C0_0_7832525fee" x="356.698041" y="272.786704" style="stroke: #000000"/>
    </g>
    <g clip-path="url(#pb2274e73a0)">
     <use xlink:href="#C0_0_7832525fee" x="356.698041" y="251.069252" style="fill-opacity: 0.180392"/>
    </g>
    <g clip-path="url(#pb2274e73a0)">
     <use xlink:href="#C0_0_7832525fee" x="356.698041" y="229.351801" style="stroke: #000000"/>
    </g>
    <g clip-path="url(#pb2274e73a0)">
     <use xlink:href="#C0_0_7832525fee" x="356.698041" y="207.634349" style="fill-opacity: 0.180392"/>
    </g>
    <g clip-path="url(#pb2274e73a0)">
     <use xlink:href="#C0_0_7832525fee" x="381.385824" y="272.786704" style="stroke: #000000"/>
    </g>
    <g clip-path="url(#pb2274e73a0)">
     <use xlink:href="#C0_0_7832525fee" x="381.385824" y="251.069252" style="stroke: #000000"/>
    </g>
    <g clip-path="url(#pb2274e73a0)">
     <use xlink:href="#C0_0_7832525fee" x="381.385824" y="229.351801" style="fill-opacity: 0.180392"/>
    </g>
    <g clip-path="url(#pb2274e73a0)">
     <use xlink:href="#C0_0_7832525fee" x="381.385824" y="207.634349" style="stroke: #000000"/>
    </g>
    <g clip-path="url(#pb2274e73a0)">
     <use xlink:href="#C0_0_7832525fee" x="406.073606" y="272.786704" style="stroke: #000000"/>
    </g>
    <g clip-path="url(#pb2274e73a0)">
     <use xlink:href="#C0_0_7832525fee" x="406.073606" y="251.069252" style="stroke: #000000"/>
    </g>
    <g clip-path="url(#pb2274e73a0)">
     <use xlink:href="#C0_0_7832525fee" x="406.073606" y="229.351801" style="fill-opacity: 0.180392"/>
    </g>
    <g clip-path="url(#pb2274e73a0)">
     <use xlink:href="#C0_0_7832525fee" x="406.073606" y="207.634349" style="fill-opacity: 0.180392"/>
    </g>
    <g clip-path="url(#pb2274e73a0)">
     <use xlink:href="#C0_0_7832525fee" x="430.761389" y="272.786704" style="fill-opacity: 0.180392"/>
    </g>
    <g clip-path="url(#pb2274e73a0)">
     <use xlink:href="#C0_0_7832525fee" x="430.761389" y="251.069252" style="stroke: #000000"/>
    </g>
    <g clip-path="url(#pb2274e73a0)">
     <use xlink:href="#C0_0_7832525fee" x="430.761389" y="229.351801" style="fill-opacity: 0.180392"/>
    </g>
    <g clip-path="url(#pb2274e73a0)">
     <use xlink:href="#C0_0_7832525fee" x="430.761389" y="207.634349" style="fill-opacity: 0.180392"/>
    </g>
    <g clip-path="url(#pb2274e73a0)">
     <use xlink:href="#C0_0_7832525fee" x="455.449172" y="272.786704" style="stroke: #000000"/>
    </g>
    <g clip-path="url(#pb2274e73a0)">
     <use xlink:href="#C0_0_7832525fee" x="455.449172" y="251.069252" style="fill-opacity: 0.180392"/>
    </g>
    <g clip-path="url(#pb2274e73a0)">
     <use xlink:href="#C0_0_7832525fee" x="455.449172" y="229.351801" style="fill-opacity: 0.180392"/>
    </g>
    <g clip-path="url(#pb2274e73a0)">
     <use xlink:href="#C0_0_7832525fee" x="455.449172" y="207.634349" style="stroke: #000000"/>
    </g>
    <g clip-path="url(#pb2274e73a0)">
     <use xlink:href="#C0_0_7832525fee" x="480.136955" y="272.786704" style="fill-opacity: 0.180392"/>
    </g>
    <g clip-path="url(#pb2274e73a0)">
     <use xlink:href="#C0_0_7832525fee" x="480.136955" y="251.069252" style="fill-opacity: 0.180392"/>
    </g>
    <g clip-path="url(#pb2274e73a0)">
     <use xlink:href="#C0_0_7832525fee" x="480.136955" y="229.351801" style="fill-opacity: 0.180392"/>
    </g>
    <g clip-path="url(#pb2274e73a0)">
     <use xlink:href="#C0_0_7832525fee" x="480.136955" y="207.634349" style="stroke: #000000"/>
    </g>
    <g clip-path="url(#pb2274e73a0)">
     <use xlink:href="#C0_0_7832525fee" x="504.824738" y="272.786704" style="fill-opacity: 0.180392"/>
    </g>
    <g clip-path="url(#pb2274e73a0)">
     <use xlink:href="#C0_0_7832525fee" x="504.824738" y="251.069252" style="stroke: #000000"/>
    </g>
    <g clip-path="url(#pb2274e73a0)">
     <use xlink:href="#C0_0_7832525fee" x="504.824738" y="229.351801" style="stroke: #000000"/>
    </g>
    <g clip-path="url(#pb2274e73a0)">
     <use xlink:href="#C0_0_7832525fee" x="504.824738" y="207.634349" style="fill-opacity: 0.180392"/>
    </g>
    <g clip-path="url(#pb2274e73a0)">
     <use xlink:href="#C0_0_7832525fee" x="529.51252" y="272.786704" style="fill-opacity: 0.180392"/>
    </g>
    <g clip-path="url(#pb2274e73a0)">
     <use xlink:href="#C0_0_7832525fee" x="529.51252" y="251.069252" style="stroke: #000000"/>
    </g>
    <g clip-path="url(#pb2274e73a0)">
     <use xlink:href="#C0_0_7832525fee" x="529.51252" y="229.351801" style="fill-opacity: 0.180392"/>
    </g>
    <g clip-path="url(#pb2274e73a0)">
     <use xlink:href="#C0_0_7832525fee" x="529.51252" y="207.634349" style="stroke: #000000"/>
    </g>
   </g>
  </g>
  <g id="axes_3">
   <g id="matplotlib.axis_4">
    <g id="xtick_1">
     <g id="line2d_1">
      <path d="M 91.705151 285.6 
L 91.705151 194.821053 
" clip-path="url(#pe779199847)" style="fill: none; stroke: #cccccc; stroke-width: 0.8; stroke-linecap: round"/>
     </g>
     <g id="text_5">
      <!-- 0 -->
      <g style="fill: #262626" transform="translate(85.342651 307.796875) scale(0.2 -0.2)">
       <defs>
        <path id="DejaVuSans-30" d="M 2034 4250 
Q 1547 4250 1301 3770 
Q 1056 3291 1056 2328 
Q 1056 1369 1301 889 
Q 1547 409 2034 409 
Q 2525 409 2770 889 
Q 3016 1369 3016 2328 
Q 3016 3291 2770 3770 
Q 2525 4250 2034 4250 
z
M 2034 4750 
Q 2819 4750 3233 4129 
Q 3647 3509 3647 2328 
Q 3647 1150 3233 529 
Q 2819 -91 2034 -91 
Q 1250 -91 836 529 
Q 422 1150 422 2328 
Q 422 3509 836 4129 
Q 1250 4750 2034 4750 
z
" transform="scale(0.015625)"/>
       </defs>
       <use xlink:href="#DejaVuSans-30"/>
      </g>
     </g>
    </g>
    <g id="xtick_2">
     <g id="line2d_2">
      <path d="M 61.261101 285.6 
L 61.261101 194.821053 
" clip-path="url(#pe779199847)" style="fill: none; stroke: #cccccc; stroke-width: 0.8; stroke-linecap: round"/>
     </g>
     <g id="text_6">
      <!-- 500 -->
      <g style="fill: #262626" transform="translate(42.173601 307.796875) scale(0.2 -0.2)">
       <defs>
        <path id="DejaVuSans-35" d="M 691 4666 
L 3169 4666 
L 3169 4134 
L 1269 4134 
L 1269 2991 
Q 1406 3038 1543 3061 
Q 1681 3084 1819 3084 
Q 2600 3084 3056 2656 
Q 3513 2228 3513 1497 
Q 3513 744 3044 326 
Q 2575 -91 1722 -91 
Q 1428 -91 1123 -41 
Q 819 9 494 109 
L 494 744 
Q 775 591 1075 516 
Q 1375 441 1709 441 
Q 2250 441 2565 725 
Q 2881 1009 2881 1497 
Q 2881 1984 2565 2268 
Q 2250 2553 1709 2553 
Q 1456 2553 1204 2497 
Q 953 2441 691 2322 
L 691 4666 
z
" transform="scale(0.015625)"/>
       </defs>
       <use xlink:href="#DejaVuSans-35"/>
       <use xlink:href="#DejaVuSans-30" transform="translate(63.623047 0)"/>
       <use xlink:href="#DejaVuSans-30" transform="translate(127.246094 0)"/>
      </g>
     </g>
    </g>
   </g>
   <g id="patch_6">
    <path d="M 91.705151 278.216066 
L 45.856412 278.216066 
L 45.856412 267.357341 
L 91.705151 267.357341 
z
" clip-path="url(#pe779199847)" style="stroke: #000000; stroke-linejoin: miter"/>
   </g>
   <g id="patch_7">
    <path d="M 91.705151 256.498615 
L 66.132149 256.498615 
L 66.132149 245.639889 
L 91.705151 245.639889 
z
" clip-path="url(#pe779199847)" style="stroke: #000000; stroke-linejoin: miter"/>
   </g>
   <g id="patch_8">
    <path d="M 91.705151 234.781163 
L 66.193037 234.781163 
L 66.193037 223.922438 
L 91.705151 223.922438 
z
" clip-path="url(#pe779199847)" style="stroke: #000000; stroke-linejoin: miter"/>
   </g>
   <g id="patch_9">
    <path d="M 91.705151 213.063712 
L 68.01968 213.063712 
L 68.01968 202.204986 
L 91.705151 202.204986 
z
" clip-path="url(#pe779199847)" style="stroke: #000000; stroke-linejoin: miter"/>
   </g>
   <g id="patch_10">
    <path d="M 45.856412 285.6 
L 91.705151 285.6 
" style="fill: none; stroke: #262626; stroke-width: 0.8; stroke-linejoin: miter; stroke-linecap: square"/>
   </g>
   <g id="text_7">
    <!-- 753 -->
    <g style="fill: #262626" transform="translate(7.2 278.305454) scale(0.2 -0.2)">
     <defs>
      <path id="DejaVuSans-37" d="M 525 4666 
L 3525 4666 
L 3525 4397 
L 1831 0 
L 1172 0 
L 2766 4134 
L 525 4134 
L 525 4666 
z
" transform="scale(0.015625)"/>
      <path id="DejaVuSans-33" d="M 2597 2516 
Q 3050 2419 3304 2112 
Q 3559 1806 3559 1356 
Q 3559 666 3084 287 
Q 2609 -91 1734 -91 
Q 1441 -91 1130 -33 
Q 819 25 488 141 
L 488 750 
Q 750 597 1062 519 
Q 1375 441 1716 441 
Q 2309 441 2620 675 
Q 2931 909 2931 1356 
Q 2931 1769 2642 2001 
Q 2353 2234 1838 2234 
L 1294 2234 
L 1294 2753 
L 1863 2753 
Q 2328 2753 2575 2939 
Q 2822 3125 2822 3475 
Q 2822 3834 2567 4026 
Q 2313 4219 1838 4219 
Q 1578 4219 1281 4162 
Q 984 4106 628 3988 
L 628 4550 
Q 988 4650 1302 4700 
Q 1616 4750 1894 4750 
Q 2613 4750 3031 4423 
Q 3450 4097 3450 3541 
Q 3450 3153 3228 2886 
Q 3006 2619 2597 2516 
z
" transform="scale(0.015625)"/>
     </defs>
     <use xlink:href="#DejaVuSans-37"/>
     <use xlink:href="#DejaVuSans-35" transform="translate(63.623047 0)"/>
     <use xlink:href="#DejaVuSans-33" transform="translate(127.246094 0)"/>
    </g>
   </g>
   <g id="text_8">
    <!-- 420 -->
    <g style="fill: #262626" transform="translate(27.475737 256.588002) scale(0.2 -0.2)">
     <defs>
      <path id="DejaVuSans-34" d="M 2419 4116 
L 825 1625 
L 2419 1625 
L 2419 4116 
z
M 2253 4666 
L 3047 4666 
L 3047 1625 
L 3713 1625 
L 3713 1100 
L 3047 1100 
L 3047 0 
L 2419 0 
L 2419 1100 
L 313 1100 
L 313 1709 
L 2253 4666 
z
" transform="scale(0.015625)"/>
      <path id="DejaVuSans-32" d="M 1228 531 
L 3431 531 
L 3431 0 
L 469 0 
L 469 531 
Q 828 903 1448 1529 
Q 2069 2156 2228 2338 
Q 2531 2678 2651 2914 
Q 2772 3150 2772 3378 
Q 2772 3750 2511 3984 
Q 2250 4219 1831 4219 
Q 1534 4219 1204 4116 
Q 875 4013 500 3803 
L 500 4441 
Q 881 4594 1212 4672 
Q 1544 4750 1819 4750 
Q 2544 4750 2975 4387 
Q 3406 4025 3406 3419 
Q 3406 3131 3298 2873 
Q 3191 2616 2906 2266 
Q 2828 2175 2409 1742 
Q 1991 1309 1228 531 
z
" transform="scale(0.015625)"/>
     </defs>
     <use xlink:href="#DejaVuSans-34"/>
     <use xlink:href="#DejaVuSans-32" transform="translate(63.623047 0)"/>
     <use xlink:href="#DejaVuSans-30" transform="translate(127.246094 0)"/>
    </g>
   </g>
   <g id="text_9">
    <!-- 419 -->
    <g style="fill: #262626" transform="translate(27.536625 234.870551) scale(0.2 -0.2)">
     <defs>
      <path id="DejaVuSans-31" d="M 794 531 
L 1825 531 
L 1825 4091 
L 703 3866 
L 703 4441 
L 1819 4666 
L 2450 4666 
L 2450 531 
L 3481 531 
L 3481 0 
L 794 0 
L 794 531 
z
" transform="scale(0.015625)"/>
      <path id="DejaVuSans-39" d="M 703 97 
L 703 672 
Q 941 559 1184 500 
Q 1428 441 1663 441 
Q 2288 441 2617 861 
Q 2947 1281 2994 2138 
Q 2813 1869 2534 1725 
Q 2256 1581 1919 1581 
Q 1219 1581 811 2004 
Q 403 2428 403 3163 
Q 403 3881 828 4315 
Q 1253 4750 1959 4750 
Q 2769 4750 3195 4129 
Q 3622 3509 3622 2328 
Q 3622 1225 3098 567 
Q 2575 -91 1691 -91 
Q 1453 -91 1209 -44 
Q 966 3 703 97 
z
M 1959 2075 
Q 2384 2075 2632 2365 
Q 2881 2656 2881 3163 
Q 2881 3666 2632 3958 
Q 2384 4250 1959 4250 
Q 1534 4250 1286 3958 
Q 1038 3666 1038 3163 
Q 1038 2656 1286 2365 
Q 1534 2075 1959 2075 
z
" transform="scale(0.015625)"/>
     </defs>
     <use xlink:href="#DejaVuSans-34"/>
     <use xlink:href="#DejaVuSans-31" transform="translate(63.623047 0)"/>
     <use xlink:href="#DejaVuSans-39" transform="translate(127.246094 0)"/>
    </g>
   </g>
   <g id="text_10">
    <!-- 389 -->
    <g style="fill: #262626" transform="translate(29.363268 213.153099) scale(0.2 -0.2)">
     <defs>
      <path id="DejaVuSans-38" d="M 2034 2216 
Q 1584 2216 1326 1975 
Q 1069 1734 1069 1313 
Q 1069 891 1326 650 
Q 1584 409 2034 409 
Q 2484 409 2743 651 
Q 3003 894 3003 1313 
Q 3003 1734 2745 1975 
Q 2488 2216 2034 2216 
z
M 1403 2484 
Q 997 2584 770 2862 
Q 544 3141 544 3541 
Q 544 4100 942 4425 
Q 1341 4750 2034 4750 
Q 2731 4750 3128 4425 
Q 3525 4100 3525 3541 
Q 3525 3141 3298 2862 
Q 3072 2584 2669 2484 
Q 3125 2378 3379 2068 
Q 3634 1759 3634 1313 
Q 3634 634 3220 271 
Q 2806 -91 2034 -91 
Q 1263 -91 848 271 
Q 434 634 434 1313 
Q 434 1759 690 2068 
Q 947 2378 1403 2484 
z
M 1172 3481 
Q 1172 3119 1398 2916 
Q 1625 2713 2034 2713 
Q 2441 2713 2670 2916 
Q 2900 3119 2900 3481 
Q 2900 3844 2670 4047 
Q 2441 4250 2034 4250 
Q 1625 4250 1398 4047 
Q 1172 3844 1172 3481 
z
" transform="scale(0.015625)"/>
     </defs>
     <use xlink:href="#DejaVuSans-33"/>
     <use xlink:href="#DejaVuSans-38" transform="translate(63.623047 0)"/>
     <use xlink:href="#DejaVuSans-39" transform="translate(127.246094 0)"/>
    </g>
   </g>
  </g>
  <g id="axes_4">
   <g id="patch_11">
    <path d="M 220.915235 181.852632 
L 541.856412 181.852632 
L 541.856412 39.2 
L 220.915235 39.2 
z
" style="fill: #ffffff"/>
   </g>
   <g id="matplotlib.axis_5">
    <g id="ytick_9">
     <g id="line2d_3">
      <path d="M 220.915235 181.852632 
L 541.856412 181.852632 
" clip-path="url(#p7e1cfe8125)" style="fill: none; stroke: #cccccc; stroke-width: 0.8; stroke-linecap: round"/>
     </g>
     <g id="text_11">
      <!-- 0 -->
      <g style="fill: #262626" transform="translate(201.190235 189.451069) scale(0.2 -0.2)">
       <use xlink:href="#DejaVuSans-30"/>
      </g>
     </g>
    </g>
    <g id="ytick_10">
     <g id="line2d_4">
      <path d="M 220.915235 110.158885 
L 541.856412 110.158885 
" clip-path="url(#p7e1cfe8125)" style="fill: none; stroke: #cccccc; stroke-width: 0.8; stroke-linecap: round"/>
     </g>
     <g id="text_12">
      <!-- 200 -->
      <g style="fill: #262626" transform="translate(175.740235 117.757323) scale(0.2 -0.2)">
       <use xlink:href="#DejaVuSans-32"/>
       <use xlink:href="#DejaVuSans-30" transform="translate(63.623047 0)"/>
       <use xlink:href="#DejaVuSans-30" transform="translate(127.246094 0)"/>
      </g>
     </g>
    </g>
    <g id="text_13">
     <!-- Intersection size -->
     <g style="fill: #262626" transform="translate(167.58086 192.581003) rotate(-90) scale(0.2 -0.2)">
      <defs>
       <path id="DejaVuSans-49" d="M 628 4666 
L 1259 4666 
L 1259 0 
L 628 0 
L 628 4666 
z
" transform="scale(0.015625)"/>
       <path id="DejaVuSans-6e" d="M 3513 2113 
L 3513 0 
L 2938 0 
L 2938 2094 
Q 2938 2591 2744 2837 
Q 2550 3084 2163 3084 
Q 1697 3084 1428 2787 
Q 1159 2491 1159 1978 
L 1159 0 
L 581 0 
L 581 3500 
L 1159 3500 
L 1159 2956 
Q 1366 3272 1645 3428 
Q 1925 3584 2291 3584 
Q 2894 3584 3203 3211 
Q 3513 2838 3513 2113 
z
" transform="scale(0.015625)"/>
       <path id="DejaVuSans-65" d="M 3597 1894 
L 3597 1613 
L 953 1613 
Q 991 1019 1311 708 
Q 1631 397 2203 397 
Q 2534 397 2845 478 
Q 3156 559 3463 722 
L 3463 178 
Q 3153 47 2828 -22 
Q 2503 -91 2169 -91 
Q 1331 -91 842 396 
Q 353 884 353 1716 
Q 353 2575 817 3079 
Q 1281 3584 2069 3584 
Q 2775 3584 3186 3129 
Q 3597 2675 3597 1894 
z
M 3022 2063 
Q 3016 2534 2758 2815 
Q 2500 3097 2075 3097 
Q 1594 3097 1305 2825 
Q 1016 2553 972 2059 
L 3022 2063 
z
" transform="scale(0.015625)"/>
       <path id="DejaVuSans-63" d="M 3122 3366 
L 3122 2828 
Q 2878 2963 2633 3030 
Q 2388 3097 2138 3097 
Q 1578 3097 1268 2742 
Q 959 2388 959 1747 
Q 959 1106 1268 751 
Q 1578 397 2138 397 
Q 2388 397 2633 464 
Q 2878 531 3122 666 
L 3122 134 
Q 2881 22 2623 -34 
Q 2366 -91 2075 -91 
Q 1284 -91 818 406 
Q 353 903 353 1747 
Q 353 2603 823 3093 
Q 1294 3584 2113 3584 
Q 2378 3584 2631 3529 
Q 2884 3475 3122 3366 
z
" transform="scale(0.015625)"/>
       <path id="DejaVuSans-20" transform="scale(0.015625)"/>
       <path id="DejaVuSans-7a" d="M 353 3500 
L 3084 3500 
L 3084 2975 
L 922 459 
L 3084 459 
L 3084 0 
L 275 0 
L 275 525 
L 2438 3041 
L 353 3041 
L 353 3500 
z
" transform="scale(0.015625)"/>
      </defs>
      <use xlink:href="#DejaVuSans-49"/>
      <use xlink:href="#DejaVuSans-6e" transform="translate(29.492188 0)"/>
      <use xlink:href="#DejaVuSans-74" transform="translate(92.871094 0)"/>
      <use xlink:href="#DejaVuSans-65" transform="translate(132.080078 0)"/>
      <use xlink:href="#DejaVuSans-72" transform="translate(193.603516 0)"/>
      <use xlink:href="#DejaVuSans-73" transform="translate(234.716797 0)"/>
      <use xlink:href="#DejaVuSans-65" transform="translate(286.816406 0)"/>
      <use xlink:href="#DejaVuSans-63" transform="translate(348.339844 0)"/>
      <use xlink:href="#DejaVuSans-74" transform="translate(403.320312 0)"/>
      <use xlink:href="#DejaVuSans-69" transform="translate(442.529297 0)"/>
      <use xlink:href="#DejaVuSans-6f" transform="translate(470.3125 0)"/>
      <use xlink:href="#DejaVuSans-6e" transform="translate(531.494141 0)"/>
      <use xlink:href="#DejaVuSans-20" transform="translate(594.873047 0)"/>
      <use xlink:href="#DejaVuSans-73" transform="translate(626.660156 0)"/>
      <use xlink:href="#DejaVuSans-69" transform="translate(678.759766 0)"/>
      <use xlink:href="#DejaVuSans-7a" transform="translate(706.542969 0)"/>
      <use xlink:href="#DejaVuSans-65" transform="translate(759.033203 0)"/>
     </g>
    </g>
   </g>
   <g id="patch_12">
    <path d="M 220.915235 181.852632 
L 220.915235 39.2 
" style="fill: none; stroke: #262626; stroke-width: 0.8; stroke-linejoin: miter; stroke-linecap: square"/>
   </g>
   <g id="text_14">
    <!-- 379 -->
    <g style="fill: #262626" transform="translate(214.171627 40.407081) scale(0.2 -0.2)">
     <use xlink:href="#DejaVuSans-33"/>
     <use xlink:href="#DejaVuSans-37" transform="translate(63.623047 0)"/>
     <use xlink:href="#DejaVuSans-39" transform="translate(127.246094 0)"/>
    </g>
   </g>
   <g id="text_15">
    <!-- 308 -->
    <g style="fill: #262626" transform="translate(238.85941 65.858361) scale(0.2 -0.2)">
     <use xlink:href="#DejaVuSans-33"/>
     <use xlink:href="#DejaVuSans-30" transform="translate(63.623047 0)"/>
     <use xlink:href="#DejaVuSans-38" transform="translate(127.246094 0)"/>
    </g>
   </g>
   <g id="text_16">
    <!-- 56 -->
    <g style="fill: #262626" transform="translate(269.909692 156.192481) scale(0.2 -0.2)">
     <defs>
      <path id="DejaVuSans-36" d="M 2113 2584 
Q 1688 2584 1439 2293 
Q 1191 2003 1191 1497 
Q 1191 994 1439 701 
Q 1688 409 2113 409 
Q 2538 409 2786 701 
Q 3034 994 3034 1497 
Q 3034 2003 2786 2293 
Q 2538 2584 2113 2584 
z
M 3366 4563 
L 3366 3988 
Q 3128 4100 2886 4159 
Q 2644 4219 2406 4219 
Q 1781 4219 1451 3797 
Q 1122 3375 1075 2522 
Q 1259 2794 1537 2939 
Q 1816 3084 2150 3084 
Q 2853 3084 3261 2657 
Q 3669 2231 3669 1497 
Q 3669 778 3244 343 
Q 2819 -91 2113 -91 
Q 1303 -91 875 529 
Q 447 1150 447 2328 
Q 447 3434 972 4092 
Q 1497 4750 2381 4750 
Q 2619 4750 2861 4703 
Q 3103 4656 3366 4563 
z
" transform="scale(0.015625)"/>
     </defs>
     <use xlink:href="#DejaVuSans-35"/>
     <use xlink:href="#DejaVuSans-36" transform="translate(63.623047 0)"/>
    </g>
   </g>
   <g id="text_17">
    <!-- 21 -->
    <g style="fill: #262626" transform="translate(294.597475 168.738887) scale(0.2 -0.2)">
     <use xlink:href="#DejaVuSans-32"/>
     <use xlink:href="#DejaVuSans-31" transform="translate(63.623047 0)"/>
    </g>
   </g>
   <g id="text_18">
    <!-- 16 -->
    <g style="fill: #262626" transform="translate(319.285258 170.531231) scale(0.2 -0.2)">
     <use xlink:href="#DejaVuSans-31"/>
     <use xlink:href="#DejaVuSans-36" transform="translate(63.623047 0)"/>
    </g>
   </g>
   <g id="text_19">
    <!-- 15 -->
    <g style="fill: #262626" transform="translate(343.973041 170.889699) scale(0.2 -0.2)">
     <use xlink:href="#DejaVuSans-31"/>
     <use xlink:href="#DejaVuSans-35" transform="translate(63.623047 0)"/>
    </g>
   </g>
   <g id="text_20">
    <!-- 14 -->
    <g style="fill: #262626" transform="translate(368.660824 171.248168) scale(0.2 -0.2)">
     <use xlink:href="#DejaVuSans-31"/>
     <use xlink:href="#DejaVuSans-34" transform="translate(63.623047 0)"/>
    </g>
   </g>
   <g id="text_21">
    <!-- 9 -->
    <g style="fill: #262626" transform="translate(399.711106 173.040512) scale(0.2 -0.2)">
     <use xlink:href="#DejaVuSans-39"/>
    </g>
   </g>
   <g id="text_22">
    <!-- 8 -->
    <g style="fill: #262626" transform="translate(424.398889 173.39898) scale(0.2 -0.2)">
     <use xlink:href="#DejaVuSans-38"/>
    </g>
   </g>
   <g id="text_23">
    <!-- 7 -->
    <g style="fill: #262626" transform="translate(449.086672 173.757449) scale(0.2 -0.2)">
     <use xlink:href="#DejaVuSans-37"/>
    </g>
   </g>
   <g id="text_24">
    <!-- 3 -->
    <g style="fill: #262626" transform="translate(473.774455 175.191324) scale(0.2 -0.2)">
     <use xlink:href="#DejaVuSans-33"/>
    </g>
   </g>
   <g id="text_25">
    <!-- 3 -->
    <g style="fill: #262626" transform="translate(498.462238 175.191324) scale(0.2 -0.2)">
     <use xlink:href="#DejaVuSans-33"/>
    </g>
   </g>
   <g id="text_26">
    <!-- 1 -->
    <g style="fill: #262626" transform="translate(523.15002 175.908262) scale(0.2 -0.2)">
     <use xlink:href="#DejaVuSans-31"/>
    </g>
   </g>
   <g id="patch_13">
    <path d="M 227.087181 181.852632 
L 239.431072 181.852632 
L 239.431072 45.992982 
L 227.087181 45.992982 
z
" clip-path="url(#p7e1cfe8125)" style="stroke: #000000; stroke-linejoin: miter"/>
   </g>
   <g id="patch_14">
    <path d="M 251.774964 181.852632 
L 264.118855 181.852632 
L 264.118855 71.444262 
L 251.774964 71.444262 
z
" clip-path="url(#p7e1cfe8125)" style="stroke: #000000; stroke-linejoin: miter"/>
   </g>
   <g id="patch_15">
    <path d="M 276.462747 181.852632 
L 288.806638 181.852632 
L 288.806638 161.778383 
L 276.462747 161.778383 
z
" clip-path="url(#p7e1cfe8125)" style="stroke: #000000; stroke-linejoin: miter"/>
   </g>
   <g id="patch_16">
    <path d="M 301.150529 181.852632 
L 313.494421 181.852632 
L 313.494421 174.324788 
L 301.150529 174.324788 
z
" clip-path="url(#p7e1cfe8125)" style="stroke: #000000; stroke-linejoin: miter"/>
   </g>
   <g id="patch_17">
    <path d="M 325.838312 181.852632 
L 338.182204 181.852632 
L 338.182204 176.117132 
L 325.838312 176.117132 
z
" clip-path="url(#p7e1cfe8125)" style="stroke: #000000; stroke-linejoin: miter"/>
   </g>
   <g id="patch_18">
    <path d="M 350.526095 181.852632 
L 362.869986 181.852632 
L 362.869986 176.475601 
L 350.526095 176.475601 
z
" clip-path="url(#p7e1cfe8125)" style="stroke: #000000; stroke-linejoin: miter"/>
   </g>
   <g id="patch_19">
    <path d="M 375.213878 181.852632 
L 387.557769 181.852632 
L 387.557769 176.834069 
L 375.213878 176.834069 
z
" clip-path="url(#p7e1cfe8125)" style="stroke: #000000; stroke-linejoin: miter"/>
   </g>
   <g id="patch_20">
    <path d="M 399.901661 181.852632 
L 412.245552 181.852632 
L 412.245552 178.626413 
L 399.901661 178.626413 
z
" clip-path="url(#p7e1cfe8125)" style="stroke: #000000; stroke-linejoin: miter"/>
   </g>
   <g id="patch_21">
    <path d="M 424.589443 181.852632 
L 436.933335 181.852632 
L 436.933335 178.984882 
L 424.589443 178.984882 
z
" clip-path="url(#p7e1cfe8125)" style="stroke: #000000; stroke-linejoin: miter"/>
   </g>
   <g id="patch_22">
    <path d="M 449.277226 181.852632 
L 461.621118 181.852632 
L 461.621118 179.34335 
L 449.277226 179.34335 
z
" clip-path="url(#p7e1cfe8125)" style="stroke: #000000; stroke-linejoin: miter"/>
   </g>
   <g id="patch_23">
    <path d="M 473.965009 181.852632 
L 486.3089 181.852632 
L 486.3089 180.777225 
L 473.965009 180.777225 
z
" clip-path="url(#p7e1cfe8125)" style="stroke: #000000; stroke-linejoin: miter"/>
   </g>
   <g id="patch_24">
    <path d="M 498.652792 181.852632 
L 510.996683 181.852632 
L 510.996683 180.777225 
L 498.652792 180.777225 
z
" clip-path="url(#p7e1cfe8125)" style="stroke: #000000; stroke-linejoin: miter"/>
   </g>
   <g id="patch_25">
    <path d="M 523.340575 181.852632 
L 535.684466 181.852632 
L 535.684466 181.494163 
L 523.340575 181.494163 
z
" clip-path="url(#p7e1cfe8125)" style="stroke: #000000; stroke-linejoin: miter"/>
   </g>
  </g>
  <g id="text_27">
   <!-- Overlap of predicted cleavage sites and SwissProt reference -->
   <g style="fill: #262626" transform="translate(45.005162 19.3575) scale(0.16 -0.16)">
    <defs>
     <path id="DejaVuSans-4f" d="M 2522 4238 
Q 1834 4238 1429 3725 
Q 1025 3213 1025 2328 
Q 1025 1447 1429 934 
Q 1834 422 2522 422 
Q 3209 422 3611 934 
Q 4013 1447 4013 2328 
Q 4013 3213 3611 3725 
Q 3209 4238 2522 4238 
z
M 2522 4750 
Q 3503 4750 4090 4092 
Q 4678 3434 4678 2328 
Q 4678 1225 4090 567 
Q 3503 -91 2522 -91 
Q 1538 -91 948 565 
Q 359 1222 359 2328 
Q 359 3434 948 4092 
Q 1538 4750 2522 4750 
z
" transform="scale(0.015625)"/>
     <path id="DejaVuSans-76" d="M 191 3500 
L 800 3500 
L 1894 563 
L 2988 3500 
L 3597 3500 
L 2284 0 
L 1503 0 
L 191 3500 
z
" transform="scale(0.015625)"/>
     <path id="DejaVuSans-6c" d="M 603 4863 
L 1178 4863 
L 1178 0 
L 603 0 
L 603 4863 
z
" transform="scale(0.015625)"/>
     <path id="DejaVuSans-61" d="M 2194 1759 
Q 1497 1759 1228 1600 
Q 959 1441 959 1056 
Q 959 750 1161 570 
Q 1363 391 1709 391 
Q 2188 391 2477 730 
Q 2766 1069 2766 1631 
L 2766 1759 
L 2194 1759 
z
M 3341 1997 
L 3341 0 
L 2766 0 
L 2766 531 
Q 2569 213 2275 61 
Q 1981 -91 1556 -91 
Q 1019 -91 701 211 
Q 384 513 384 1019 
Q 384 1609 779 1909 
Q 1175 2209 1959 2209 
L 2766 2209 
L 2766 2266 
Q 2766 2663 2505 2880 
Q 2244 3097 1772 3097 
Q 1472 3097 1187 3025 
Q 903 2953 641 2809 
L 641 3341 
Q 956 3463 1253 3523 
Q 1550 3584 1831 3584 
Q 2591 3584 2966 3190 
Q 3341 2797 3341 1997 
z
" transform="scale(0.015625)"/>
     <path id="DejaVuSans-70" d="M 1159 525 
L 1159 -1331 
L 581 -1331 
L 581 3500 
L 1159 3500 
L 1159 2969 
Q 1341 3281 1617 3432 
Q 1894 3584 2278 3584 
Q 2916 3584 3314 3078 
Q 3713 2572 3713 1747 
Q 3713 922 3314 415 
Q 2916 -91 2278 -91 
Q 1894 -91 1617 61 
Q 1341 213 1159 525 
z
M 3116 1747 
Q 3116 2381 2855 2742 
Q 2594 3103 2138 3103 
Q 1681 3103 1420 2742 
Q 1159 2381 1159 1747 
Q 1159 1113 1420 752 
Q 1681 391 2138 391 
Q 2594 391 2855 752 
Q 3116 1113 3116 1747 
z
" transform="scale(0.015625)"/>
     <path id="DejaVuSans-66" d="M 2375 4863 
L 2375 4384 
L 1825 4384 
Q 1516 4384 1395 4259 
Q 1275 4134 1275 3809 
L 1275 3500 
L 2222 3500 
L 2222 3053 
L 1275 3053 
L 1275 0 
L 697 0 
L 697 3053 
L 147 3053 
L 147 3500 
L 697 3500 
L 697 3744 
Q 697 4328 969 4595 
Q 1241 4863 1831 4863 
L 2375 4863 
z
" transform="scale(0.015625)"/>
     <path id="DejaVuSans-64" d="M 2906 2969 
L 2906 4863 
L 3481 4863 
L 3481 0 
L 2906 0 
L 2906 525 
Q 2725 213 2448 61 
Q 2172 -91 1784 -91 
Q 1150 -91 751 415 
Q 353 922 353 1747 
Q 353 2572 751 3078 
Q 1150 3584 1784 3584 
Q 2172 3584 2448 3432 
Q 2725 3281 2906 2969 
z
M 947 1747 
Q 947 1113 1208 752 
Q 1469 391 1925 391 
Q 2381 391 2643 752 
Q 2906 1113 2906 1747 
Q 2906 2381 2643 2742 
Q 2381 3103 1925 3103 
Q 1469 3103 1208 2742 
Q 947 2381 947 1747 
z
" transform="scale(0.015625)"/>
     <path id="DejaVuSans-67" d="M 2906 1791 
Q 2906 2416 2648 2759 
Q 2391 3103 1925 3103 
Q 1463 3103 1205 2759 
Q 947 2416 947 1791 
Q 947 1169 1205 825 
Q 1463 481 1925 481 
Q 2391 481 2648 825 
Q 2906 1169 2906 1791 
z
M 3481 434 
Q 3481 -459 3084 -895 
Q 2688 -1331 1869 -1331 
Q 1566 -1331 1297 -1286 
Q 1028 -1241 775 -1147 
L 775 -588 
Q 1028 -725 1275 -790 
Q 1522 -856 1778 -856 
Q 2344 -856 2625 -561 
Q 2906 -266 2906 331 
L 2906 616 
Q 2728 306 2450 153 
Q 2172 0 1784 0 
Q 1141 0 747 490 
Q 353 981 353 1791 
Q 353 2603 747 3093 
Q 1141 3584 1784 3584 
Q 2172 3584 2450 3431 
Q 2728 3278 2906 2969 
L 2906 3500 
L 3481 3500 
L 3481 434 
z
" transform="scale(0.015625)"/>
    </defs>
    <use xlink:href="#DejaVuSans-4f"/>
    <use xlink:href="#DejaVuSans-76" transform="translate(78.710938 0)"/>
    <use xlink:href="#DejaVuSans-65" transform="translate(137.890625 0)"/>
    <use xlink:href="#DejaVuSans-72" transform="translate(199.414062 0)"/>
    <use xlink:href="#DejaVuSans-6c" transform="translate(240.527344 0)"/>
    <use xlink:href="#DejaVuSans-61" transform="translate(268.310547 0)"/>
    <use xlink:href="#DejaVuSans-70" transform="translate(329.589844 0)"/>
    <use xlink:href="#DejaVuSans-20" transform="translate(393.066406 0)"/>
    <use xlink:href="#DejaVuSans-6f" transform="translate(424.853516 0)"/>
    <use xlink:href="#DejaVuSans-66" transform="translate(486.035156 0)"/>
    <use xlink:href="#DejaVuSans-20" transform="translate(521.240234 0)"/>
    <use xlink:href="#DejaVuSans-70" transform="translate(553.027344 0)"/>
    <use xlink:href="#DejaVuSans-72" transform="translate(616.503906 0)"/>
    <use xlink:href="#DejaVuSans-65" transform="translate(655.367188 0)"/>
    <use xlink:href="#DejaVuSans-64" transform="translate(716.890625 0)"/>
    <use xlink:href="#DejaVuSans-69" transform="translate(780.367188 0)"/>
    <use xlink:href="#DejaVuSans-63" transform="translate(808.150391 0)"/>
    <use xlink:href="#DejaVuSans-74" transform="translate(863.130859 0)"/>
    <use xlink:href="#DejaVuSans-65" transform="translate(902.339844 0)"/>
    <use xlink:href="#DejaVuSans-64" transform="translate(963.863281 0)"/>
    <use xlink:href="#DejaVuSans-20" transform="translate(1027.339844 0)"/>
    <use xlink:href="#DejaVuSans-63" transform="translate(1059.126953 0)"/>
    <use xlink:href="#DejaVuSans-6c" transform="translate(1114.107422 0)"/>
    <use xlink:href="#DejaVuSans-65" transform="translate(1141.890625 0)"/>
    <use xlink:href="#DejaVuSans-61" transform="translate(1203.414062 0)"/>
    <use xlink:href="#DejaVuSans-76" transform="translate(1264.693359 0)"/>
    <use xlink:href="#DejaVuSans-61" transform="translate(1323.873047 0)"/>
    <use xlink:href="#DejaVuSans-67" transform="translate(1385.152344 0)"/>
    <use xlink:href="#DejaVuSans-65" transform="translate(1448.628906 0)"/>
    <use xlink:href="#DejaVuSans-20" transform="translate(1510.152344 0)"/>
    <use xlink:href="#DejaVuSans-73" transform="translate(1541.939453 0)"/>
    <use xlink:href="#DejaVuSans-69" transform="translate(1594.039062 0)"/>
    <use xlink:href="#DejaVuSans-74" transform="translate(1621.822266 0)"/>
    <use xlink:href="#DejaVuSans-65" transform="translate(1661.03125 0)"/>
    <use xlink:href="#DejaVuSans-73" transform="translate(1722.554688 0)"/>
    <use xlink:href="#DejaVuSans-20" transform="translate(1774.654297 0)"/>
    <use xlink:href="#DejaVuSans-61" transform="translate(1806.441406 0)"/>
    <use xlink:href="#DejaVuSans-6e" transform="translate(1867.720703 0)"/>
    <use xlink:href="#DejaVuSans-64" transform="translate(1931.099609 0)"/>
    <use xlink:href="#DejaVuSans-20" transform="translate(1994.576172 0)"/>
    <use xlink:href="#DejaVuSans-53" transform="translate(2026.363281 0)"/>
    <use xlink:href="#DejaVuSans-77" transform="translate(2089.839844 0)"/>
    <use xlink:href="#DejaVuSans-69" transform="translate(2171.626953 0)"/>
    <use xlink:href="#DejaVuSans-73" transform="translate(2199.410156 0)"/>
    <use xlink:href="#DejaVuSans-73" transform="translate(2251.509766 0)"/>
    <use xlink:href="#DejaVuSans-50" transform="translate(2303.609375 0)"/>
    <use xlink:href="#DejaVuSans-72" transform="translate(2362.162109 0)"/>
    <use xlink:href="#DejaVuSans-6f" transform="translate(2401.025391 0)"/>
    <use xlink:href="#DejaVuSans-74" transform="translate(2462.207031 0)"/>
    <use xlink:href="#DejaVuSans-20" transform="translate(2501.416016 0)"/>
    <use xlink:href="#DejaVuSans-72" transform="translate(2533.203125 0)"/>
    <use xlink:href="#DejaVuSans-65" transform="translate(2572.066406 0)"/>
    <use xlink:href="#DejaVuSans-66" transform="translate(2633.589844 0)"/>
    <use xlink:href="#DejaVuSans-65" transform="translate(2668.794922 0)"/>
    <use xlink:href="#DejaVuSans-72" transform="translate(2730.318359 0)"/>
    <use xlink:href="#DejaVuSans-65" transform="translate(2769.181641 0)"/>
    <use xlink:href="#DejaVuSans-6e" transform="translate(2830.705078 0)"/>
    <use xlink:href="#DejaVuSans-63" transform="translate(2894.083984 0)"/>
    <use xlink:href="#DejaVuSans-65" transform="translate(2949.064453 0)"/>
   </g>
  </g>
 </g>
 <defs>
  <clipPath id="p85aaaaec65">
   <rect x="45.856412" y="194.821053" width="496" height="90.778947"/>
  </clipPath>
  <clipPath id="pb2274e73a0">
   <rect x="220.915235" y="194.821053" width="320.941176" height="90.778947"/>
  </clipPath>
  <clipPath id="pe779199847">
   <rect x="45.856412" y="194.821053" width="45.848739" height="90.778947"/>
  </clipPath>
  <clipPath id="p7e1cfe8125">
   <rect x="220.915235" y="39.2" width="320.941176" height="142.652632"/>
  </clipPath>
 </defs>
</svg>
